<svg xmlns="http://www.w3.org/2000/svg" viewBox="0 0 750 500"><g id="freepik--background-complete--inject-2"><rect x="359.2" y="86.77" width="88.92" height="92.7" style="fill:#e0e0e0"></rect><rect x="353.18" y="86.77" width="88.92" height="92.7" style="fill:#ebebeb"></rect><rect x="365.13" y="99.23" width="65.02" height="67.77" style="fill:#fafafa"></rect><path d="M365.13,167.45a11.85,11.85,0,0,1-1.62,1.85c-1,1.09-2.51,2.56-4.14,4.18s-3.14,3.05-4.24,4.07a11.92,11.92,0,0,1-1.86,1.59,11.44,11.44,0,0,1,1.62-1.84c1-1.09,2.51-2.57,4.15-4.18s3.14-3.06,4.24-4.09A13.06,13.06,0,0,1,365.13,167.45Z" style="fill:#e0e0e0"></path><path d="M430.15,167.29a12.12,12.12,0,0,1,1.84,1.62c1.09,1,2.57,2.51,4.18,4.14s3.05,3.14,4.08,4.24a13.52,13.52,0,0,1,1.59,1.86,11.44,11.44,0,0,1-1.84-1.62c-1.09-1-2.57-2.51-4.19-4.15s-3.05-3.14-4.08-4.24A13.06,13.06,0,0,1,430.15,167.29Z" style="fill:#e0e0e0"></path><path d="M430,99.41a12.64,12.64,0,0,1,1.63-1.84c1-1.09,2.5-2.57,4.14-4.18s3.14-3,4.24-4.08a12.84,12.84,0,0,1,1.86-1.59,12.88,12.88,0,0,1-1.62,1.84c-1,1.09-2.51,2.57-4.15,4.19s-3.14,3-4.25,4.08A11.84,11.84,0,0,1,430,99.41Z" style="fill:#e0e0e0"></path><path d="M365,99.58A12.49,12.49,0,0,1,363.11,98c-1.09-1-2.57-2.5-4.18-4.14s-3.05-3.14-4.07-4.24a11.39,11.39,0,0,1-1.59-1.86,12.12,12.12,0,0,1,1.84,1.62c1.09,1,2.57,2.51,4.18,4.15s3.06,3.14,4.09,4.25A11.84,11.84,0,0,1,365,99.58Z" style="fill:#e0e0e0"></path><path d="M430,167s0-.11,0-.32,0-.54,0-1c0-.84,0-2.06,0-3.65,0-3.21,0-7.88-.05-13.81,0-11.87-.07-28.79-.11-49l.21.21-64.83,0h0l.25-.24c0,24.88,0,48.15,0,67.77l-.21-.21,47,.11,13.19,0,3.48,0h.92l-.87,0-3.45,0-13.13,0-47.1.11h-.21V167c0-19.62,0-42.89,0-67.77V99h.25L430,99h.22v.21c0,20.31-.08,37.27-.1,49.17,0,5.92-.05,10.57-.06,13.76,0,1.58,0,2.78,0,3.62,0,.39,0,.7,0,.92S430,167,430,167Z" style="fill:#e0e0e0"></path><path d="M382.29,127.54s-1.39,16.78,16.78,16.78C399.07,135.37,391.69,128.3,382.29,127.54Z" style="fill:#ebebeb"></path><path d="M415.55,127.55s-16.78-1.39-16.78,16.79C407.72,144.34,414.79,137,415.55,127.55Z" style="fill:#ebebeb"></path><path d="M398.27,118.37s-13.71,12.31.75,25.95C405.74,137.2,405.17,126,398.27,118.37Z" style="fill:#e0e0e0"></path><polygon points="257.29 67.23 257.29 180.69 110.75 180.69 105.47 68.02 257.29 67.23" style="fill:#e0e0e0"></polygon><rect x="122.34" y="51.01" width="112.8" height="146.54" transform="translate(54.46 303.03) rotate(-90)" style="fill:#fff"></rect><path d="M252.57,181.24H104.91V67.33H252.57ZM106,180.13H251.45V68.45H106Z" style="fill:#e0e0e0"></path><rect x="121.34" y="79.48" width="114.8" height="86.36" style="fill:#fff"></rect><path d="M236.14,79.48h-.56l-1.61,0-6.25,0-23.55.07-82.83.13.26-.26c0,25.9,0,55.3,0,86.35h0l-.29-.29,114.8,0-.24.24c0-26.1.1-47.66.13-62.71,0-7.53,0-13.43.06-17.46,0-2,0-3.54,0-4.6s0-1.59,0-1.59,0,.51,0,1.54,0,2.57,0,4.55c0,4,0,9.9.07,17.41,0,15.09.07,36.7.12,62.86v.24h-.24l-114.8,0h-.29v-.29h0c0-31.05,0-60.45,0-86.35v-.26h.26l83,.13,23.49.07,6.2,0h1.58Z" style="fill:#e0e0e0"></path><path d="M105.47,67.62A15.34,15.34,0,0,1,108,69.15c1.49,1,3.52,2.42,5.72,4s4.15,3.17,5.53,4.32a13.37,13.37,0,0,1,2.14,2,15.56,15.56,0,0,1-2.4-1.65l-5.61-4.17-5.62-4.18A13.89,13.89,0,0,1,105.47,67.62Z" style="fill:#e0e0e0"></path><path d="M252,67.89a82.26,82.26,0,0,1-7.76,6,83.38,83.38,0,0,1-8.11,5.56,83.89,83.89,0,0,1,7.76-6A84.82,84.82,0,0,1,252,67.89Z" style="fill:#e0e0e0"></path><line x1="252.01" y1="180.69" x2="235.56" y2="165.84" style="fill:#fff"></line><path d="M235.56,165.84A105.9,105.9,0,0,1,244,173a106.76,106.76,0,0,1,8,7.65,107.45,107.45,0,0,1-8.42-7.21A105.58,105.58,0,0,1,235.56,165.84Z" style="fill:#e0e0e0"></path><path d="M105.47,180.69a93.87,93.87,0,0,1,7.66-7.31,94.66,94.66,0,0,1,8.05-6.87,94.87,94.87,0,0,1-7.66,7.3A98.39,98.39,0,0,1,105.47,180.69Z" style="fill:#e0e0e0"></path><path d="M206.43,121.87a13.85,13.85,0,1,1-10.67-16.43A13.85,13.85,0,0,1,206.43,121.87Z" style="fill:#f5f5f5"></path><path d="M188.38,132.15c-.15-.07.45-1.49,1.21-3.83a23.21,23.21,0,0,0,1.26-9.31,13,13,0,0,0-4-8.18c-1.8-1.6-3.36-1.94-3.29-2.13s1.69,0,3.78,1.55a12.76,12.76,0,0,1,4.64,8.64,20.4,20.4,0,0,1-1.63,9.69C189.34,130.9,188.5,132.21,188.38,132.15Z" style="fill:#e0e0e0"></path><path d="M206.26,117.32c-.06.31-3.73-1-8,.27s-6.7,4.36-6.93,4.13c-.11-.08.32-1,1.41-2.07a12.22,12.22,0,0,1,5.21-3.09,12.08,12.08,0,0,1,6.06-.22C205.48,116.68,206.31,117.19,206.26,117.32Z" style="fill:#e0e0e0"></path><path d="M200,116.61c-.18,0-.1-1-.6-2.33a6.23,6.23,0,0,0-9-3.51c-1.28.66-1.87,1.42-2,1.31s.28-1,1.62-2a6.52,6.52,0,0,1,10.12,3.94C200.5,115.66,200.12,116.64,200,116.61Z" style="fill:#e0e0e0"></path><path d="M195.59,118.07c-.31-.06-.08-2-.64-4.18s-1.57-3.81-1.32-4,1.78,1.26,2.37,3.76S195.86,118.17,195.59,118.07Z" style="fill:#e0e0e0"></path><path d="M195.47,113.73c0,.32-1.21.39-2.35,1s-2.12,1.42-2.34,1.18.38-1.32,1.84-2.14S195.53,113.47,195.47,113.73Z" style="fill:#e0e0e0"></path><path d="M173.3,120.23a10.51,10.51,0,1,1-14.81,1.28A10.51,10.51,0,0,1,173.3,120.23Z" style="fill:#f5f5f5"></path><path d="M173.74,136a17.23,17.23,0,0,1-2.14-2.17,17.42,17.42,0,0,0-5.78-4.17,9.89,9.89,0,0,0-6.92-.21,19.12,19.12,0,0,0-2.6,1.45c-.07,0,.58-1.15,2.38-2a9.65,9.65,0,0,1,7.45,0,15.51,15.51,0,0,1,5.9,4.54A8.68,8.68,0,0,1,173.74,136Z" style="fill:#e0e0e0"></path><path d="M170.19,118.72c.18.15-2,2.14-2.7,5.49s.53,6,.3,6.11-.53-.56-.89-1.69a9.28,9.28,0,0,1,1.81-8.72C169.48,119,170.12,118.64,170.19,118.72Z" style="fill:#e0e0e0"></path><path d="M167.48,122.65c-.07.12-.68-.28-1.77-.43a4.71,4.71,0,0,0-5.56,4.77c0,1.1.28,1.77.16,1.82s-.59-.56-.74-1.79a5,5,0,0,1,6.25-5.37C167,122,167.54,122.59,167.48,122.65Z" style="fill:#e0e0e0"></path><path d="M166.88,126.13c-.15.18-1.34-.64-3-1.06s-3.12-.31-3.16-.55,1.48-.74,3.37-.24S167,126,166.88,126.13Z" style="fill:#e0e0e0"></path><path d="M163.93,124.67c.21.12-.17.94-.17,1.92s.19,1.92,0,2-.75-.73-.77-2S163.78,124.53,163.93,124.67Z" style="fill:#e0e0e0"></path><path d="M173.75,116.61c-3.72-2.42-6-6.73-7.48-10.92a20.52,20.52,0,0,1-.17-13.07,17.06,17.06,0,0,1,8.94,9.56c1.55,4.2.64,10.39-1.29,14.43" style="fill:#ebebeb"></path><path d="M169.42,99.48a146.07,146.07,0,0,1,4,16.52" style="fill:#fff"></path><path d="M173.41,116a11.91,11.91,0,0,1-.66-2.41c-.41-1.72-.87-3.68-1.38-5.84s-1-4.11-1.44-5.82a12.46,12.46,0,0,1-.51-2.45,9.76,9.76,0,0,1,.9,2.33c.48,1.47,1.07,3.52,1.62,5.8s1,4.38,1.21,5.9A9.63,9.63,0,0,1,173.41,116Z" style="fill:#e0e0e0"></path><path d="M183.15,135.47c4.34-.91,9,.52,13,2.43a20.63,20.63,0,0,1,9.36,9.13,17.05,17.05,0,0,1-13.08-.44c-4.06-1.87-7.8-6.9-9.29-11.12" style="fill:#ebebeb"></path><path d="M198.32,144.53a149,149,0,0,1-14.5-8.86" style="fill:#fff"></path><path d="M183.82,135.67A11.24,11.24,0,0,1,186,136.9l5.1,3.16,5.14,3.09a11.26,11.26,0,0,1,2.08,1.38,9.76,9.76,0,0,1-2.28-1c-1.38-.7-3.24-1.73-5.25-3s-3.77-2.41-5-3.31A10.26,10.26,0,0,1,183.82,135.67Z" style="fill:#e0e0e0"></path><path d="M179,137.54c.8,2.52.21,5.38-.69,7.87a12.21,12.21,0,0,1-4.88,6.11,10.23,10.23,0,0,1-.51-7.81c.88-2.53,3.65-5,6.08-6.17" style="fill:#ebebeb"></path><path d="M174.45,147.09a88.38,88.38,0,0,1,4.42-9.14" style="fill:#fff"></path><path d="M178.87,138a30.9,30.9,0,0,1-2.08,4.63,30.06,30.06,0,0,1-2.34,4.51,17.77,17.77,0,0,1,1.82-4.76A17.66,17.66,0,0,1,178.87,138Z" style="fill:#e0e0e0"></path><path d="M705.86,122a37.57,37.57,0,0,0-6.27-21.63c-4-6.29-9.76-11.66-16.71-14.38a29.09,29.09,0,0,0-34,9.69A29,29,0,0,0,620.11,77c-7.46.41-14.57,3.72-20.37,8.43A37.47,37.47,0,0,0,587,104c-2.58,9.2-2.42,19.75,1.15,28.62,3.76,9.36,11,17.58,18.65,24.09,13,11,30.11,24.8,30.11,24.8s17.89-9.38,33.62-15.72c9.36-3.77,18.76-9.33,25.26-17C702,141.46,705.43,131.5,705.86,122Z" style="fill:#ebebeb"></path><path d="M587.64,69.18a11.54,11.54,0,0,0-3.42-6,11.14,11.14,0,0,0-6-3.1,9.07,9.07,0,0,0-6.86,1.9,9,9,0,0,0-2.6,3.43,9.19,9.19,0,0,0-2.88-2.67,9.1,9.1,0,0,0-7.07-.83,11.07,11.07,0,0,0-5.48,4,11.49,11.49,0,0,0-2.48,6.47,14,14,0,0,0,2.4,8.47,19.85,19.85,0,0,0,7.3,5.87c4.66,2.34,10.78,5.26,10.78,5.26s4.68-4.09,8.93-7.11a19.85,19.85,0,0,0,6.33-6.91A14,14,0,0,0,587.64,69.18Z" style="fill:#f5f5f5"></path><path d="M506.17,452.79c-19.64-7.3-29-27.87-33.38-47.41-.73-3.27-2-6.58-1.16-9.82s3.88-6.11,7.13-5.5c2.7.51,4.47,3,6.41,5a19.55,19.55,0,0,0,9.47,5.28c2.33.53,5.05.52,6.79-1.12,2.39-2.27,1.72-6.21.87-9.42q-2.4-9-4.78-18c-.86-3.21-1.72-6.5-1.51-9.81s1.68-6.72,4.52-8.37,7.07-.87,8.54,2.11a31.27,31.27,0,0,1,1.13,4c.43,1.31,1.44,2.63,2.81,2.67s2.43-1.2,3.14-2.39c2.48-4.11,3.65-8.88,4.67-13.59s2-9.49,4.06-13.82,5.53-8.21,10.07-9.67,10.18.12,12.52,4.34.89,9.51-1,13.93a74.22,74.22,0,0,1-11.25,18.13,6,6,0,0,0-1.8,3.34c-.15,2.33,2.44,3.93,4.74,4.08,2.6.18,5.14-.75,7.72-1.1s5.59,0,7.16,2.17c2.17,2.94.31,7.1-1.81,10.06a63.4,63.4,0,0,1-15.47,15.23c-2.14,1.48-4.43,2.89-5.91,5.05s-1.88,5.35-.14,7.31,4.89,1.93,7.25.82,4.23-3,6.36-4.53c4-2.81,9.77-4,13.6-.9,2.51,2,3.58,5.48,3.42,8.72a24.36,24.36,0,0,1-2.82,9.21,63.8,63.8,0,0,1-21.59,25.41c-9.33,6.22-18.58,9.65-29.73,8.57" style="fill:#f5f5f5"></path><path d="M508,439.35a299.7,299.7,0,0,1,3.39-34c.45-3,.9-6,1.34-8.87s.9-5.79,1.5-8.59A151.34,151.34,0,0,1,518.66,372c1.65-5,3.4-9.64,5.06-14s3.32-8.37,5-12a118.06,118.06,0,0,1,9-16.4c1.22-1.84,2.21-3.24,2.89-4.18l.78-1.07a1.82,1.82,0,0,1,.29-.35,1.94,1.94,0,0,1-.24.39l-.73,1.1c-.65,1-1.6,2.38-2.79,4.24a125.69,125.69,0,0,0-8.84,16.45c-1.62,3.61-3.23,7.63-4.88,12s-3.37,9-5,14a150.94,150.94,0,0,0-4.37,15.8c-.6,2.78-1,5.64-1.49,8.56s-.88,5.87-1.34,8.86a304,304,0,0,0-3.42,33.93" style="fill:#e0e0e0"></path><path d="M514.41,387.83a6.76,6.76,0,0,1-.67-1.29c-.4-.85-.94-2.09-1.58-3.63-1.29-3.09-2.92-7.41-4.7-12.18s-3.47-9.05-4.8-12.11c-.66-1.53-1.2-2.76-1.59-3.61a6,6,0,0,1-.54-1.35,7.13,7.13,0,0,1,.75,1.24c.46.82,1.06,2,1.78,3.54,1.43,3,3.19,7.3,5,12.08s3.32,9,4.53,12.23c.55,1.46,1,2.7,1.4,3.69A7.11,7.11,0,0,1,514.41,387.83Z" style="fill:#e0e0e0"></path><path d="M553.75,369.36a9.39,9.39,0,0,1-1.59.63c-1,.37-2.54.89-4.38,1.61-3.68,1.39-8.7,3.49-14.13,6s-10.25,5.11-13.68,7c-1.73,1-3.1,1.77-4.05,2.32a10.17,10.17,0,0,1-1.51.82,8.2,8.2,0,0,1,1.38-1c.92-.62,2.26-1.49,4-2.5,3.39-2,8.19-4.64,13.64-7.22a150.08,150.08,0,0,1,14.24-5.91c1.86-.66,3.39-1.12,4.45-1.42A9,9,0,0,1,553.75,369.36Z" style="fill:#e0e0e0"></path><path d="M508.32,438.45s-.15-.13-.41-.43l-1.1-1.31c-.94-1.14-2.27-2.83-3.88-4.95-3.22-4.21-7.49-10.18-12.12-16.83s-8.84-12.65-12-16.93l-3.72-5.06-1-1.39a2.68,2.68,0,0,1-.32-.51,2.36,2.36,0,0,1,.42.44c.29.35.66.78,1.09,1.31.95,1.14,2.28,2.83,3.89,4.94,3.22,4.22,7.49,10.19,12.12,16.84s8.83,12.65,12,16.93l3.72,5.06c.4.55.73,1,1,1.38A2.3,2.3,0,0,1,508.32,438.45Z" style="fill:#e0e0e0"></path><path d="M558.68,406.48a2.36,2.36,0,0,1-.49.36l-1.46,1-5.39,3.44c-4.55,2.9-10.78,7-17.67,11.49s-13.17,8.55-17.78,11.36c-2.31,1.4-4.19,2.52-5.5,3.26l-1.51.85a1.93,1.93,0,0,1-.56.26,2.36,2.36,0,0,1,.49-.36l1.46-.95,5.39-3.44c4.55-2.9,10.79-7,17.68-11.49s13.16-8.55,17.77-11.35c2.31-1.41,4.19-2.53,5.5-3.27l1.52-.85A2.12,2.12,0,0,1,558.68,406.48Z" style="fill:#e0e0e0"></path><path d="M360,211.45A15.19,15.19,0,0,1,362.5,223a26.72,26.72,0,0,1-5,11c-4.6,6.37-12.34,11.07-19.56,14.16-2.92-8.23.68-17.69,2.8-22.38,3.36-7.41,13.93-18.77,19.28-14.37" style="fill:#ebebeb"></path><path d="M338.28,263.18a12.92,12.92,0,0,1,9.66-8.65,17.12,17.12,0,0,1,12.95,2.76c1.75,1.17,3.42,2.81,3.62,4.9a5.55,5.55,0,0,1-2.67,4.92,11.16,11.16,0,0,1-5.61,1.52c-6.72.32-13.28-.6-18-5.45" style="fill:#ebebeb"></path><path d="M322.64,275.11a24.71,24.71,0,0,1,3.28-4,24.06,24.06,0,0,1,4.34-3.66,52.05,52.05,0,0,1,5.92-3.61,25.74,25.74,0,0,1,12.22-2.9,19.12,19.12,0,0,1,3.79.53,4,4,0,0,1,1.32.49c0,.15-2-.43-5.12-.4a27.69,27.69,0,0,0-11.82,3.07,62.15,62.15,0,0,0-5.86,3.49,26.82,26.82,0,0,0-4.35,3.43A38.35,38.35,0,0,1,322.64,275.11Z" style="fill:#e0e0e0"></path><path d="M352.74,220.81a15.66,15.66,0,0,1-1.06,2.41c-.73,1.52-1.82,3.71-3.18,6.41-2.74,5.39-6.6,12.79-11.06,20.86s-8.71,15.27-11.89,20.41c-1.6,2.57-2.91,4.63-3.84,6a16.3,16.3,0,0,1-1.53,2.15,14.63,14.63,0,0,1,1.24-2.33l3.59-6.18c3-5.22,7.2-12.45,11.66-20.51s8.32-15.29,11.27-20.73l3.44-6.28A14.19,14.19,0,0,1,352.74,220.81Z" style="fill:#e0e0e0"></path><path d="M328.16,260.93a30.23,30.23,0,0,0-7.25-26.63c-1.66-1.78-4.08-3.47-6.36-2.61s-3,3.74-3,6.18a25.8,25.8,0,0,0,16.22,23.6" style="fill:#ebebeb"></path><path d="M319.81,241.35c.05,0,.37.34.91,1s1.28,1.76,2.14,3.09a34.17,34.17,0,0,1,4.83,11.45,21.5,21.5,0,0,1,.17,6.9,20.86,20.86,0,0,1-3.44,8.69c-.51.73-.82,1.12-.87,1.08s1-1.72,2.15-4.61a21,21,0,0,0,1.12-11.9,38.33,38.33,0,0,0-4.49-11.29A41.75,41.75,0,0,1,319.81,241.35Z" style="fill:#e0e0e0"></path><path d="M713.64,168.87A13,13,0,0,1,714.85,179a23,23,0,0,1-5.16,9c-4.45,5.11-11.46,8.52-17.91,10.61-1.86-7.29,2-15.14,4.17-19,3.47-6.1,13.44-15,17.69-10.81" style="fill:#ebebeb"></path><path d="M690.89,211.57a11.13,11.13,0,0,1,9-6.66,14.81,14.81,0,0,1,10.91,3.39c1.41,1.14,2.71,2.68,2.72,4.49a4.8,4.8,0,0,1-2.68,4,9.8,9.8,0,0,1-4.94.86c-5.8-.26-11.36-1.57-15-6.1" style="fill:#ebebeb"></path><path d="M676.51,220.58a21.55,21.55,0,0,1,3.14-3.2,20.9,20.9,0,0,1,4-2.81A47.22,47.22,0,0,1,689,212a22.2,22.2,0,0,1,10.72-1.53,15.79,15.79,0,0,1,3.22.76,3.42,3.42,0,0,1,1.09.52c0,.13-1.64-.52-4.36-.75a24,24,0,0,0-10.39,1.7,51.64,51.64,0,0,0-5.31,2.54,22.35,22.35,0,0,0-4,2.6A32.15,32.15,0,0,1,676.51,220.58Z" style="fill:#e0e0e0"></path><path d="M706.65,176.33a13.44,13.44,0,0,1-1.1,2c-.75,1.26-1.85,3.05-3.24,5.26-2.77,4.41-6.67,10.46-11.14,17s-8.69,12.42-11.83,16.58c-1.57,2.09-2.86,3.75-3.77,4.89a12.76,12.76,0,0,1-1.48,1.72,12.85,12.85,0,0,1,1.24-1.9l3.58-5c3-4.24,7.16-10.12,11.63-16.7l11.32-16.9,3.44-5.13A12.41,12.41,0,0,1,706.65,176.33Z" style="fill:#e0e0e0"></path><path d="M682.37,208.84a26.07,26.07,0,0,0-4.12-23.44c-1.28-1.66-3.23-3.3-5.25-2.75s-2.86,3-3.06,5.08A22.25,22.25,0,0,0,682,209.27" style="fill:#ebebeb"></path><path d="M676.75,191.37s.29.32.7,1,1,1.61,1.59,2.82a29.2,29.2,0,0,1,3.24,10.21,17.43,17.43,0,0,1-2.18,10.46,17.44,17.44,0,0,1-1.86,2.68c-.49.58-.78.89-.82.86s1-1.4,2.2-3.8a18,18,0,0,0,1.91-10.12,33.21,33.21,0,0,0-3-10.05A36.19,36.19,0,0,1,676.75,191.37Z" style="fill:#e0e0e0"></path><path d="M25.38,338.73s-6.24,2.52.95,15.76,12.11,19.75,12.11,19.75,1.29,3.08-1.32,3.63-8.4-.22-9.49,3S29,387.32,34,390s15.64,8.77,16.61,9.33,1.91,2,.2,2.64-14.66,2.35-13.49,8.44,16.21,11.14,17.85,11.72,2,1.26,1.93,2.15-4.52,1-8.18,1.68-7.8,2-6.83,5.47,10,10.54,31.49,12.09l10,.06L88.79,435c10-19.06,8.81-30.47,6.38-33.12s-5.77.13-8.25,2.91-4.93,6.42-5.75,6S80,409.7,80.37,408s4-17.13-.51-21.35-12.83,5.88-14.3,7-2.16-.47-2.13-1.57.46-13.43.86-19S63.4,363.7,60,362.87s-5.73,4.54-7.58,6.46-3.78-.81-3.78-.81-2.93-7.61-10.36-20.71-13-9-13-9" style="fill:#ebebeb"></path><path d="M84.14,445.87c-5.42-9.64-14.76-26.94-22.86-41.75s-15.43-28.21-20.8-37.88L34.11,354.8l-1.73-3.11c-.19-.35-.34-.62-.44-.82a2.77,2.77,0,0,1-.14-.28l.17.27.46.8c.42.71,1,1.75,1.79,3.08,1.54,2.68,3.74,6.58,6.45,11.4,5.42,9.64,12.79,23,20.89,37.83S79,436.1,84.33,445.77" style="fill:#e0e0e0"></path><path d="M35.7,382.29a4,4,0,0,1,.7.18c.45.13,1.09.34,1.87.6,1.58.53,3.74,1.33,6.1,2.24l6.05,2.36,1.83.71a2.52,2.52,0,0,1,.67.29,3.73,3.73,0,0,1-.71-.18c-.44-.13-1.08-.34-1.87-.61-1.57-.55-3.72-1.36-6.08-2.28l-6.06-2.32-1.84-.7A2.75,2.75,0,0,1,35.7,382.29Z" style="fill:#e0e0e0"></path><path d="M53.58,388c-.08,0,1.36-4.55,3.2-10.09s3.42-10,3.5-10-1.35,4.55-3.2,10.09S53.66,388,53.58,388Z" style="fill:#e0e0e0"></path><path d="M65,411.31a3,3,0,0,1,.39-.63L66.52,409c1-1.39,2.29-3.33,3.67-5.51s2.57-4.21,3.41-5.67l1-1.74a4.62,4.62,0,0,1,.4-.63,2.8,2.8,0,0,1-.29.68c-.21.43-.52,1-.92,1.79-.79,1.5-2,3.54-3.34,5.73s-2.74,4.11-3.75,5.48c-.51.68-.92,1.23-1.22,1.59A3.63,3.63,0,0,1,65,411.31Z" style="fill:#e0e0e0"></path><path d="M47.67,409.7a3.11,3.11,0,0,1,.69,0l1.85.09c1.57.1,3.73.26,6.11.45s4.54.38,6.1.53l1.85.2a3,3,0,0,1,.67.11,2.55,2.55,0,0,1-.68,0L62.4,411c-1.56-.1-3.72-.25-6.1-.44s-4.55-.38-6.11-.54l-1.84-.19A3.32,3.32,0,0,1,47.67,409.7Z" style="fill:#e0e0e0"></path><path d="M55.13,431.55a4.94,4.94,0,0,1,.88,0l2.37.12c2,.11,4.78.29,7.84.51s5.82.42,7.82.59l2.37.22a5.38,5.38,0,0,1,.87.12,4.94,4.94,0,0,1-.88,0L74,433c-2-.11-4.78-.29-7.84-.5s-5.82-.43-7.82-.6L56,431.67A4.26,4.26,0,0,1,55.13,431.55Z" style="fill:#e0e0e0"></path><path d="M76.76,432.93a4.71,4.71,0,0,1,.47-.81L78.61,430c1.15-1.81,2.74-4.32,4.42-7.14s3.13-5.41,4.17-7.3c.5-.9.92-1.65,1.23-2.23a6,6,0,0,1,.49-.8,5.44,5.44,0,0,1-.38.86c-.26.54-.65,1.32-1.15,2.28-1,1.91-2.41,4.52-4.09,7.35s-3.3,5.32-4.51,7.1c-.6.89-1.1,1.61-1.46,2.1A6,6,0,0,1,76.76,432.93Z" style="fill:#e0e0e0"></path></g><g id="freepik--speech-bubble--inject-2"><path d="M575.05,166.69,568.41,155a31.38,31.38,0,1,0-7.51,8.35l0,0Z" style="fill:#fafafa"></path><path d="M575.05,166.69l-14.19-3.25a.09.09,0,0,1-.06-.1s0,0,0,0h0l.13.12a31.22,31.22,0,0,1-15,6.33,27,27,0,0,1-5,.25c-.85,0-1.72-.07-2.6-.14l-2.64-.4a31.52,31.52,0,0,1-19.56-12.56,31.29,31.29,0,0,1-5.29-12.09,31.88,31.88,0,0,1,.37-13.93A30.9,30.9,0,0,1,518,118l1.28-1.4c.42-.48.92-.87,1.37-1.3s.91-.88,1.42-1.24l1.51-1.12a12.26,12.26,0,0,1,1.55-1l1.59-1,1.66-.8a14.83,14.83,0,0,1,1.68-.75,32.11,32.11,0,0,1,14-2.16A31,31,0,0,1,556.93,111a31.78,31.78,0,0,1,14.86,18.28,33.91,33.91,0,0,1,1.36,10.18,31.21,31.21,0,0,1-1.53,8.8,31.92,31.92,0,0,1-3.14,6.73V155c4.2,7.51,6.26,11.2,6.57,11.74L568.33,155a.1.1,0,0,1,0-.09,31.46,31.46,0,0,0,3.08-6.71,30.87,30.87,0,0,0,1.49-8.73,33.61,33.61,0,0,0-1.38-10.09,31.46,31.46,0,0,0-14.75-18.08A30.72,30.72,0,0,0,544,107.58a31.71,31.71,0,0,0-13.88,2.14,16.44,16.44,0,0,0-1.66.74l-1.64.8-1.57.95a13.25,13.25,0,0,0-1.54,1l-1.48,1.11a54.46,54.46,0,0,0-2.76,2.51l-1.27,1.39A30.59,30.59,0,0,0,511.6,131a31.46,31.46,0,0,0-.38,13.77,31,31,0,0,0,5.22,12,31.39,31.39,0,0,0,19.34,12.47l2.62.41c.87.07,1.73.09,2.58.14a27.32,27.32,0,0,0,4.91-.23,31.16,31.16,0,0,0,8.53-2.4,31.48,31.48,0,0,0,6.42-3.82.09.09,0,0,1,.13,0,.11.11,0,0,1,0,.11h0l-.06-.14Z" style="fill:#263238"></path><path d="M555,137a8,8,0,0,0-1.83-4.48,7.63,7.63,0,0,0-3.89-2.7,6.27,6.27,0,0,0-7,2.83,6.24,6.24,0,0,0-1.74-2.11,6.39,6.39,0,0,0-4.83-1.22,7.71,7.71,0,0,0-4.17,2.26,8.12,8.12,0,0,0-2.3,4.26,9.85,9.85,0,0,0,.89,6.09,13.84,13.84,0,0,0,4.53,4.73c3,2.05,7,4.63,7,4.63s3.61-2.41,6.84-4.12a13.92,13.92,0,0,0,5-4.21A9.78,9.78,0,0,0,555,137Z" style="fill:#FF725E"></path></g><g id="freepik--character-4--inject-2"><path d="M678.63,365.53l-52.7,14.73c-14.39,1.17-43.5,3.68-43.5,3.68l4.77,65.22,19.89-.25,0,.26h63.72s13.48-20.05,14.87-44.73A84.65,84.65,0,0,0,678.63,365.53Z" style="fill:#263238"></path><path d="M621.26,391.74a3,3,0,0,1-.54.39l-1.6,1c-1.38.9-3.4,2.17-5.76,3.94a32.58,32.58,0,0,0-7.27,7.23,19.47,19.47,0,0,0-2.65,5.41,32,32,0,0,0-1.18,6.41c-.7,9-1.33,17.06-1.79,23-.25,2.89-.45,5.26-.59,7-.08.78-.14,1.4-.19,1.89a3.29,3.29,0,0,1-.1.66,2.85,2.85,0,0,1,0-.67c0-.48,0-1.11.09-1.9.1-1.71.25-4.08.42-7,.4-5.89.92-14,1.64-23a31.93,31.93,0,0,1,1.21-6.5,20.26,20.26,0,0,1,2.74-5.53,32.17,32.17,0,0,1,7.45-7.26c2.4-1.74,4.46-3,5.88-3.81.71-.42,1.27-.74,1.65-.95A3,3,0,0,1,621.26,391.74Z" style="fill:#455a64"></path><path d="M660.91,447.88a3.73,3.73,0,0,1,.33-.69l1.06-1.93.77-1.38c.27-.51.53-1.08.83-1.68.59-1.22,1.33-2.57,2-4.15.34-.78.69-1.6,1-2.45s.67-1.77,1-2.7c.73-1.86,1.34-3.91,2-6a94.24,94.24,0,0,0,2.91-14.3,96.48,96.48,0,0,0,.53-14.58c-.16-2.24-.26-4.37-.55-6.35-.13-1-.21-1.95-.36-2.87s-.32-1.78-.46-2.62c-.26-1.68-.66-3.17-1-4.49-.15-.65-.28-1.27-.43-1.83s-.3-1.06-.43-1.52c-.24-.88-.44-1.58-.58-2.11a3.91,3.91,0,0,1-.17-.75,4.78,4.78,0,0,1,.27.71c.17.53.39,1.22.68,2.09.14.46.3,1,.47,1.51s.31,1.18.47,1.83c.32,1.32.75,2.81,1,4.49.16.84.32,1.72.49,2.63s.26,1.88.4,2.88c.31,2,.43,4.13.6,6.38a93.67,93.67,0,0,1-.49,14.67,92.24,92.24,0,0,1-3,14.36c-.68,2.16-1.3,4.21-2.06,6.07-.37.93-.67,1.85-1.06,2.7s-.74,1.67-1.08,2.45c-.66,1.57-1.43,2.92-2,4.13-.31.6-.59,1.17-.88,1.67l-.81,1.36-1.14,1.88A4.56,4.56,0,0,1,660.91,447.88Z" style="fill:#455a64"></path><path d="M599,405.74a7.05,7.05,0,0,1-1.84-.88,44.7,44.7,0,0,1-4.14-2.67,46,46,0,0,1-3.85-3.07,7.4,7.4,0,0,1-1.42-1.47c.1-.11,2.47,1.9,5.57,4.12S599.09,405.61,599,405.74Z" style="fill:#455a64"></path><path d="M663.88,135.25c3.14,2.6,4.31,6.88,4.75,10.93s.34,8.22,1.67,12.07c1.58,4.57,5.11,8.55,5.31,13.37.17,4.39-2.5,8.79-1.27,13,1.38,4.69,7.09,7.22,8.13,12s-2.93,9.25-2.32,14c.44,3.46,3.14,6.1,5.06,9,4.92,7.43,4.83,17,4.56,25.89-21.83,3.85-44.1-1.48-66.25-2.43a168,168,0,0,0-51.18,5.72,33.67,33.67,0,0,1,6.91-21.08c1.18-1.53,2.56-3.13,2.59-5.06,0-2.82-2.81-5-3.05-7.8-.37-4.28,5.19-6.87,6-11.09.54-2.93-1.35-5.73-1.68-8.69-.3-2.73,4.86-8.69,4.86-11.43,0-5.16-4.77-9.36-4.79-15s4.69-10.94,6.63-17.32" style="fill:#263238"></path><path d="M667.3,348.61c-2.76-4.71,5.54-38.51,8.85-67.69,7.89-29,3.77-40.69-2.72-52.75-1.72-3.21-6.13-6.87-9.1-9l-10.76-7.62-31.4.8s-24.6,27.39-29.06,31.55-33.61,27.37-14.28,49.38l-.28,98.43c11.42,2.63,102.91-22.57,102.91-22.57A246.51,246.51,0,0,1,667.3,348.61Z" style="fill:#FF725E"></path><g style="opacity:0.30000000000000004"><path d="M622.15,327.43c-12.44,7.44-27.6,9.18-40.19,16.35a7.33,7.33,0,0,0-3.28,2.92l0,6.61c5.74,3.93,13.28,3.45,19.32,0,1.82-1,3.57-2.42,5.66-2.62,1.64-.15,3.25.47,4.87.78,6.4,1.24,12.73-2.24,17.94-6.14,12.76-9.56,23.21-23.2,25.62-38.95C640.78,311.07,632.65,321.16,622.15,327.43Z"></path></g><path d="M627.11,120.09h0a37.54,37.54,0,0,0-10-3.43c-3.32-.71-7-.32-9.68,1.82-3.48,2.82-4.24,7.8-6.88,11.42-1.71,2.35-4.16,4-6.33,5.95s-4.2,4.31-4.59,7.19c-.31,2.35.51,4.73.35,7.1-.4,5.83-6.62,10.53-5.64,16.3.73,4.24,5.15,7,6.27,11.16.68,2.49.08,5.15.42,7.71a13.75,13.75,0,0,0,5,8.39,33.37,33.37,0,0,0,8.63,4.93q5.29,2.26,10.79,4c2.16.68,4.88,1.17,6.4-.52,1.06-1.18,1.05-3,1-4.54C621.52,171.63,620.45,145.21,627.11,120.09Z" style="fill:#263238"></path><path d="M653.56,214.85l.27-72.67a6,6,0,0,0-5.63-5.76l-21.33-8.6-5.59.62c-12.57,0-21.3,13.8-21.43,24-.15,11.3.12,25.11,1.88,33.46,3.53,16.77,16.6,18.27,16.6,18.27s-.15,4.59-.29,10.21l-9.4,30.13Z" style="fill:#c78976"></path><path d="M606.48,164.11a2.16,2.16,0,0,0,2.2,2.08,2.07,2.07,0,0,0,2.13-2.07,2.16,2.16,0,0,0-2.19-2.08A2.07,2.07,0,0,0,606.48,164.11Z" style="fill:#263238"></path><path d="M603,157.77c.23.38,2.25-.79,4.77-.38s4.12,2.1,4.45,1.8c.16-.13,0-.79-.72-1.57a6.05,6.05,0,0,0-3.5-1.86,5.94,5.94,0,0,0-3.87.72C603.24,157,602.87,157.59,603,157.77Z" style="fill:#263238"></path><path d="M618.56,176.46c0-.14-1.46-.31-3.83-.5-.59,0-1.16-.12-1.29-.52a3.11,3.11,0,0,1,.31-1.79l1.54-4.62c2.12-6.58,3.63-12,3.36-12.07s-2.2,5.19-4.33,11.77c-.5,1.62-1,3.17-1.45,4.65a3.39,3.39,0,0,0-.2,2.35,1.54,1.54,0,0,0,1,.83,4.86,4.86,0,0,0,1,.09A15.79,15.79,0,0,0,618.56,176.46Z" style="fill:#263238"></path><path d="M618.33,204.15A43.06,43.06,0,0,0,640.68,197s-5.45,12-22.45,11.29Z" style="fill:#bf654e"></path><path d="M619.83,182a4.21,4.21,0,0,1,3.69-1.75,3.85,3.85,0,0,1,2.72,1.29,2.43,2.43,0,0,1,.33,2.77,2.83,2.83,0,0,1-3,.93,9,9,0,0,1-3.08-1.63,2.59,2.59,0,0,1-.7-.66.79.79,0,0,1,0-.87" style="fill:#bf654e"></path><path d="M625.51,177.73c-.38,0-.26,2.53-2.34,4.43s-4.79,1.77-4.79,2.12c0,.16.63.47,1.77.44a6.3,6.3,0,0,0,4-1.63,5.44,5.44,0,0,0,1.8-3.71C626,178.32,625.68,177.7,625.51,177.73Z" style="fill:#263238"></path><path d="M611.29,146.53c-.63-.32-2.1.87-4.11,1.7s-3.86,1.16-4,1.83c-.07.32.39.71,1.33.88a6.77,6.77,0,0,0,3.68-.54,6.64,6.64,0,0,0,2.89-2.31C611.54,147.3,611.57,146.7,611.29,146.53Z" style="fill:#263238"></path><path d="M633,164.64a2.17,2.17,0,0,1-2.07,2.21,2.07,2.07,0,0,1-2.26-1.92,2.17,2.17,0,0,1,2.06-2.22A2.08,2.08,0,0,1,633,164.64Z" style="fill:#263238"></path><path d="M626.79,145.52c.66-.36,2.48.76,4.86,1.49s4.51,1,4.82,1.63c.12.32-.35.74-1.37,1a8.55,8.55,0,0,1-4.21-.35,8.33,8.33,0,0,1-3.59-2.17C626.61,146.31,626.49,145.7,626.79,145.52Z" style="fill:#263238"></path><path d="M628.17,126.94c8.44,11.5,17.44,24.5,26.19,35.76,1.51-5.62,2.93-14.11,1.87-19.84a23.92,23.92,0,0,0-8.6-14.76c-4.63-3.53-12.9-4.26-18.3-2.09" style="fill:#263238"></path><path d="M650.46,170.75c-.06-1.26,1.24-4.3,2.48-4.56,3.29-.68,9.29-.71,9.77,7.72.65,11.52-11.05,9.8-11.09,9.47S650.66,175.1,650.46,170.75Z" style="fill:#c78976"></path><path d="M654.89,178.82c.05,0,.21.13.56.26A2,2,0,0,0,657,179c1.19-.52,2.11-2.51,2-4.59a6.59,6.59,0,0,0-.73-2.84,2.33,2.33,0,0,0-1.6-1.46,1,1,0,0,0-1.15.62c-.14.33,0,.56-.11.58s-.26-.18-.19-.66a1.26,1.26,0,0,1,.41-.75,1.47,1.47,0,0,1,1.09-.35,2.81,2.81,0,0,1,2.2,1.66,6.81,6.81,0,0,1,.88,3.18c.06,2.32-1,4.56-2.65,5.14a2.15,2.15,0,0,1-1.85-.2C654.93,179.1,654.85,178.84,654.89,178.82Z" style="fill:#bf654e"></path><path d="M624.49,123.74c-7.1.55-15.39,2.74-19.81,8.31s-6.95,12.45-8.45,19.41a155.88,155.88,0,0,0-2.53,20.11,44.81,44.81,0,0,0-.11,9.26,15,15,0,0,0,3.58,8.39c-1.27-2.73,1.44-7.34,1.18-11.49l1.75-6.91c-.29-5.49,1.84-7.67,2-10.27.13-2-.76-3.83-1.43-5.69s-1.1-4-.13-5.72,3.35-2.55,4.64-4.21c1.47-1.89,1.35-4.61,2.6-6.66,1.73-2.85,5.45-3.58,8.39-5.16,3.81-2.06,8.6-4,9.24-8.32Z" style="fill:#263238"></path><path d="M635.61,157.67c-.24.38-2.28-.84-4.86-.46s-4.26,2.06-4.59,1.75c-.16-.13.05-.8.77-1.58a6.19,6.19,0,0,1,3.61-1.83,6,6,0,0,1,3.94.8C635.37,156.91,635.74,157.49,635.61,157.67Z" style="fill:#263238"></path><path d="M628,177.24c-.14,0-.38-.42-.9-.74s-1-.37-1-.51.65-.37,1.33.08S628.14,177.23,628,177.24Z" style="fill:#bf654e"></path><path d="M672.27,174.12c-.07-3.28-2.71-6-3.27-9.27-.47-2.74.19-5.52.53-8.28a35.67,35.67,0,0,0-17.33-34.44,57.44,57.44,0,0,0-15.12-5.46,16.65,16.65,0,0,0-6.22-.64,6.05,6.05,0,0,0-4.88,3.49h0c-2.47,3.41-3.46,8.67-1.5,12.39,2.88,5.44,10.85,6.32,14.1,11.55,3.48,5.6-.06,13.37,2.77,19.33,1.8,3.8,4.45,5,5.89,8.9.72,2-3.42,9-3.55,11.13-.55,9.21,3.45,17.75,3.29,28.37a6.41,6.41,0,0,0,7.35,6.45l8.41-.61C669.89,214.58,672.62,189.22,672.27,174.12Z" style="fill:#263238"></path><path d="M681.15,249.31a2.41,2.41,0,0,1,.08-.39c.06-.27.15-.64.26-1.12a14.63,14.63,0,0,0,.36-1.84c0-.36.14-.75.17-1.18s.07-.87.11-1.35a29.2,29.2,0,0,0-3.44-15.66,28.41,28.41,0,0,0-7.09-8.56c-1.57-1.24-3.38-2.31-5.16-3.55a13.33,13.33,0,0,1-4.64-4.84,6.27,6.27,0,0,1-.5-3.51,8.86,8.86,0,0,1,1.39-3.34c1.31-2,3.08-3.78,4-6a10.39,10.39,0,0,0,0-7.23,22.79,22.79,0,0,0-3.66-6.73c-1.59-2.07-3.35-4-4.94-6a23.08,23.08,0,0,1-3.83-6.58,18.29,18.29,0,0,1-.77-7.31c.19-2.4.61-4.7.92-7a26.66,26.66,0,0,0,.27-6.58,12.52,12.52,0,0,0-2.1-5.73,14.37,14.37,0,0,0-4.23-3.87,30.3,30.3,0,0,0-4.81-2.39c-3.19-1.28-6.17-2.23-8.7-3.28a27,27,0,0,1-6.2-3.32,13.36,13.36,0,0,1-3.13-3.15,8.1,8.1,0,0,1-.8-1.32s.28.45.88,1.26a14.33,14.33,0,0,0,3.17,3.05A27.61,27.61,0,0,0,635,135c2.53,1,5.51,1.94,8.73,3.21a30.06,30.06,0,0,1,4.88,2.39,14.78,14.78,0,0,1,4.38,4,12.9,12.9,0,0,1,2.19,5.93,26.47,26.47,0,0,1-.25,6.69c-.3,2.27-.71,4.57-.89,6.93a17.7,17.7,0,0,0,.75,7.1,22.67,22.67,0,0,0,3.76,6.43c1.57,2,3.33,3.92,5,6a23.33,23.33,0,0,1,3.74,6.89,10.89,10.89,0,0,1-.08,7.57c-1,2.38-2.8,4.13-4.06,6.1a8.13,8.13,0,0,0-1.32,3.15,5.67,5.67,0,0,0,.45,3.23,12.81,12.81,0,0,0,4.46,4.67c1.76,1.23,3.57,2.3,5.17,3.59A28.26,28.26,0,0,1,679,227.6a29,29,0,0,1,3.32,15.84c0,.48-.09.94-.13,1.37s-.14.81-.2,1.18a16.63,16.63,0,0,1-.4,1.84c-.14.47-.24.83-.32,1.11A2.3,2.3,0,0,1,681.15,249.31Z" style="fill:#455a64"></path><path d="M686.12,230.33s.09-.47.11-1.38a9.55,9.55,0,0,0-.81-3.85,17.58,17.58,0,0,0-3.5-5.16c-1.66-1.81-3.84-3.6-5.87-6a15.26,15.26,0,0,1-3.73-9.36c-.22-3.69.47-7.57.92-11.63a33.1,33.1,0,0,0,.17-6.23,19.47,19.47,0,0,0-1.57-6.27c-1.7-4.09-4.48-7.84-6.45-12.19a26.78,26.78,0,0,1-1.26-3.33,27.73,27.73,0,0,1-.73-3.44c-.34-2.29-.45-4.57-.58-6.8a54.59,54.59,0,0,0-.66-6.5,18.86,18.86,0,0,0-2-5.83,21,21,0,0,0-8.33-7.74,62.23,62.23,0,0,0-9.26-4c-2.91-1.06-5.54-2.06-7.78-3.1a33,33,0,0,1-5.48-3.17,21.85,21.85,0,0,1-3-2.65c-.31-.34-.53-.61-.68-.79s-.22-.27-.21-.28a2.18,2.18,0,0,1,.25.25l.71.75a25.74,25.74,0,0,0,3,2.56,35.1,35.1,0,0,0,5.49,3.06c2.24,1,4.87,2,7.79,3a63.85,63.85,0,0,1,9.34,4,21.37,21.37,0,0,1,8.53,7.88,18.85,18.85,0,0,1,2.11,6,52.23,52.23,0,0,1,.69,6.56c.25,4.43.46,9.13,2.54,13.39,1.93,4.28,4.71,8,6.44,12.21a20,20,0,0,1,1.6,6.42,33.93,33.93,0,0,1-.2,6.32c-.46,4.08-1.16,7.93-1,11.55a14.9,14.9,0,0,0,3.58,9.15c2,2.36,4.14,4.17,5.8,6a17.62,17.62,0,0,1,3.48,5.29,9.18,9.18,0,0,1,.72,3.92,6.13,6.13,0,0,1-.13,1C686.15,230.22,686.12,230.34,686.12,230.33Z" style="fill:#fff"></path><path d="M573.33,258.41a11.61,11.61,0,0,0-5.21,4.86c-3.33,6-10.21,18.7-13,27-3.75,11.1-9.59,29.58,3.44,47,10,13.33,30.65,10.43,39.85,8.32a11.76,11.76,0,0,0,7-4.75l34.06-49.33A11.66,11.66,0,0,0,633,273.65l-8.54-2.4a8.86,8.86,0,0,1-3.69-2.08l-19.7-16.42a11.67,11.67,0,0,0-12.45-1.58Z" style="fill:#455a64"></path><path d="M626.19,268a1.19,1.19,0,0,0-.73-.34,9.57,9.57,0,0,0-11.37,10.53l7.75,2.85c1.45-3.92,3.07-7.75,4.52-11.67A1.51,1.51,0,0,0,626.19,268Z" style="fill:#d39688"></path><path d="M586,260.53a10,10,0,0,1,12.32-3.5c2.64,1.17,4.44,3.72,5.75,7.09,3.92,10.06,4.19,13,4.19,13l2.52-6.51,12.75,5.77s-7,23.64-13.22,25.32a11.67,11.67,0,0,1-4.82.16,17.29,17.29,0,0,1-12.06-8.34l-6.31-14.4" style="fill:#455a64"></path><path d="M587.11,279.08a1.31,1.31,0,0,1,.13.24l.35.72c.3.68.73,1.62,1.28,2.82l4.7,10.55v0a17.84,17.84,0,0,0,6.48,6.3,16.08,16.08,0,0,0,4.85,1.79,11.52,11.52,0,0,0,5.47-.1,5.71,5.71,0,0,0,2.26-1.63,16.47,16.47,0,0,0,1.81-2.37,43.93,43.93,0,0,0,3-5.47,116.91,116.91,0,0,0,4.81-12.32c.37-1.11.73-2.22,1.07-3.32l.14.31-12.75-5.78.33-.14-2.53,6.5-.31.8-.15-.86a53,53,0,0,0-2.13-7.46c-.83-2.34-1.64-4.59-2.5-6.63a12.51,12.51,0,0,0-3.64-4.94,9.38,9.38,0,0,0-4.9-1.74,10.14,10.14,0,0,0-7,2.26,15.06,15.06,0,0,0-1.87,1.94l.09-.16.3-.42a9.87,9.87,0,0,1,1.38-1.48,10.15,10.15,0,0,1,2.78-1.69,10,10,0,0,1,4.31-.73,9.47,9.47,0,0,1,5.1,1.74,12.72,12.72,0,0,1,3.79,5c.9,2.08,1.71,4.3,2.55,6.66.42,1.17.83,2.39,1.21,3.64a28.79,28.79,0,0,1,1,3.92L608,277q1.23-3.15,2.52-6.51l.09-.24.25.1,12.75,5.77.21.09-.07.22c-.33,1.11-.69,2.22-1.06,3.34a116.4,116.4,0,0,1-4.85,12.36,44.33,44.33,0,0,1-3,5.53,17.22,17.22,0,0,1-1.87,2.43,6.31,6.31,0,0,1-2.48,1.75,11.85,11.85,0,0,1-5.7.09,16.71,16.71,0,0,1-5-1.86,18.05,18.05,0,0,1-6.56-6.49h0c-1.94-4.5-3.48-8.1-4.56-10.61-.51-1.22-.92-2.18-1.2-2.86-.13-.3-.22-.55-.3-.74A1.8,1.8,0,0,1,587.11,279.08Z" style="fill:#263238"></path><path d="M605.74,283.89a28.75,28.75,0,0,1,2.71-7.24,28.75,28.75,0,0,1-2.71,7.24Z" style="fill:#263238"></path><path d="M555.06,310.31a27.21,27.21,0,0,1,18-4.63" style="fill:#455a64"></path><path d="M573.07,305.68c0,.08-1.07,0-2.78.05a31,31,0,0,0-6.57.93,30.12,30.12,0,0,0-6.2,2.37c-1.52.77-2.41,1.35-2.46,1.28a10.75,10.75,0,0,1,2.28-1.61,25.25,25.25,0,0,1,6.25-2.54,24.9,24.9,0,0,1,6.7-.79A9.69,9.69,0,0,1,573.07,305.68Z" style="fill:#263238"></path><path d="M620,319.24a5,5,0,0,1-.47-.59l-1.31-1.7a38.75,38.75,0,0,0-5.37-5.76,56.44,56.44,0,0,0-9.77-6.41c-3.88-2.1-8.11-4.51-12.76-6.57a53.77,53.77,0,0,0-13.68-4.09,66.06,66.06,0,0,0-11.66-.81c-3.34.05-6,.31-7.89.51l-2.14.24a6.58,6.58,0,0,1-.75.06,3.55,3.55,0,0,1,.74-.17c.48-.08,1.2-.21,2.13-.34a71.83,71.83,0,0,1,7.9-.67,64.26,64.26,0,0,1,11.75.7,53.83,53.83,0,0,1,13.81,4.09c4.68,2.08,8.91,4.5,12.79,6.63a55.7,55.7,0,0,1,9.77,6.55,34.84,34.84,0,0,1,5.29,5.92c.55.75,1,1.35,1.23,1.76A3.42,3.42,0,0,1,620,319.24Z" style="fill:#fff"></path><path d="M587.81,282.17a4.17,4.17,0,0,1-1.13-.11l-3.07-.42c-2.6-.33-6.19-.68-10.18-.79s-7.59.08-10.2.28l-3.08.27a5.77,5.77,0,0,1-1.14.05,4.58,4.58,0,0,1,1.11-.25c.72-.14,1.78-.28,3.08-.43a75.65,75.65,0,0,1,20.46.51c1.29.21,2.34.42,3.05.58A5.28,5.28,0,0,1,587.81,282.17Z" style="fill:#fff"></path><path d="M587.12,267.49a30.44,30.44,0,0,1-3-.69,44.91,44.91,0,0,0-7.26-1.06,43.83,43.83,0,0,0-7.33.19c-1.87.2-3,.41-3,.33a3.29,3.29,0,0,1,.79-.26c.51-.13,1.27-.29,2.2-.44a35.26,35.26,0,0,1,7.41-.34,35.64,35.64,0,0,1,7.32,1.22,22.18,22.18,0,0,1,2.13.7C586.86,267.33,587.13,267.45,587.12,267.49Z" style="fill:#fff"></path><path d="M605.34,267.69c0,.09-1.13,0-2.93.18a24.63,24.63,0,0,0-13,5.05c-1.43,1.11-2.22,1.92-2.28,1.85s.15-.24.49-.63a15.5,15.5,0,0,1,1.56-1.51,21.92,21.92,0,0,1,13.17-5.12,14.23,14.23,0,0,1,2.18.05A2.43,2.43,0,0,1,605.34,267.69Z" style="fill:#fff"></path><path d="M605.89,281.7a67.93,67.93,0,0,0-6.45,4.63,70.68,70.68,0,0,0-5.52,5.7,7.9,7.9,0,0,1,1.27-2,28.28,28.28,0,0,1,8.56-7.39A8.09,8.09,0,0,1,605.89,281.7Z" style="fill:#fff"></path><path d="M608.54,302.23a97.6,97.6,0,0,1-1.06-10.18c-.44-5.64-.68-10.22-.54-10.23A101.41,101.41,0,0,1,608,292C608.44,297.64,608.68,302.22,608.54,302.23Z" style="fill:#fff"></path><path d="M620.61,283.93a50.76,50.76,0,0,0-5.72-4.11,48.41,48.41,0,0,0-6.48-2.77,6.27,6.27,0,0,1,2.06.37,21.06,21.06,0,0,1,8.76,4.94A6.32,6.32,0,0,1,620.61,283.93Z" style="fill:#fff"></path><path d="M631.63,298.52c-.11.11-2.63-2.38-6.13-4.94s-6.62-4.22-6.55-4.37a8.78,8.78,0,0,1,2.12,1,39.45,39.45,0,0,1,4.73,3,40.73,40.73,0,0,1,4.29,3.62A8.64,8.64,0,0,1,631.63,298.52Z" style="fill:#fff"></path><path d="M560.1,307.2c0,.15-2.09-.24-4.65-.19s-4.6.5-4.64.35a14.05,14.05,0,0,1,9.29-.16Z" style="fill:#fff"></path><path d="M611,331.71s-.4-.66-1.17-1.8a24.07,24.07,0,0,0-3.86-4.34,35.88,35.88,0,0,0-7.13-4.83c-2.88-1.52-6.2-2.89-9.69-4.32-7.06-2.76-12.9-6.44-17.54-8.1a30.53,30.53,0,0,0-5.61-1.54c-1.36-.24-2.13-.26-2.13-.31a2.17,2.17,0,0,1,.56,0,11,11,0,0,1,1.59.12,26.85,26.85,0,0,1,5.71,1.4c4.74,1.59,10.59,5.21,17.62,8a104.69,104.69,0,0,1,9.71,4.38,34.9,34.9,0,0,1,7.16,5,21.72,21.72,0,0,1,3.78,4.5c.36.6.63,1.07.78,1.4A3,3,0,0,1,611,331.71Z" style="fill:#fff"></path><path d="M602.28,343.22s-.17-.08-.46-.29l-1.28-.92c-.54-.41-1.21-.9-2-1.43s-1.69-1.19-2.73-1.83c-2-1.32-4.54-2.78-7.39-4.26a95.9,95.9,0,0,0-9.56-4.21,94.64,94.64,0,0,0-10-3c-3.13-.73-6-1.25-8.39-1.57-1.2-.19-2.3-.28-3.26-.39s-1.79-.18-2.47-.22l-1.56-.13a2.15,2.15,0,0,1-.54-.08,1.7,1.7,0,0,1,.54,0l1.57,0c.69,0,1.52,0,2.49.13s2.07.15,3.28.32a81.52,81.52,0,0,1,8.45,1.46,81.52,81.52,0,0,1,19.67,7.27,77.62,77.62,0,0,1,7.37,4.39c1,.65,1.91,1.32,2.7,1.89s1.45,1.08,2,1.51l1.21,1A2.64,2.64,0,0,1,602.28,343.22Z" style="fill:#fff"></path><path d="M605,256.52a27.6,27.6,0,0,0-5.12-.88,29.4,29.4,0,0,0-5.16.6,9.44,9.44,0,0,1,5.18-1.12A9.32,9.32,0,0,1,605,256.52Z" style="fill:#fff"></path><path d="M635,224.21c-3.59-7.71-10.3-12.24-20.19-12.61a21.44,21.44,0,0,0-9.13,1.41,30,30,0,0,0-15,14.05c-3.09,6.59-2.41,14.53-2.75,21.3l1,.06c8.39,3.92,12.76,9.16,19.45,16.16,1.73,1.81,8.85,2.67,11.74,2.88,2.52.17,5.28-1.23,7.32-2.72,6.85-5,6.84-9.59,9-17.79S638.6,231.91,635,224.21Z" style="fill:#d39688"></path><path d="M627.21,248.56c.27-.13,1.12,1.17,2.8,1.78s3.2.22,3.31.49-.28.42-1,.61a4.49,4.49,0,0,1-2.75-.14,4.39,4.39,0,0,1-2.13-1.67C627.12,249.05,627.08,248.62,627.21,248.56Z" style="fill:#263238"></path><path d="M610.1,242.93c.29-.1.95,1.32,2.52,2.16s3.14.67,3.21,1c0,.13-.33.37-1,.46a4.54,4.54,0,0,1-2.7-.53,4.34,4.34,0,0,1-1.87-1.95C610,243.4,610,243,610.1,242.93Z" style="fill:#263238"></path><path d="M616.5,235.92c-.21.33-1.25,0-2.48,0s-2.29.18-2.48-.16c-.08-.17.1-.47.55-.75a3.79,3.79,0,0,1,2-.47,3.65,3.65,0,0,1,1.94.61C616.43,235.45,616.59,235.77,616.5,235.92Z" style="fill:#263238"></path><path d="M634.72,242.2c-.4.22-1.49-.1-2.45-.72s-1.39-1.3-1-1.53,1.5.1,2.45.72S635.13,242,634.72,242.2Z" style="fill:#263238"></path><path d="M617.68,256.77c0,.11-.3.21-.76.11a2.42,2.42,0,0,1-1.51-1,2.48,2.48,0,0,1-.39-1.79c.09-.47.29-.69.39-.66s.06,1.08.69,2S617.7,256.55,617.68,256.77Z" style="fill:#263238"></path><path d="M622.29,248.41c.11,0,.19.45.21,1.15,0,.36,0,.77,0,1.24q0,.34,0,.72a2.83,2.83,0,0,1-.1.87,1.33,1.33,0,0,1-.67.84,1.48,1.48,0,0,1-1,.13A1.71,1.71,0,0,1,620,253a2.22,2.22,0,0,1-.45-.48c-.41-.66-.46-1.1-.37-1.15s.37.32.82.77a1.38,1.38,0,0,0,.86.44.85.85,0,0,0,.46-.09.6.6,0,0,0,.26-.36,3.2,3.2,0,0,0,.09-.68c0-.25.05-.49.07-.73.06-.46.12-.88.18-1.22C622,248.83,622.18,248.4,622.29,248.41Z" style="fill:#263238"></path><path d="M628.22,214.53A25.59,25.59,0,0,0,612.78,211c-7.11.5-14.21,3.59-18.59,9.2A28.39,28.39,0,0,0,589,232.36a84,84,0,0,0-1.16,13.26,2.8,2.8,0,0,0,.89,2.69,2.44,2.44,0,0,0,2.68,0c1.52-1,1.85-2.86,1.65-4.55-.18-1.46-.69-2.87-.87-4.33a6.7,6.7,0,0,1,1-4.7,4,4,0,0,1,5-1.41,3,3,0,0,1,1.39,1.75c.65,2.07-1,2.79-1.64,4.13-.4.85,0,2.22,1,2.11.47-.06,1.89.63,2.18.26a15.79,15.79,0,0,0,2.66-5.33c.47-1.61-.24-4.28,0-5.95A6.17,6.17,0,0,1,606,226c1.7-1.15,4-.79,5.89-1.63,1.64-.72,2.93-2.35,4.72-2.41,2.23-.07,3.69,2.25,5.64,3.31,2.84,1.54,6.49.27,9.48,1.48a24.23,24.23,0,0,0,2.39,1.07c.85.23,3.26,3.3,3.78,2.59C637.36,225,632.76,217.4,628.22,214.53Z" style="fill:#263238"></path><path d="M599.48,237.71a3.48,3.48,0,0,0-2.38-4.9c-1.75-.34-3.78.2-5.31,3.39-3.28,6.86,3.05,8,3.16,7.82A32,32,0,0,0,599.48,237.71Z" style="fill:#d39688"></path><path d="M595.61,241.34s-.16,0-.41,0a1.29,1.29,0,0,1-.9-.41c-.6-.61-.66-2-.1-3.3a4.4,4.4,0,0,1,1.15-1.55,1.55,1.55,0,0,1,1.34-.49.68.68,0,0,1,.55.66c0,.24-.11.36-.08.39s.2,0,.28-.36a.81.81,0,0,0-.06-.56,1,1,0,0,0-.58-.49,1.88,1.88,0,0,0-1.75.47,4.34,4.34,0,0,0-1.33,1.71c-.62,1.4-.53,3,.32,3.8a1.46,1.46,0,0,0,1.18.34C595.52,241.5,595.63,241.36,595.61,241.34Z" style="fill:#bf654e"></path><path d="M612.06,253.72c-.08,0,.07-.65,0-1.67a7.18,7.18,0,0,0-4.11-6.29c-.92-.45-1.56-.57-1.54-.65a3.14,3.14,0,0,1,1.69.31,6.8,6.8,0,0,1,4.33,6.63A3.07,3.07,0,0,1,612.06,253.72Z" style="fill:#bf654e"></path><path d="M619.86,211.17a1.81,1.81,0,0,1-.51,0l-1.41-.15a34.41,34.41,0,0,0-5.22-.05,26.4,26.4,0,0,0-7.5,1.67,28.27,28.27,0,0,0-8.05,4.87,20.17,20.17,0,0,0-3.34,3.53,26.06,26.06,0,0,0-2.34,3.89,34.86,34.86,0,0,0-2.47,7.32,51.85,51.85,0,0,0-.87,5.15,16.77,16.77,0,0,1-.26,1.91,1.73,1.73,0,0,1,0-.5c0-.33,0-.81.07-1.43a41.14,41.14,0,0,1,.71-5.21,33.11,33.11,0,0,1,2.4-7.44,26,26,0,0,1,2.36-4,20.72,20.72,0,0,1,3.41-3.62,28,28,0,0,1,8.22-4.91,25.8,25.8,0,0,1,7.65-1.6,29.13,29.13,0,0,1,5.26.22l1.41.25A1.77,1.77,0,0,1,619.86,211.17Z" style="fill:#455a64"></path><path d="M551.83,323.18s9.09,9.32,12.89,7.54,12.44-12,15.82-12.18a56.08,56.08,0,0,0,8-1.3l12.1-.77s-1.31,9.72-4.59,9.29-8.52,1.44-8.52,1.44l18.57,1.22,4.37,10.29s-14.21,9.91-15.92,10.19-23,3.78-28.18-.93-11.45-11.28-13.26-17.11S551.83,323.18,551.83,323.18Z" style="fill:#c78976"></path><path d="M608.45,308.66l-32.3-37.21-16,9s6.87,14.28,16.27,29.9c10.85,18,25.28,37.53,40,34C640.79,338.5,675,265.06,675,265.06s-.18-38.74-11.85-40.39c0,0-14.72-6-22.47,9.87s-27.74,72.73-32.23,74.12" style="fill:#c78976"></path><path d="M560.18,280.41s-5.26-9-5.06-13.43,12.57-28.53,13.43-28.85a14.72,14.72,0,0,1,2.85-.46s2-1.2,3.47-2.28,15.55-8.19,15.55-8.19l-1.89,8.22s-7.74,4.94-5.71,8.45,9.46-.25,10.47-.78,10.26-5.5,12-4.69,3,3.9-.46,7.39-10.38,3.56-12.52,6.16-4.44,6.44-8.87,8.44a51,51,0,0,0-5.1,2.71,6.05,6.05,0,0,0-2.66,7l.43,1.36Z" style="fill:#c78976"></path><path d="M661.2,221.29s-16,.74-19.66,8.54S624.34,269,624.34,269l43.34,16s7.33-13.44,8.47-21.08S676,223,661.2,221.29Z" style="fill:#FF725E"></path><path d="M648.65,288.72a11.22,11.22,0,0,1-.2,1.19,6.34,6.34,0,0,0-.09,1.38c0,.52.23,1.14.28,1.85a11.89,11.89,0,0,1-.5,4.91,11.6,11.6,0,0,1-1.24,2.66c-.54.87-1.2,1.68-1.83,2.52a13.81,13.81,0,0,0-1.63,2.57,7.55,7.55,0,0,0-.67,2.69,12.09,12.09,0,0,0,.73,4.71,26.79,26.79,0,0,0,1.27,3,6,6,0,0,1,.47,1.11,5.15,5.15,0,0,1-.65-1,21.59,21.59,0,0,1-1.44-3,12.34,12.34,0,0,1-.86-4.87,7.93,7.93,0,0,1,.69-2.87,13.84,13.84,0,0,1,1.67-2.67c.65-.85,1.3-1.65,1.82-2.48a11.53,11.53,0,0,0,1.21-2.54,11.88,11.88,0,0,0,.59-4.73c0-.68-.21-1.28-.2-1.87a6.1,6.1,0,0,1,.18-1.43A3.34,3.34,0,0,1,648.65,288.72Z" style="fill:#263238"></path><path d="M641.15,309.63a16.65,16.65,0,0,0-.46-3.44,10.57,10.57,0,0,0-1.61-3.36,10.2,10.2,0,0,0-1.48-1.63,7.5,7.5,0,0,0-.9-.7c-.31-.18-.48-.13-.66.19a6.71,6.71,0,0,0,2,7.42,9.44,9.44,0,0,0,3,1.6,2.22,2.22,0,0,1-.95-.13,6.91,6.91,0,0,1-4.51-9.13,1,1,0,0,1,.6-.54,1,1,0,0,1,.78.14,9,9,0,0,1,1,.77,10.21,10.21,0,0,1,1.53,1.73,10.52,10.52,0,0,1,1.58,3.54,9.19,9.19,0,0,1,.25,2.6A2.59,2.59,0,0,1,641.15,309.63Z" style="fill:#263238"></path><path d="M644.71,308.78a7.43,7.43,0,0,0,3.12-.26,5.51,5.51,0,0,0,2.79-1.79,5.21,5.21,0,0,0,1-3.83,3.59,3.59,0,0,0-.11-.57l.33.19a18.22,18.22,0,0,0-3.75,1.41,6.79,6.79,0,0,0-2.34,2.13,6.28,6.28,0,0,0-1.09,2.72s-.1-.29,0-.82a5.51,5.51,0,0,1,.82-2.1,6.86,6.86,0,0,1,2.41-2.34,17.37,17.37,0,0,1,3.83-1.5l.26-.08.07.26c0,.2.09.42.12.64A5.56,5.56,0,0,1,651,307a5.86,5.86,0,0,1-3,1.85A4.45,4.45,0,0,1,644.71,308.78Z" style="fill:#263238"></path><path d="M643.09,302.53s.29-.24.73-.73a5.81,5.81,0,0,0,1.31-2.42,6.74,6.74,0,0,0-.18-4,9.59,9.59,0,0,0-1.09-2.17,10.34,10.34,0,0,0-.78-1c-.14-.16-.28-.33-.44-.49s-.3-.31-.37-.31-.18.08-.26.25-.16.4-.23.6a11.11,11.11,0,0,0-.36,1.25,19.58,19.58,0,0,0-.41,2.43c-.09.78-.15,1.54-.21,2.24a9,9,0,0,0,0,1.93,3.16,3.16,0,0,0,1.35,2.26,1.71,1.71,0,0,0,1,.23s-.39.27-1.06,0a3.29,3.29,0,0,1-1.62-2.39,9.52,9.52,0,0,1,0-2c0-.71.08-1.46.16-2.26a19.53,19.53,0,0,1,.39-2.5,13.43,13.43,0,0,1,.37-1.3c.08-.22.14-.42.25-.66a.83.83,0,0,1,.77-.53,1.19,1.19,0,0,1,.71.46c.16.17.31.35.46.52q.43.53.81,1.08a9.76,9.76,0,0,1,1.12,2.3,7,7,0,0,1,.08,4.29,5.56,5.56,0,0,1-1.52,2.46A2.52,2.52,0,0,1,643.09,302.53Z" style="fill:#263238"></path><path d="M649,301.06a5.19,5.19,0,0,0,1-.07,4.72,4.72,0,0,0,2.12-1.43,13.39,13.39,0,0,0,2.26-3.17,13,13,0,0,0,.86-2.12,11.16,11.16,0,0,0,.31-1.17,4.18,4.18,0,0,0,.14-1.17c-.07-.37-.18-.42-.55-.24a11.79,11.79,0,0,0-1,.63,12.24,12.24,0,0,0-1.77,1.45,12.64,12.64,0,0,0-2.29,3.14,19.79,19.79,0,0,0-1.26,3.39,2.76,2.76,0,0,1,.09-1,10.39,10.39,0,0,1,.84-2.57,12.16,12.16,0,0,1,4.1-4.84,11.5,11.5,0,0,1,1.08-.66,1,1,0,0,1,.83-.11.91.91,0,0,1,.48.72,12.49,12.49,0,0,1-3.83,8,4.55,4.55,0,0,1-2.34,1.37A1.43,1.43,0,0,1,649,301.06Z" style="fill:#263238"></path><path d="M649.1,294.05a11.83,11.83,0,0,0,1.89-3.28,10.26,10.26,0,0,0,.59-4c0-.78-.08-1.59-.16-2.44l-.07-.64a2.43,2.43,0,0,0-.09-.57c0-.09-.07-.1-.25-.06a3.42,3.42,0,0,0-.57.25,7.71,7.71,0,0,0-3.4,3.48,6.7,6.7,0,0,0-.63,2.05,5.73,5.73,0,0,0,.09,1.87,9,9,0,0,0,1,2.56,5.33,5.33,0,0,1,.49.91,3.4,3.4,0,0,1-.67-.8,8.19,8.19,0,0,1-1.21-2.58c-.77-2.37.66-6.22,4.06-8a6.16,6.16,0,0,1,.67-.28.74.74,0,0,1,.47,0,.63.63,0,0,1,.4.36,2.82,2.82,0,0,1,.12.73l.07.64c.07.86.13,1.69.13,2.49a12.64,12.64,0,0,1-.17,2.26,8.85,8.85,0,0,1-.56,1.9,9.06,9.06,0,0,1-1.46,2.45A2.56,2.56,0,0,1,649.1,294.05Z" style="fill:#263238"></path><path d="M648.92,305.54c.11.08-.58,1.11-1.79,2a4.63,4.63,0,0,1-2.43,1.12c-.06-.14,1-.69,2.12-1.54S648.8,305.44,648.92,305.54Z" style="fill:#263238"></path><path d="M641.12,309.94a4.8,4.8,0,0,1-2-2.35,7.08,7.08,0,0,1-1-2.92,13.23,13.23,0,0,1,1.45,2.68C640.32,308.83,641.21,309.83,641.12,309.94Z" style="fill:#263238"></path><path d="M652.81,295.57a10.68,10.68,0,0,1-4,5.23,21.34,21.34,0,0,1,2-2.62A22.15,22.15,0,0,1,652.81,295.57Z" style="fill:#263238"></path><path d="M642.88,302.49a26.94,26.94,0,0,1,.12-3.19,28.85,28.85,0,0,1,0-3.19,6.18,6.18,0,0,1,.56,3.19A6.29,6.29,0,0,1,642.88,302.49Z" style="fill:#263238"></path><path d="M643.86,287.37c0-.07.33,0,.44.41a.74.74,0,0,1-.24.72.81.81,0,0,1-1.32-.77.72.72,0,0,1,.5-.56c.43-.12.63.13.58.18s-.23,0-.43.15a.36.36,0,0,0-.17.3.36.36,0,0,0,.17.33.37.37,0,0,0,.38,0,.36.36,0,0,0,.16-.29C644,287.58,643.82,287.43,643.86,287.37Z" style="fill:#263238"></path><path d="M653.85,299.7c0-.06.33,0,.44.42a.71.71,0,0,1-.24.71.82.82,0,0,1-.93.09.83.83,0,0,1-.39-.85.72.72,0,0,1,.5-.57c.43-.11.63.14.58.18s-.23,0-.43.16a.36.36,0,0,0-.17.29.37.37,0,0,0,.17.34.38.38,0,0,0,.55-.31C654,299.92,653.81,299.77,653.85,299.7Z" style="fill:#263238"></path><path d="M637.65,311.39c0-.07.54.08.69.83a1.23,1.23,0,0,1-.44,1.19,1.41,1.41,0,0,1-1.56.15,1.44,1.44,0,0,1-.65-1.43,1.24,1.24,0,0,1,.82-1c.73-.24,1.13.15,1.07.18s-.42-.11-.92.15a.88.88,0,0,0-.49.7.89.89,0,0,0,1.44.84.87.87,0,0,0,.37-.77C638,311.7,637.6,311.45,637.65,311.39Z" style="fill:#263238"></path><path d="M642.51,303.85c0-.07.22-.06.31.19a.44.44,0,0,1-.14.47.53.53,0,0,1-.6.06.55.55,0,0,1-.25-.56.46.46,0,0,1,.34-.35c.27-.05.37.13.32.17s-.13.09-.18.17,0,.1,0,.12.08,0,.12,0S642.48,303.91,642.51,303.85Z" style="fill:#263238"></path><path d="M656.28,285.81c0-.07.64.14.82,1.05a1.48,1.48,0,0,1-.55,1.43,1.63,1.63,0,0,1-2.66-1.55,1.53,1.53,0,0,1,1-1.18c.88-.29,1.38.17,1.32.2a2.25,2.25,0,0,0-1.17.14,1.17,1.17,0,0,0-.66.91,1.28,1.28,0,0,0,.57,1.2,1.25,1.25,0,0,0,1.33-.1,1.15,1.15,0,0,0,.47-1C656.69,286.17,656.22,285.87,656.28,285.81Z" style="fill:#263238"></path><path d="M655.52,222s-.36.1-1,.34a13.94,13.94,0,0,0-2.75,1.33,31.22,31.22,0,0,0-8,7.83A95.28,95.28,0,0,0,635,245.85c-2.87,5.63-5.64,12-8.4,18.77l-1,2.31-.49,1.12-.26.55-.15.28-.1.15-.08.09a.33.33,0,0,1-.37.05l.22-.47,32,11.89,9.52,3.6,2.57,1,.66.27.22.11a.78.78,0,0,1-.24-.06l-.68-.22-2.59-.91-9.58-3.45-32-11.73.11-.27a.4.4,0,0,0-.11-.18s0,0,0,0l.06-.1.13-.24.26-.53c.15-.37.32-.74.48-1.11l1-2.31c2.76-6.76,5.55-13.16,8.45-18.79a93,93,0,0,1,8.83-14.33,30.43,30.43,0,0,1,8.23-7.78,13.1,13.1,0,0,1,2.83-1.26,5.58,5.58,0,0,1,.78-.2A.78.78,0,0,1,655.52,222Z" style="fill:#263238"></path><path d="M619.37,343.25a3.15,3.15,0,0,1-.52.26,10.18,10.18,0,0,1-1.61.52,20.61,20.61,0,0,1-6.2.29,27.69,27.69,0,0,1-8.92-2.24,28.18,28.18,0,0,1-8.65-7.19c-1.3-1.53-2.48-3.08-3.59-4.6s-2.1-3-3.08-4.46l-5.18-7.56-3.46-5.13-.92-1.41a3,3,0,0,1-.29-.51,2.28,2.28,0,0,1,.38.45l1,1.36,3.59,5,5.27,7.49,3.1,4.44c1.11,1.51,2.29,3.05,3.58,4.56A23.11,23.11,0,0,0,611.08,344a22.2,22.2,0,0,0,6.12-.13C618.62,343.55,619.35,343.19,619.37,343.25Z" style="fill:#bf654e"></path><path d="M616.29,320.2a19.65,19.65,0,0,1-.59-2,17.2,17.2,0,0,0-2.23-4.49A18.64,18.64,0,0,0,610.1,310c-1-.83-1.69-1.24-1.65-1.31a5.44,5.44,0,0,1,1.87,1,15,15,0,0,1,3.58,3.71,14.41,14.41,0,0,1,2.15,4.69A5.66,5.66,0,0,1,616.29,320.2Z" style="fill:#bf654e"></path></g><g id="freepik--character-3--inject-2"><path d="M502.88,365.82,451,380.33c-15.2.92-49.56,3.19-49.56,3.19l11,66h38.92v0H495s13.48-20,14.87-44.73A84.65,84.65,0,0,0,502.88,365.82Z" style="fill:#263238"></path><path d="M445.51,392a3,3,0,0,1-.54.39l-1.6,1c-1.38.9-3.41,2.17-5.76,3.94a32.38,32.38,0,0,0-7.27,7.23,19.47,19.47,0,0,0-2.65,5.41,32,32,0,0,0-1.19,6.41c-.69,8.95-1.32,17.06-1.78,23-.25,2.89-.45,5.26-.59,7-.08.78-.14,1.41-.19,1.89a3.29,3.29,0,0,1-.1.66,2.85,2.85,0,0,1,0-.67c0-.48.05-1.11.08-1.9.11-1.71.25-4.08.43-7,.4-5.89.91-14,1.63-23a32.63,32.63,0,0,1,1.22-6.5,19.71,19.71,0,0,1,2.74-5.53,32.17,32.17,0,0,1,7.45-7.26c2.4-1.74,4.46-3,5.88-3.81.71-.42,1.26-.74,1.64-.95A3.18,3.18,0,0,1,445.51,392Z" style="fill:#455a64"></path><path d="M485.15,448.17a6,6,0,0,1,.34-.69l1.05-1.93c.24-.42.49-.88.77-1.38s.54-1.08.84-1.68c.58-1.22,1.32-2.57,2-4.15.33-.78.68-1.6,1.05-2.45s.67-1.77,1-2.7c.73-1.86,1.34-3.91,2-6.05a88.48,88.48,0,0,0,3.43-28.88c-.15-2.24-.25-4.37-.54-6.35-.13-1-.21-2-.37-2.86s-.31-1.79-.46-2.63c-.25-1.68-.65-3.17-.94-4.49-.16-.65-.28-1.27-.43-1.83s-.3-1.06-.43-1.52c-.24-.88-.44-1.58-.58-2.11a3.91,3.91,0,0,1-.17-.75,6.86,6.86,0,0,1,.27.71l.67,2.09c.15.46.31,1,.48,1.51s.3,1.18.47,1.83c.32,1.32.75,2.81,1,4.49.15.84.32,1.72.49,2.63s.26,1.88.4,2.88c.31,2,.42,4.13.59,6.38a93.61,93.61,0,0,1-.48,14.67,92.24,92.24,0,0,1-3,14.36c-.68,2.16-1.3,4.21-2.06,6.07-.37.93-.67,1.85-1.06,2.7l-1.09,2.45c-.66,1.58-1.42,2.92-2,4.13-.31.6-.59,1.17-.88,1.67l-.81,1.36-1.14,1.88A3.29,3.29,0,0,1,485.15,448.17Z" style="fill:#455a64"></path><path d="M423.27,406a7,7,0,0,1-1.85-.88,48.45,48.45,0,0,1-8-5.74,7,7,0,0,1-1.42-1.47c.1-.11,2.46,1.9,5.57,4.12S423.34,405.9,423.27,406Z" style="fill:#455a64"></path><path d="M403.08,293.6s-22.59,21.29-28.24,35.57-11,28.49-5.49,44c4.59,12.77,15.78,28.86,33.34,32.9,11.42,2.64,103-36.57,103-36.57s.9-11.49-4.46-20.62c-4.71-8-4.5-97.4-4.38-118.85a8.89,8.89,0,0,0-3.74-7.28l-15.31-10.84-31.4.8s-24.6,27.39-29.06,31.55S383.74,271.59,403.08,293.6Z" style="fill:#FF725E"></path><path d="M453.73,303.18s-.14.06-.42.13-.7.17-1.25.25a25.73,25.73,0,0,1-4.66.3,26.93,26.93,0,0,1-24.24-16.5,24.32,24.32,0,0,1-1.43-4.45c-.13-.54-.18-1-.23-1.25a1.29,1.29,0,0,1,0-.45s.17.59.46,1.65a28.62,28.62,0,0,0,1.57,4.35,27.36,27.36,0,0,0,23.91,16.28,30,30,0,0,0,4.63-.13A13.54,13.54,0,0,1,453.73,303.18Z" style="fill:#263238"></path><g style="opacity:0.30000000000000004"><path d="M426.77,293.39c3.33,5.82,7.83,11.3,14,14s14.16,1.89,18.49-3.24c0,0-9.61-.18-15.35-.83s-14.28-4.9-17.12-9.93"></path></g><path d="M381.38,369.92s-.35.52-1.27.7a3.06,3.06,0,0,1-3.18-4.76c.53-.78,1.13-.95,1.14-.9s-.44.35-.82,1.09a3,3,0,0,0,.06,3,3.08,3.08,0,0,0,2.75,1.21A10.79,10.79,0,0,0,381.38,369.92Z" style="fill:#263238"></path><path d="M386.9,294.08c0-.38,1-4,3.54-5.14s9.49-.36,9.49-.36l4.89,6.5s-.57,2.77-4.61,2.05c0,0,7.73,5.64,7.44,8.19a5.4,5.4,0,0,1-2.09,3.75s3.62,2.09,2.43,4.66a3.2,3.2,0,0,1-3.69,1.9s.57,4.06-3.84,3.17-10.89-3.94-10.89-3.94a2.3,2.3,0,0,0,1.86,2.94,9.87,9.87,0,0,1,4.27,2.14s.27,3.25-2.64,2.79-5.64-.25-8.26-2.09-5.13-2.52-4.57-5.16,1-3.11,1-3.11-1.57-3.52-.06-5.28l1.51-1.77s-1.93-3.44-.16-5.42,4.08-4.18,4.08-4.18Z" style="fill:#c78976"></path><path d="M405.6,309a17,17,0,0,1-2.37-1.32c-1.44-.86-3.42-2-5.64-3.3s-4.25-2.35-5.72-3.14a15.18,15.18,0,0,1-2.35-1.36,13.2,13.2,0,0,1,2.51,1c1.52.71,3.59,1.76,5.82,3s4.19,2.5,5.58,3.44A12.49,12.49,0,0,1,405.6,309Z" style="fill:#bf654e"></path><path d="M404.89,315.71a88.59,88.59,0,0,1-8.39-4.14,85.05,85.05,0,0,1-8.14-4.6,81.9,81.9,0,0,1,8.39,4.14A82.56,82.56,0,0,1,404.89,315.71Z" style="fill:#bf654e"></path><path d="M400.65,297.58a24.64,24.64,0,0,1-4.53-2.16,25,25,0,0,1-4.29-2.61,24.41,24.41,0,0,1,4.54,2.15A24.1,24.1,0,0,1,400.65,297.58Z" style="fill:#bf654e"></path><path d="M488.8,114.43c.74-3.08.3-6.7-2.13-8.82-2.13-1.86-5.34-2.14-8.14-1.49a12.56,12.56,0,0,0-8.87,7.29,9.7,9.7,0,0,0,2.54,10.75L480,124h0a10.54,10.54,0,0,0,8.53-8.17C488.61,115.25,488.73,114.75,488.8,114.43Z" style="fill:#263238"></path><path d="M484.08,123.33a4.19,4.19,0,0,0-4.38-.63,3.78,3.78,0,0,0-4.81-4.7c-.68.23-1.38.65-2.05.42-1-.36-1-1.78-1.4-2.79a2.82,2.82,0,1,0-3.86,3.57c4.31,1,8.69,3.93,12.19,6.65a8.68,8.68,0,0,0,2.29,1.47,2.48,2.48,0,0,0,2.57-.39C485.6,126,485.12,124.22,484.08,123.33Z" style="fill:#FF725E"></path><path d="M431.21,215.21c0-.09,1-.26,2.35-1a10.61,10.61,0,0,0,6-9.76c0-1.56-.3-2.5-.22-2.53s.14.22.27.65a9,9,0,0,1,.32,1.87,10.26,10.26,0,0,1-6.21,10.1,7.89,7.89,0,0,1-1.82.56A1.73,1.73,0,0,1,431.21,215.21Z" style="fill:#263238"></path><path d="M451.35,120.38h0a37.71,37.71,0,0,0-10-3.43c-3.32-.71-7-.32-9.68,1.82-3.48,2.82-4.24,7.8-6.88,11.42-1.71,2.35-4.16,4-6.33,5.95s-4.21,4.31-4.59,7.19c-.32,2.36.51,4.73.35,7.1-.4,5.83-6.62,10.53-5.64,16.3.73,4.24,5.14,7,6.27,11.16.68,2.49.07,5.15.41,7.71a13.77,13.77,0,0,0,5,8.39,33.08,33.08,0,0,0,8.63,4.93q5.28,2.27,10.78,4c2.17.68,4.88,1.17,6.4-.52,1.07-1.18,1.06-2.95,1-4.54C445.77,171.92,444.7,145.5,451.35,120.38Z" style="fill:#263238"></path><path d="M477.81,215.14l.26-72.67a5.94,5.94,0,0,0-5.62-5.76l-21.34-8.6-5.58.62c-12.57,0-21.3,13.8-21.43,24-.15,11.3.12,25.11,1.88,33.46,3.53,16.77,16.6,18.28,16.6,18.28s-.15,4.58-.29,10.2l-9.4,30.13Z" style="fill:#c78976"></path><path d="M430.72,162.32a2.19,2.19,0,0,0,2.2,2.09,2.08,2.08,0,0,0,2.14-2.07,2.18,2.18,0,0,0-2.2-2.09A2.09,2.09,0,0,0,430.72,162.32Z" style="fill:#263238"></path><path d="M427.24,158.06c.23.38,2.25-.79,4.76-.38s4.13,2.1,4.46,1.8c.16-.13,0-.79-.73-1.57a6,6,0,0,0-7.36-1.14C427.49,157.31,427.12,157.88,427.24,158.06Z" style="fill:#263238"></path><path d="M442.81,176.75a16,16,0,0,0-3.83-.5c-.6,0-1.17-.12-1.29-.52A3.06,3.06,0,0,1,438,174q.74-2.22,1.54-4.63c2.12-6.58,3.63-12,3.36-12.07s-2.2,5.19-4.33,11.77c-.51,1.62-1,3.17-1.46,4.65a3.45,3.45,0,0,0-.19,2.35,1.52,1.52,0,0,0,1,.83,4.77,4.77,0,0,0,1,.09A15.91,15.91,0,0,0,442.81,176.75Z" style="fill:#263238"></path><path d="M442.58,204.45a43.08,43.08,0,0,0,22.34-7.18s-5.44,12-22.45,11.29Z" style="fill:#bf654e"></path><path d="M444.08,182.32a4.21,4.21,0,0,1,3.69-1.75,3.88,3.88,0,0,1,2.72,1.29,2.43,2.43,0,0,1,.32,2.77,2.82,2.82,0,0,1-3,.93,8.76,8.76,0,0,1-3.07-1.63,2.59,2.59,0,0,1-.7-.66.79.79,0,0,1,0-.87" style="fill:#bf654e"></path><path d="M449.76,178c-.39,0-.26,2.53-2.34,4.44s-4.79,1.76-4.79,2.11c0,.16.62.47,1.77.44a6.3,6.3,0,0,0,4-1.63,5.49,5.49,0,0,0,1.8-3.71C450.24,178.61,449.93,178,449.76,178Z" style="fill:#263238"></path><path d="M427.45,150.81c.49.5,2.26-.14,4.44-.27s4,.15,4.42-.42c.17-.28-.14-.8-1-1.26a6.81,6.81,0,0,0-3.66-.69,6.54,6.54,0,0,0-3.48,1.25C427.46,150,427.23,150.56,427.45,150.81Z" style="fill:#263238"></path><path d="M457.77,162a2.17,2.17,0,0,1-2.07,2.21,2.07,2.07,0,0,1-2.26-1.92A2.17,2.17,0,0,1,455.5,160,2.08,2.08,0,0,1,457.77,162Z" style="fill:#263238"></path><path d="M460.68,149.33c-.52.54-2.6,0-5.09,0s-4.59.42-5.08-.13c-.21-.27.11-.81,1-1.32a8.57,8.57,0,0,1,4.12-.92,8.41,8.41,0,0,1,4.07,1C460.61,148.53,460.91,149.07,460.68,149.33Z" style="fill:#263238"></path><path d="M452.41,127.23c8.45,11.5,17.45,24.5,26.19,35.76,1.51-5.62,2.93-14.11,1.88-19.84a23.92,23.92,0,0,0-8.6-14.76c-4.64-3.53-12.9-4.26-18.3-2.09" style="fill:#263238"></path><path d="M474.7,171c-.06-1.26,1.25-4.3,2.48-4.55,3.3-.69,9.3-.72,9.78,7.71.65,11.52-11.06,9.8-11.09,9.47S474.91,175.39,474.7,171Z" style="fill:#c78976"></path><path d="M479.14,179.11c.05,0,.21.13.56.26a2,2,0,0,0,1.5-.05c1.19-.52,2.11-2.51,2-4.59a6.58,6.58,0,0,0-.72-2.84,2.35,2.35,0,0,0-1.6-1.46,1,1,0,0,0-1.15.62c-.14.33,0,.56-.11.58s-.26-.18-.19-.66a1.26,1.26,0,0,1,.41-.75,1.47,1.47,0,0,1,1.09-.35,2.83,2.83,0,0,1,2.2,1.66,6.93,6.93,0,0,1,.88,3.18c.06,2.32-1,4.56-2.65,5.14a2.14,2.14,0,0,1-1.85-.2C479.18,179.39,479.1,179.13,479.14,179.11Z" style="fill:#bf654e"></path><path d="M448.73,124c-7.09.55-15.38,2.74-19.8,8.31s-6.95,12.45-8.45,19.41A154.14,154.14,0,0,0,418,171.86a44.81,44.81,0,0,0-.11,9.26,15,15,0,0,0,3.58,8.39c-1.27-2.73,1.44-7.34,1.18-11.49l1.75-6.91c-.29-5.49,1.83-7.66,2-10.27.13-2-.77-3.83-1.43-5.68s-1.1-4-.13-5.72,3.35-2.56,4.64-4.22c1.47-1.89,1.35-4.61,2.59-6.66,1.74-2.85,5.46-3.57,8.4-5.16,3.81-2.06,8.6-4,9.24-8.32Z" style="fill:#263238"></path><path d="M459.86,158c-.24.38-2.28-.84-4.86-.46s-4.26,2.06-4.59,1.75c-.16-.13,0-.8.77-1.58a6.19,6.19,0,0,1,3.61-1.83,6,6,0,0,1,3.94.8C459.62,157.2,460,157.78,459.86,158Z" style="fill:#263238"></path><path d="M452.24,177.53c-.14,0-.39-.42-.9-.74s-1-.37-1-.51.64-.37,1.33.08S452.38,177.52,452.24,177.53Z" style="fill:#bf654e"></path><path d="M496.52,174.41c-.07-3.28-2.71-6-3.27-9.27-.47-2.74.19-5.52.53-8.28a35.67,35.67,0,0,0-17.33-34.44A57.44,57.44,0,0,0,461.33,117a16.67,16.67,0,0,0-6.22-.64,6.07,6.07,0,0,0-4.89,3.49h0c-2.46,3.41-3.45,8.67-1.49,12.39,2.87,5.44,10.85,6.32,14.1,11.55,3.48,5.6-.07,13.37,2.77,19.33,1.8,3.8,4.45,4.95,5.88,8.9.73,2-.35,6.76.75,8.59,1.57,2.61,3,5.36,5.68,6.77l-.05,12.37C485,197.27,496.87,189.51,496.52,174.41Z" style="fill:#263238"></path><path d="M492.17,158.16a2.09,2.09,0,0,1-.57.06,4.77,4.77,0,0,1-1.61-.28,9,9,0,0,1-4.4-4,34.7,34.7,0,0,1-1.82-3.71,19,19,0,0,0-2.25-4.06,9.12,9.12,0,0,0-4.06-2.93,29.39,29.39,0,0,0-5.36-1.34,36.91,36.91,0,0,1-17.69-8.19,32.94,32.94,0,0,1-4.19-4.24c-.47-.53-.77-1-1-1.28a2.6,2.6,0,0,1-.31-.48s.52.58,1.46,1.62a37.06,37.06,0,0,0,4.27,4.09,37.86,37.86,0,0,0,7.37,4.71,37.19,37.19,0,0,0,10.18,3.26,30.09,30.09,0,0,1,5.46,1.37,9.63,9.63,0,0,1,4.25,3.12,19.56,19.56,0,0,1,2.27,4.18,37.87,37.87,0,0,0,1.73,3.69,9,9,0,0,0,4.16,4A7,7,0,0,0,492.17,158.16Z" style="fill:#455a64"></path><path d="M492.07,142.7a11.63,11.63,0,0,0-.91-1.68,8.47,8.47,0,0,0-4.27-2.81,15.14,15.14,0,0,0-3.52-.7c-1.3-.1-2.69-.12-4.17-.19a20.09,20.09,0,0,1-4.62-.68,10.88,10.88,0,0,1-4.35-2.54,49.22,49.22,0,0,1-3.38-3.67,20.64,20.64,0,0,0-3.31-3.14,18.93,18.93,0,0,0-12.21-3.6c-1.24.07-1.91.22-1.92.16a1.64,1.64,0,0,1,.48-.13,11.55,11.55,0,0,1,1.43-.23,17.4,17.4,0,0,1,5.29.27,18.34,18.34,0,0,1,7.21,3.14c2.5,1.72,4.32,4.53,6.76,6.81a10.47,10.47,0,0,0,4.14,2.44,19.9,19.9,0,0,0,4.51.69c1.46.08,2.86.12,4.18.24a15.14,15.14,0,0,1,3.6.78,8.53,8.53,0,0,1,4.32,3A4.49,4.49,0,0,1,492.07,142.7Z" style="fill:#fff"></path><path d="M491.77,206.43a1.77,1.77,0,0,1-.82.2,4.69,4.69,0,0,1-2.27-.42,8.91,8.91,0,0,1-2.78-2,16.54,16.54,0,0,1-2.45-3.36,17,17,0,0,1-2.1-7.2,14.61,14.61,0,0,1,0-2.29,2.35,2.35,0,0,1,.17-.82c.09,0-.05,1.19.16,3.08a18.54,18.54,0,0,0,2.18,7,12.6,12.6,0,0,0,4.93,5.26A5.92,5.92,0,0,0,491.77,206.43Z" style="fill:#263238"></path><path d="M496.87,214.94a3.85,3.85,0,0,1-1.09.38,9.06,9.06,0,0,1-3.17.19,13.56,13.56,0,0,1-8.88-5.14,23.44,23.44,0,0,1-4.15-9.49c-.29-1.3-.46-2.36-.55-3.1a4.71,4.71,0,0,1-.09-1.15c.09,0,.35,1.61,1,4.16a24.86,24.86,0,0,0,4.2,9.26,13.66,13.66,0,0,0,8.52,5.09A13.41,13.41,0,0,0,496.87,214.94Z" style="fill:#263238"></path><path d="M504.13,201.88a1.63,1.63,0,0,1-.41.19c-.27.1-.68.26-1.22.44a15.49,15.49,0,0,1-4.68.9,8.31,8.31,0,0,1-3.28-.64,5.81,5.81,0,0,1-2.83-2.6,4.6,4.6,0,0,1-.53-2.06,4,4,0,0,1,.62-2.14,3.67,3.67,0,0,1,1.74-1.53,2.91,2.91,0,0,1,2.4,0,3.36,3.36,0,0,1,1.7,1.7,2.57,2.57,0,0,1-.12,2.34,3.68,3.68,0,0,1-1.69,1.47,5.8,5.8,0,0,1-2,.55,9.2,9.2,0,0,1-6.71-2.08,9.08,9.08,0,0,1-2.7-3.92,7.42,7.42,0,0,1-.32-1.26,1.24,1.24,0,0,1,0-.46c.05,0,.14.61.55,1.65a9.29,9.29,0,0,0,2.75,3.71,8.92,8.92,0,0,0,6.43,1.88,4.29,4.29,0,0,0,3.32-1.79,2.4,2.4,0,0,0-1.34-3.31,2.82,2.82,0,0,0-3.5,1.31,3.7,3.7,0,0,0-.09,3.72,5.39,5.39,0,0,0,2.58,2.42,8.08,8.08,0,0,0,3.1.66,16.56,16.56,0,0,0,4.63-.73A11.6,11.6,0,0,1,504.13,201.88Z" style="fill:#263238"></path><path d="M488.85,107c0,.09-1.31-.3-3.43-.31a15.26,15.26,0,0,0-7.86,2.11,14.59,14.59,0,0,0-5.47,6,31.37,31.37,0,0,0-1.21,3.23,3,3,0,0,1,.1-.94,11.94,11.94,0,0,1,.78-2.44,14,14,0,0,1,5.53-6.3,14.67,14.67,0,0,1,8.14-2,11.83,11.83,0,0,1,2.53.37A2.73,2.73,0,0,1,488.85,107Z" style="fill:#455a64"></path><path d="M486,121.43c-.08,0,0-.91-.07-2.34a13,13,0,0,0-1.6-5.29,13.52,13.52,0,0,0-3.68-4.14c-1.15-.86-2-1.24-1.93-1.32a5.91,5.91,0,0,1,2.14,1,12.19,12.19,0,0,1,3.92,4.18,11.78,11.78,0,0,1,1.52,5.53A5.62,5.62,0,0,1,486,121.43Z" style="fill:#455a64"></path><path d="M464.05,168.1a16,16,0,0,1-1.85-.58,13.23,13.23,0,0,0-4.57-.43,12.92,12.92,0,0,0-4.42,1.22,19.08,19.08,0,0,1-1.72.88A4.65,4.65,0,0,1,453,168a11.24,11.24,0,0,1,9.27-.81A4.67,4.67,0,0,1,464.05,168.1Z" style="fill:#bf654e"></path><path d="M495.92,228.59Z" style="fill:#c78976"></path><path d="M464,260.52c-.58-6-.61,7.09,0,0Z" style="fill:#c78976"></path><path d="M502.86,257.91c-.28-6.75-1.68-21.13-9-29.29-8.79-9.76-19.15-8.79-25.77,2.56-6.75,11.57-3.6,23.59-4.09,29.34l8.19,67.71s-35.12,63.26-45.2,68.29l16,7.69c11.69-4.86,51.52-48.28,62.76-69.94C510.41,325.33,503.14,264.67,502.86,257.91Z" style="fill:#c78976"></path><path d="M463.51,281.63l43.35-8.73s-3.57-27.1-8.34-40.27c-3.72-10.25-15.26-14.1-15.26-14.1L464.2,230s-3.26,15.42-3,29.53S463.51,281.63,463.51,281.63Z" style="fill:#FF725E"></path><path d="M487.44,223.1a3.67,3.67,0,0,1-.74.12l-2.12.24a52.32,52.32,0,0,0-7.68,1.39,18.85,18.85,0,0,0-9.7,5.85c-2.8,3.32-4.41,8-4.95,13s0,9.82.13,14.19l.56,11.62c.14,3.26.25,5.92.33,7.83q0,1.34.06,2.13a3.91,3.91,0,0,1,0,.75,3.58,3.58,0,0,1-.09-.74c0-.54-.1-1.24-.16-2.13-.12-1.9-.29-4.56-.5-7.83s-.42-7.25-.67-11.62-.79-9.18-.17-14.26,2.2-9.84,5.1-13.24a17.35,17.35,0,0,1,4.88-3.93,22.47,22.47,0,0,1,5.09-2,45.7,45.7,0,0,1,7.76-1.24c.93-.08,1.64-.12,2.13-.15A4.27,4.27,0,0,1,487.44,223.1Z" style="fill:#263238"></path><path d="M494.41,290.06a11.88,11.88,0,0,1,.39,1.14,6.76,6.76,0,0,0,.58,1.26c.26.45.74.89,1.13,1.49a12,12,0,0,1,1.89,4.56,11.73,11.73,0,0,1,.18,2.93c-.06,1-.25,2.05-.41,3.09a13.73,13.73,0,0,0-.21,3,7.73,7.73,0,0,0,.69,2.69,12.34,12.34,0,0,0,2.89,3.79,28.73,28.73,0,0,0,2.55,2,5.77,5.77,0,0,1,1,.75,4.78,4.78,0,0,1-1.06-.58,22,22,0,0,1-2.69-1.95,12,12,0,0,1-3.07-3.86,7.86,7.86,0,0,1-.77-2.86,13.91,13.91,0,0,1,.21-3.14c.16-1.05.35-2.07.41-3.05a11.33,11.33,0,0,0-.14-2.81,12.09,12.09,0,0,0-1.73-4.44c-.35-.58-.8-1-1.08-1.55a7.11,7.11,0,0,1-.52-1.34A3.5,3.5,0,0,1,494.41,290.06Z" style="fill:#263238"></path><path d="M497.77,312a17.8,17.8,0,0,0-2-2.81,10.76,10.76,0,0,0-3-2.19,10.1,10.1,0,0,0-2.07-.72,6.35,6.35,0,0,0-1.13-.19c-.36,0-.48.11-.49.48a6.69,6.69,0,0,0,5.25,5.59,9.43,9.43,0,0,0,3.44,0,2.23,2.23,0,0,1-.89.34,6.79,6.79,0,0,1-2.62.07,6.95,6.95,0,0,1-5.7-6,1.08,1.08,0,0,1,.27-.76,1,1,0,0,1,.76-.24,7.69,7.69,0,0,1,1.23.21,10,10,0,0,1,2.16.79A10.39,10.39,0,0,1,496,309a9,9,0,0,1,1.45,2.16A2.65,2.65,0,0,1,497.77,312Z" style="fill:#263238"></path><path d="M500.49,309.58a7.45,7.45,0,0,0,2.63-1.72,5.65,5.65,0,0,0,1.6-2.9,5.22,5.22,0,0,0-.9-3.87,5.54,5.54,0,0,0-.37-.45h.38a18.58,18.58,0,0,0-2.62,3,6.78,6.78,0,0,0-1,3,6.48,6.48,0,0,0,.33,2.91,1.63,1.63,0,0,1-.41-.71,5.52,5.52,0,0,1-.28-2.24,6.79,6.79,0,0,1,1-3.2,17.66,17.66,0,0,1,2.65-3.15l.19-.19.18.2a5.21,5.21,0,0,1,.41.5,5.54,5.54,0,0,1,.95,4.26,5.78,5.78,0,0,1-1.81,3.07A4.43,4.43,0,0,1,500.49,309.58Z" style="fill:#263238"></path><path d="M496.09,304.85s.14-.35.3-1a5.75,5.75,0,0,0,0-2.76,6.83,6.83,0,0,0-2.08-3.46,9.37,9.37,0,0,0-2-1.38,11.33,11.33,0,0,0-1.17-.54l-.63-.23a.8.8,0,0,0-.48-.08c-.05,0-.11.14-.1.34a4.94,4.94,0,0,0,.08.63,12.39,12.39,0,0,0,.28,1.27,21.21,21.21,0,0,0,.79,2.33c.3.74.61,1.43.89,2.07a9.09,9.09,0,0,0,.89,1.71,3.19,3.19,0,0,0,2.27,1.35,1.66,1.66,0,0,0,.95-.26s-.21.43-.95.46a3.3,3.3,0,0,1-2.56-1.33,8.87,8.87,0,0,1-1-1.75c-.3-.64-.63-1.32-.94-2.06a20.87,20.87,0,0,1-.85-2.39,13.18,13.18,0,0,1-.29-1.31,4.91,4.91,0,0,1-.09-.71.83.83,0,0,1,.42-.83,1.21,1.21,0,0,1,.85.07c.22.07.43.15.65.24a10.43,10.43,0,0,1,1.22.57,9.39,9.39,0,0,1,2.08,1.48,7,7,0,0,1,2.11,3.74,5.67,5.67,0,0,1-.16,2.89A2.18,2.18,0,0,1,496.09,304.85Z" style="fill:#263238"></path><path d="M500.59,300.74a3.44,3.44,0,0,0,2-2.78,13.37,13.37,0,0,0,.48-3.85,14.18,14.18,0,0,0-.25-2.29c-.08-.39-.17-.78-.29-1.17a4,4,0,0,0-.44-1.1c-.24-.29-.35-.28-.59.06s-.43.69-.61,1a12.64,12.64,0,0,0-.87,2.12,13,13,0,0,0-.52,3.85,22.77,22.77,0,0,0,.51,3.58,2.88,2.88,0,0,1-.39-.91,10.64,10.64,0,0,1-.49-2.66,12.17,12.17,0,0,1,.43-4,12.75,12.75,0,0,1,.87-2.22,12.1,12.1,0,0,1,.64-1.1,1,1,0,0,1,.68-.49.86.86,0,0,1,.76.41,12.44,12.44,0,0,1,.43,8.83,4.5,4.5,0,0,1-1.41,2.32A1.36,1.36,0,0,1,500.59,300.74Z" style="fill:#263238"></path><path d="M497.34,294.53a11.42,11.42,0,0,0,.1-3.78,10.29,10.29,0,0,0-1.39-3.83c-.39-.67-.83-1.36-1.31-2.07l-.37-.53a3,3,0,0,0-.34-.46c-.09-.05-.11-.05-.26.07a5.62,5.62,0,0,0-.38.49,7.74,7.74,0,0,0-1.33,4.69,6.87,6.87,0,0,0,.42,2.1,5.76,5.76,0,0,0,1,1.6,8.74,8.74,0,0,0,2.12,1.76,5.59,5.59,0,0,1,.86.56,3.05,3.05,0,0,1-1-.38,8.12,8.12,0,0,1-2.3-1.7c-1.8-1.71-2.38-5.77-.22-8.92a5.32,5.32,0,0,1,.45-.57.83.83,0,0,1,.41-.24.69.69,0,0,1,.53.13,3.17,3.17,0,0,1,.45.58l.36.54c.48.71.92,1.42,1.31,2.12a13.36,13.36,0,0,1,.93,2.07,9.37,9.37,0,0,1,.41,1.94,9.13,9.13,0,0,1-.12,2.85A2.4,2.4,0,0,1,497.34,294.53Z" style="fill:#263238"></path><path d="M502.66,304.72a6.7,6.7,0,0,1-2.23,4.76,193.76,193.76,0,0,0,2.23-4.76Z" style="fill:#263238"></path><path d="M497.89,312.31a4.88,4.88,0,0,1-2.88-1.12,7.27,7.27,0,0,1-2.26-2.09,12.39,12.39,0,0,1,2.55,1.66C496.66,311.71,497.92,312.17,497.89,312.31Z" style="fill:#263238"></path><path d="M501.33,294.1a7.45,7.45,0,0,1,0,3.34,7.27,7.27,0,0,1-1,3.17,21.42,21.42,0,0,1,.52-3.26A21.14,21.14,0,0,1,501.33,294.1Z" style="fill:#263238"></path><path d="M495.89,304.91a27.81,27.81,0,0,1-1.42-2.86,27.09,27.09,0,0,1-1.54-2.79,8.82,8.82,0,0,1,3,5.65Z" style="fill:#263238"></path><path d="M489.55,291.15c0-.06.29-.17.59.16a.69.69,0,0,1,.12.74.82.82,0,0,1-.77.52.84.84,0,0,1-.75-.57.74.74,0,0,1,.17-.73c.32-.3.62-.18.6-.12s-.2.13-.31.35a.35.35,0,0,0,0,.33.37.37,0,0,0,.31.22.4.4,0,0,0,.33-.2.38.38,0,0,0,0-.33C489.74,291.29,489.55,291.22,489.55,291.15Z" style="fill:#263238"></path><path d="M504.21,297.24c0-.06.29-.16.59.16a.69.69,0,0,1,.12.74.81.81,0,0,1-.77.52.83.83,0,0,1-.75-.57.74.74,0,0,1,.17-.73c.32-.3.62-.18.6-.12s-.2.13-.31.35a.35.35,0,0,0,0,.33.37.37,0,0,0,.31.22.4.4,0,0,0,.33-.2.38.38,0,0,0,0-.33C504.4,297.38,504.21,297.31,504.21,297.24Z" style="fill:#263238"></path><path d="M495.53,315.23c0-.06.51-.18,1,.4a1.24,1.24,0,0,1,.19,1.26,1.43,1.43,0,0,1-1.31.87,1.41,1.41,0,0,1-1.25-.95,1.22,1.22,0,0,1,.26-1.24c.53-.55,1.06-.4,1-.35s-.43.11-.74.57a.91.91,0,0,0-.1.85.89.89,0,0,0,1.67.05.88.88,0,0,0,0-.85C495.94,315.36,495.51,315.3,495.53,315.23Z" style="fill:#263238"></path><path d="M496.21,306.28c0-.06.17-.16.37,0a.42.42,0,0,1,.1.47.52.52,0,0,1-.5.34.51.51,0,0,1-.48-.37.45.45,0,0,1,.12-.47c.22-.17.39-.06.37,0s-.08.14-.08.23.08.08.08.1.09,0,.09-.09S496.21,306.35,496.21,306.28Z" style="fill:#263238"></path><path d="M499.73,283.87c0-.06.63-.19,1.22.53a1.5,1.5,0,0,1,.21,1.52,1.63,1.63,0,0,1-3.08-.09,1.51,1.51,0,0,1,.3-1.51c.63-.68,1.29-.51,1.25-.46s-.54.09-1,.69a1.13,1.13,0,0,0-.14,1.11,1.17,1.17,0,0,0,2.19.07,1.16,1.16,0,0,0-.07-1.12C500.26,284,499.71,284,499.73,283.87Z" style="fill:#263238"></path><path d="M394.38,402.05s1.07-6.42,4.93-6.12,4.32.58,6.78-.73,4-5,10.49-5.11,12.95,2.77,16.65,1.32l13.57,10.64s-12.49,10.78-16.5,12.39-13.57,2-15.11,1.46-12-3.07-13.11-3.65-10-4.66-10.17-6,1.6-2.48,2.87-2.18,7.9,2,11,.38a20.51,20.51,0,0,1,4-1.85Z" style="fill:#c78976"></path></g><g id="freepik--character-2--inject-2"><path d="M273,214.36c-.28.35-15.07,23.55-15.07,23.55s-22.07,28.42-24.13,37.75c-3.06,13.79,3.19,20.25,3.19,20.25s-15.44,33.77-16.88,44.69,1,20.18,4.73,28.42,11.7,22.72,11.7,22.72,85.34-14,92.55-23.64l-10.55-27.5,11.54-79.29s3.53-31.67-6.3-39.74c-6.41-5.25-15.95-10-15.95-10l-35,6.08Z" style="fill:#FF725E"></path><path d="M275.9,303.38a6.46,6.46,0,0,1-1.34-.06,18.82,18.82,0,0,1-3.58-.76,21,21,0,0,1-14.73-17.65,19,19,0,0,1-.1-3.66,5.68,5.68,0,0,1,.19-1.33,38.22,38.22,0,0,0,.28,4.94,21.48,21.48,0,0,0,14.47,17.35A39,39,0,0,0,275.9,303.38Z" style="fill:#263238"></path><g style="opacity:0.30000000000000004"><path d="M257.72,290.22c1.25,5.1,3.46,10.19,7.51,13.53s10.25,4.46,14.61,1.54c0,0-7.19-2.2-11.37-3.93s-9.7-6.74-10.75-11.14"></path></g><path d="M327.56,365.53,278.78,380c-13.27.7-42.66,2.46-42.66,2.46l6,66.8,78,0s16.35-33.65,17.12-45.15A65.77,65.77,0,0,0,327.56,365.53Z" style="fill:#263238"></path><path d="M310.8,447.88a3.39,3.39,0,0,1,.32-.7l1-1.94.73-1.39c.26-.52.51-1.09.8-1.7.55-1.23,1.25-2.59,1.85-4.18.32-.78.66-1.6,1-2.46s.63-1.77,1-2.71c.7-1.86,1.26-3.92,1.89-6.06a93.36,93.36,0,0,0,3.21-28.81c-.14-2.23-.24-4.36-.51-6.33-.12-1-.2-2-.34-2.86s-.3-1.78-.44-2.62c-.24-1.68-.62-3.16-.89-4.48-.14-.65-.26-1.27-.4-1.83s-.28-1.06-.41-1.52l-.55-2.11a6,6,0,0,1-.16-.75,3.38,3.38,0,0,1,.26.71c.16.53.38,1.23.65,2.09.13.46.29,1,.45,1.52s.29,1.17.45,1.83c.3,1.31.7,2.8,1,4.48.15.83.31,1.71.47,2.62s.25,1.88.38,2.87c.29,2,.4,4.12.56,6.36a90.37,90.37,0,0,1-3.23,29c-.64,2.15-1.22,4.21-1.94,6.07-.35.94-.65,1.86-1,2.72l-1,2.46c-.62,1.58-1.35,2.94-1.93,4.15-.3.61-.56,1.18-.84,1.69l-.77,1.38-1.09,1.89A5.74,5.74,0,0,1,310.8,447.88Z" style="fill:#455a64"></path><path d="M273.32,391.74a2.85,2.85,0,0,1-.53.4l-1.55,1.06c-1.34.93-3.32,2.23-5.58,4.05a30.67,30.67,0,0,0-6.9,7.43,20,20,0,0,0-2.39,5.46,35.63,35.63,0,0,0-1,6.36c-.65,8.86-1.24,16.87-1.67,22.75-.23,2.87-.42,5.2-.56,6.9-.07.77-.13,1.39-.17,1.87a3.08,3.08,0,0,1-.1.65,3,3,0,0,1,0-.66c0-.48.05-1.11.08-1.88.1-1.69.23-4,.39-6.9.37-5.83.86-13.88,1.52-22.78a36.34,36.34,0,0,1,1.07-6.45,20.47,20.47,0,0,1,2.48-5.58,30.12,30.12,0,0,1,7.07-7.45,66.47,66.47,0,0,1,5.7-3.94c.69-.44,1.23-.76,1.61-1A2.62,2.62,0,0,1,273.32,391.74Z" style="fill:#455a64"></path><path d="M254,405.74a6.89,6.89,0,0,1-1.84-.88,44.7,44.7,0,0,1-4.14-2.67,46,46,0,0,1-3.85-3.07,7.4,7.4,0,0,1-1.42-1.47c.1-.11,2.47,1.9,5.57,4.12S254.07,405.61,254,405.74Z" style="fill:#455a64"></path><path d="M282.09,120.09h0a37.54,37.54,0,0,0-10-3.43c-3.32-.71-7-.32-9.68,1.82-3.48,2.82-4.24,7.8-6.88,11.42-1.71,2.35-4.16,4-6.33,5.95s-4.2,4.31-4.59,7.19c-.31,2.35.51,4.73.35,7.1-.4,5.83-6.62,10.53-5.64,16.3.73,4.24,5.15,7,6.27,11.16.68,2.49.07,5.15.41,7.71a13.77,13.77,0,0,0,5,8.39,33.37,33.37,0,0,0,8.63,4.93q5.3,2.26,10.78,4c2.17.68,4.89,1.17,6.41-.52,1.06-1.18,1.05-3,1-4.54C276.5,171.63,275.43,145.21,282.09,120.09Z" style="fill:#263238"></path><path d="M308.54,214.85l.27-72.67a6,6,0,0,0-5.63-5.76l-21.34-8.6-5.58.62c-12.57,0-21.3,13.8-21.43,24-.15,11.3.12,25.11,1.88,33.46,3.53,16.77,16.6,18.27,16.6,18.27s-.15,4.59-.29,10.21l-9.4,30.13Z" style="fill:#c78976"></path><path d="M261.45,162a2.19,2.19,0,0,0,2.21,2.09,2.08,2.08,0,0,0,2.13-2.07A2.17,2.17,0,0,0,263.6,160,2.1,2.1,0,0,0,261.45,162Z" style="fill:#263238"></path><path d="M258,157.77c.23.38,2.25-.79,4.77-.38s4.12,2.1,4.45,1.8c.16-.13,0-.79-.73-1.57a6,6,0,0,0-7.36-1.14C258.22,157,257.85,157.59,258,157.77Z" style="fill:#263238"></path><path d="M273.54,176.46c0-.14-1.46-.31-3.83-.5-.6,0-1.17-.12-1.29-.52a3.11,3.11,0,0,1,.31-1.79l1.54-4.62c2.12-6.58,3.63-12,3.36-12.07s-2.2,5.19-4.33,11.77q-.75,2.43-1.46,4.65a3.45,3.45,0,0,0-.19,2.35,1.54,1.54,0,0,0,1,.83,4.8,4.8,0,0,0,1,.09A15.79,15.79,0,0,0,273.54,176.46Z" style="fill:#263238"></path><path d="M273.31,204.15A43,43,0,0,0,295.65,197s-5.44,12-22.45,11.29Z" style="fill:#bf654e"></path><path d="M274.81,182a4.21,4.21,0,0,1,3.69-1.75,3.86,3.86,0,0,1,2.72,1.29,2.43,2.43,0,0,1,.33,2.77,2.84,2.84,0,0,1-3,.93,8.93,8.93,0,0,1-3.07-1.63,2.59,2.59,0,0,1-.7-.66.79.79,0,0,1,0-.87" style="fill:#bf654e"></path><path d="M280.49,177.73c-.38,0-.26,2.53-2.34,4.43s-4.79,1.77-4.79,2.12c0,.16.63.47,1.77.44a6.3,6.3,0,0,0,4-1.63,5.44,5.44,0,0,0,1.8-3.71C281,178.32,280.66,177.7,280.49,177.73Z" style="fill:#263238"></path><path d="M258.18,150.52c.49.5,2.27-.14,4.44-.27s4,.15,4.42-.42c.17-.28-.14-.8-1-1.26a6.77,6.77,0,0,0-3.65-.69,6.61,6.61,0,0,0-3.49,1.25C258.19,149.71,258,150.27,258.18,150.52Z" style="fill:#263238"></path><path d="M288.5,161.66a2.17,2.17,0,0,1-2.07,2.21,2.07,2.07,0,0,1-2.26-1.92,2.17,2.17,0,0,1,2.06-2.22A2.08,2.08,0,0,1,288.5,161.66Z" style="fill:#263238"></path><path d="M291.41,149c-.52.54-2.6,0-5.08,0s-4.59.41-5.09-.13c-.21-.27.11-.81,1-1.32a8.57,8.57,0,0,1,4.12-.92,8.41,8.41,0,0,1,4.07,1C291.35,148.24,291.64,148.78,291.41,149Z" style="fill:#263238"></path><path d="M283.15,126.94c8.44,11.5,17.44,24.5,26.18,35.76,1.52-5.62,2.93-14.11,1.88-19.84a23.92,23.92,0,0,0-8.6-14.76c-4.64-3.53-12.9-4.26-18.3-2.09" style="fill:#263238"></path><path d="M305.43,170.75c-.06-1.26,1.25-4.3,2.49-4.56,3.29-.68,9.29-.71,9.77,7.72.65,11.52-11.05,9.8-11.09,9.47S305.64,175.1,305.43,170.75Z" style="fill:#c78976"></path><path d="M309.87,178.82c.05,0,.21.13.56.26a2,2,0,0,0,1.5-.05c1.19-.52,2.11-2.51,2.05-4.59a6.59,6.59,0,0,0-.73-2.84,2.33,2.33,0,0,0-1.6-1.46,1,1,0,0,0-1.15.62c-.14.33-.05.56-.11.58s-.26-.18-.19-.66a1.26,1.26,0,0,1,.41-.75,1.47,1.47,0,0,1,1.09-.35,2.81,2.81,0,0,1,2.2,1.66,6.81,6.81,0,0,1,.88,3.18c.06,2.32-1,4.56-2.65,5.14a2.15,2.15,0,0,1-1.85-.2C309.91,179.1,309.83,178.84,309.87,178.82Z" style="fill:#bf654e"></path><path d="M279.47,123.74c-7.1.55-15.39,2.74-19.81,8.31s-7,12.45-8.45,19.41a154.14,154.14,0,0,0-2.53,20.11,44.81,44.81,0,0,0-.11,9.26,15,15,0,0,0,3.58,8.39c-1.27-2.73,1.44-7.34,1.18-11.49l1.75-6.91c-.29-5.49,1.83-7.67,2-10.27.13-2-.77-3.83-1.43-5.69s-1.1-4-.13-5.72,3.35-2.55,4.64-4.21c1.47-1.89,1.35-4.61,2.59-6.66,1.74-2.85,5.46-3.58,8.4-5.16,3.81-2.06,8.6-4,9.24-8.32Z" style="fill:#263238"></path><path d="M290.59,157.67c-.24.38-2.28-.84-4.86-.46s-4.26,2.06-4.59,1.75c-.16-.13.05-.8.77-1.58a6.19,6.19,0,0,1,3.61-1.83,6,6,0,0,1,3.94.8C290.35,156.91,290.72,157.49,290.59,157.67Z" style="fill:#263238"></path><path d="M283,177.24c-.14,0-.39-.42-.9-.74s-1-.37-1-.51.64-.37,1.33.08S283.12,177.23,283,177.24Z" style="fill:#bf654e"></path><path d="M327.25,174.12c-.73-3.2-2.71-6-3.27-9.27-.47-2.74.19-5.52.53-8.28a35.67,35.67,0,0,0-17.33-34.44,57.44,57.44,0,0,0-15.12-5.46,16.65,16.65,0,0,0-6.22-.64,6,6,0,0,0-4.88,3.49h0c-2.47,3.41-3.46,8.67-1.5,12.39,2.88,5.44,10.85,6.32,14.1,11.55,3.48,5.6-.07,13.37,2.77,19.33,1.8,3.8,4.45,5,5.89,8.9.72,2-.36,6.76.74,8.59,1.57,2.61,3,5.36,5.68,6.77l-.05,12.37C315.75,197,330.71,189.22,327.25,174.12Z" style="fill:#263238"></path><path d="M347.79,141a9.29,9.29,0,0,1-9.29-1.45c-2.26-1.89-3.51-4.8-5.84-6.61A8.82,8.82,0,0,0,320,135.6l-.44,4.1,5.58,24.1a29.73,29.73,0,0,1,8.17-1.3q-.42-3.47-.83-6.95c.21,2.09,2.43,3.56,4.53,3.52a8.56,8.56,0,0,0,5.54-2.68A17.88,17.88,0,0,0,347.79,141Z" style="fill:#263238"></path><path d="M324,160a4.72,4.72,0,0,1,.14-1.05c.08-.36.15-.77.24-1.21s.16-1,.24-1.61a28.94,28.94,0,0,0-.09-9.37,31.85,31.85,0,0,0-3.29-8.79,39.1,39.1,0,0,1-1.82-3.48,4.5,4.5,0,0,1,.63.85c.37.57.9,1.4,1.51,2.46a28.41,28.41,0,0,1,3.48,8.86,26.74,26.74,0,0,1-.05,9.52c-.12.59-.23,1.12-.32,1.62l-.33,1.2A3.46,3.46,0,0,1,324,160Z" style="fill:#FF725E"></path><path d="M322.9,157.87a2.05,2.05,0,0,1-.56.06,4.73,4.73,0,0,1-1.61-.28,9,9,0,0,1-4.41-4,32.91,32.91,0,0,1-1.81-3.71,19.51,19.51,0,0,0-2.26-4.06,9.12,9.12,0,0,0-4.06-2.93,29.39,29.39,0,0,0-5.36-1.34,36.91,36.91,0,0,1-17.69-8.19,32.94,32.94,0,0,1-4.19-4.24c-.46-.53-.77-1-1-1.28a1.88,1.88,0,0,1-.31-.48s.52.58,1.45,1.62a37.61,37.61,0,0,0,11.64,8.8,37.42,37.42,0,0,0,10.18,3.26,30.09,30.09,0,0,1,5.46,1.37,9.57,9.57,0,0,1,4.25,3.12,19.12,19.12,0,0,1,2.27,4.18,35.62,35.62,0,0,0,1.74,3.69,9,9,0,0,0,4.16,4A6.88,6.88,0,0,0,322.9,157.87Z" style="fill:#455a64"></path><path d="M348.33,148.77s-.07.08-.23.17a3.92,3.92,0,0,1-.76.36,6.27,6.27,0,0,1-3.08.23,10.42,10.42,0,0,1-4.21-1.77A27.48,27.48,0,0,1,336,144a23.68,23.68,0,0,0-4.06-3.65,9.8,9.8,0,0,0-4.1-1.53,6.34,6.34,0,0,0-2.93.33c-.66.26-1,.51-1,.46s.06-.08.22-.2a3.74,3.74,0,0,1,.71-.44,5.9,5.9,0,0,1,3-.51,9.73,9.73,0,0,1,4.33,1.48,23.33,23.33,0,0,1,4.18,3.7,29.82,29.82,0,0,0,4,3.75,10.66,10.66,0,0,0,4,1.8,6.54,6.54,0,0,0,2.95-.06C348,148.92,348.31,148.72,348.33,148.77Z" style="fill:#455a64"></path><path d="M322.8,142.41a10.47,10.47,0,0,0-.91-1.68,8.48,8.48,0,0,0-4.26-2.81,15.33,15.33,0,0,0-3.53-.7c-1.29-.1-2.69-.12-4.17-.19a20.09,20.09,0,0,1-4.62-.68,10.88,10.88,0,0,1-4.35-2.54c-1.27-1.18-2.32-2.48-3.38-3.67a20.75,20.75,0,0,0-3.31-3.15,19,19,0,0,0-12.21-3.59c-1.23.07-1.91.21-1.92.16a1.64,1.64,0,0,1,.48-.13,11.55,11.55,0,0,1,1.43-.23,17.4,17.4,0,0,1,5.29.27,18.34,18.34,0,0,1,7.21,3.14c2.5,1.72,4.32,4.52,6.76,6.81a10.43,10.43,0,0,0,4.15,2.44,19.73,19.73,0,0,0,4.5.69c1.46.08,2.87.12,4.18.24a15.14,15.14,0,0,1,3.6.78,8.53,8.53,0,0,1,4.32,3A4.49,4.49,0,0,1,322.8,142.41Z" style="fill:#fff"></path><path d="M326.66,226.89c.07.08-.08-.08,0,0Z" style="fill:#c78976"></path><path d="M333.59,256.21c-.28-6.75-1.68-21.14-9-29.3-8.79-9.76-19.15-8.79-25.77,2.56-6.75,11.58-3.6,23.6-4.09,29.35-.61,7.09,2.8,32.42,3.37,38.41l.53,21.3s-45.8,47-55.88,52l10.08,16.23c11.76-1.16,65.34-36.79,76.58-58.45C334.05,319.4,333.87,263,333.59,256.21Z" style="fill:#c78976"></path><path d="M294.05,279.92l43.35-8.72s-3.56-27.11-8.34-40.28c-3.72-10.24-15.26-14.1-15.26-14.1l-19.05,11.51s-3.26,15.42-3,29.53S294.05,279.92,294.05,279.92Z" style="fill:#FF725E"></path><path d="M318.17,222.81a3.67,3.67,0,0,1-.74.12l-2.12.24a52.55,52.55,0,0,0-7.68,1.39,18.89,18.89,0,0,0-9.7,5.85c-2.8,3.32-4.41,8-4.95,13s0,9.82.13,14.19l.56,11.62c.14,3.26.25,5.92.33,7.83q0,1.33.06,2.13a3.91,3.91,0,0,1,0,.75,3.58,3.58,0,0,1-.09-.74c0-.54-.1-1.24-.16-2.13-.12-1.9-.29-4.56-.5-7.83s-.42-7.26-.67-11.62-.78-9.19-.17-14.26,2.2-9.84,5.1-13.24a17.39,17.39,0,0,1,4.89-3.93,22.59,22.59,0,0,1,5.08-2,45.7,45.7,0,0,1,7.76-1.24c.93-.08,1.65-.12,2.13-.15A4.27,4.27,0,0,1,318.17,222.81Z" style="fill:#263238"></path><path d="M243,369.5s-11.86-3.59-15.28-3.09-7.26,5.86-7.26,5.86a10.12,10.12,0,0,0,1,2.62s-2.3,7.18,2.52,10c0,0-1.48,3.32,2.88,6.21a9.68,9.68,0,0,0,4.87,3.73s1.25,4.56,4.78,5.11a10.45,10.45,0,0,0,5.83-.59s10.09-7.66,12.74-12.76Z" style="fill:#c78976"></path><path d="M227.07,372.84a16,16,0,0,1-2.66,1.09,16.73,16.73,0,0,1-2.67,1.09,8.26,8.26,0,0,1,5.33-2.18Z" style="fill:#bf654e"></path><path d="M320.5,286.2a11.82,11.82,0,0,1,.38,1.14,7.61,7.61,0,0,0,.59,1.26c.25.45.74.89,1.12,1.49a11.86,11.86,0,0,1,1.9,4.56,11.73,11.73,0,0,1,.18,2.93c-.06,1-.25,2.05-.41,3.09a13.73,13.73,0,0,0-.21,3,7.62,7.62,0,0,0,.69,2.69,12.1,12.1,0,0,0,2.89,3.79,27,27,0,0,0,2.55,2.05,6,6,0,0,1,.95.76,5.38,5.38,0,0,1-1.07-.59,21.44,21.44,0,0,1-2.68-1.94,12.18,12.18,0,0,1-3.07-3.87,7.81,7.81,0,0,1-.77-2.85,14,14,0,0,1,.21-3.15c.16-1,.35-2.06.41-3a11.39,11.39,0,0,0-.14-2.82,12,12,0,0,0-1.73-4.43c-.35-.59-.8-1-1.08-1.55a7.17,7.17,0,0,1-.52-1.35A3.48,3.48,0,0,1,320.5,286.2Z" style="fill:#263238"></path><path d="M323.86,308.17a17,17,0,0,0-2-2.82,10.55,10.55,0,0,0-3-2.18,9.55,9.55,0,0,0-2.07-.73,8.89,8.89,0,0,0-1.13-.19c-.36,0-.48.12-.49.48a6.68,6.68,0,0,0,5.25,5.6,9.43,9.43,0,0,0,3.44,0,2.34,2.34,0,0,1-.89.33,6.6,6.6,0,0,1-2.62.07,6.95,6.95,0,0,1-5.7-5.95,1.05,1.05,0,0,1,.27-.76,1,1,0,0,1,.76-.25,9,9,0,0,1,1.23.21,9.55,9.55,0,0,1,2.16.8,10.21,10.21,0,0,1,3.08,2.36,9,9,0,0,1,1.45,2.17A2.58,2.58,0,0,1,323.86,308.17Z" style="fill:#263238"></path><path d="M326.58,305.72a7.32,7.32,0,0,0,2.63-1.71,5.61,5.61,0,0,0,1.59-2.9,5.17,5.17,0,0,0-.89-3.87c-.12-.17-.25-.31-.37-.45h.38a17.76,17.76,0,0,0-2.62,3,6.58,6.58,0,0,0-1.05,3,6.44,6.44,0,0,0,.33,2.91s-.22-.21-.41-.71a5.46,5.46,0,0,1-.28-2.23,6.82,6.82,0,0,1,1-3.21,17.27,17.27,0,0,1,2.65-3.14l.19-.2.18.2c.14.16.28.32.41.5a5.54,5.54,0,0,1,.95,4.26,5.81,5.81,0,0,1-1.81,3.08A4.46,4.46,0,0,1,326.58,305.72Z" style="fill:#263238"></path><path d="M322.18,301s.14-.36.3-1a5.83,5.83,0,0,0,0-2.75,6.79,6.79,0,0,0-2.08-3.46,9.05,9.05,0,0,0-2-1.39,11.5,11.5,0,0,0-1.18-.54l-.62-.22a.84.84,0,0,0-.48-.09c-.06,0-.11.15-.1.34a5.08,5.08,0,0,0,.08.64,12.79,12.79,0,0,0,.27,1.26,21.39,21.39,0,0,0,.8,2.34c.3.73.61,1.42.89,2.07a9,9,0,0,0,.89,1.7,3.16,3.16,0,0,0,2.27,1.35,1.87,1.87,0,0,0,.95-.25s-.21.42-.95.46a3.31,3.31,0,0,1-2.56-1.34,8.79,8.79,0,0,1-1-1.74c-.3-.64-.63-1.33-.94-2.07a20.69,20.69,0,0,1-.85-2.38,13.39,13.39,0,0,1-.29-1.32,4.76,4.76,0,0,1-.09-.7.83.83,0,0,1,.41-.84,1.29,1.29,0,0,1,.86.07l.64.24a11.54,11.54,0,0,1,1.23.57,9.42,9.42,0,0,1,2.08,1.49,7,7,0,0,1,2.11,3.73,5.66,5.66,0,0,1-.16,2.89A2.37,2.37,0,0,1,322.18,301Z" style="fill:#263238"></path><path d="M326.68,296.89a4.63,4.63,0,0,0,.8-.51,4.69,4.69,0,0,0,1.19-2.27,13.71,13.71,0,0,0,.23-6.14c-.08-.39-.17-.79-.29-1.18a4.08,4.08,0,0,0-.44-1.1c-.24-.28-.35-.27-.59.06s-.43.69-.61,1a12.14,12.14,0,0,0-1.39,6,21.15,21.15,0,0,0,.51,3.58,2.88,2.88,0,0,1-.39-.91,10.54,10.54,0,0,1-.49-2.65,12.2,12.2,0,0,1,.43-4,13.06,13.06,0,0,1,.87-2.22c.19-.37.41-.73.64-1.1a1,1,0,0,1,.67-.49.89.89,0,0,1,.77.41,12.44,12.44,0,0,1,.43,8.83,4.5,4.5,0,0,1-1.41,2.32A1.35,1.35,0,0,1,326.68,296.89Z" style="fill:#263238"></path><path d="M323.43,290.68a11.86,11.86,0,0,0,.1-3.79,10.25,10.25,0,0,0-1.39-3.82c-.39-.68-.83-1.37-1.31-2.07l-.37-.53a2.6,2.6,0,0,0-.34-.46c-.09-.06-.11-.06-.26.06a5.88,5.88,0,0,0-.38.5,7.71,7.71,0,0,0-1.33,4.68,6.59,6.59,0,0,0,.42,2.1,5.62,5.62,0,0,0,1,1.6,9.26,9.26,0,0,0,2.11,1.77,4.69,4.69,0,0,1,.87.56,3.4,3.4,0,0,1-1-.39,8.37,8.37,0,0,1-2.29-1.69c-1.8-1.72-2.38-5.78-.22-8.93a5.32,5.32,0,0,1,.45-.57.91.91,0,0,1,.41-.24.62.62,0,0,1,.52.14,2.41,2.41,0,0,1,.46.58l.36.53c.48.72.92,1.42,1.31,2.12a13.28,13.28,0,0,1,.92,2.07,9.54,9.54,0,0,1,.3,4.79A2.6,2.6,0,0,1,323.43,290.68Z" style="fill:#263238"></path><path d="M328.75,300.87a4.66,4.66,0,0,1-.63,2.6c-.63,1.37-1.5,2.24-1.61,2.15a16.84,16.84,0,0,1,1.14-2.37A14.19,14.19,0,0,1,328.75,300.87Z" style="fill:#263238"></path><path d="M324,308.45a4.8,4.8,0,0,1-2.88-1.12,7.14,7.14,0,0,1-2.26-2.09,12.92,12.92,0,0,1,2.55,1.66C322.75,307.86,324,308.31,324,308.45Z" style="fill:#263238"></path><path d="M327.42,290.25a7.4,7.4,0,0,1,0,3.33,7.21,7.21,0,0,1-1,3.17,21.4,21.4,0,0,1,.52-3.25A21.14,21.14,0,0,1,327.42,290.25Z" style="fill:#263238"></path><path d="M322,301.06a29.12,29.12,0,0,1-1.42-2.86,31.21,31.21,0,0,1-1.55-2.79,6.11,6.11,0,0,1,2,2.54A6.39,6.39,0,0,1,322,301.06Z" style="fill:#263238"></path><path d="M315.64,287.29c0-.06.29-.16.59.16a.7.7,0,0,1,.12.74.81.81,0,0,1-.77.52.82.82,0,0,1-.75-.56.73.73,0,0,1,.17-.74c.32-.3.62-.18.6-.12s-.2.13-.31.35a.37.37,0,0,0,0,.34.36.36,0,0,0,.64,0,.4.4,0,0,0,0-.34C315.83,287.43,315.64,287.37,315.64,287.29Z" style="fill:#263238"></path><path d="M330.3,293.39c0-.07.29-.17.59.15a.7.7,0,0,1,.12.74.8.8,0,0,1-1.52,0,.73.73,0,0,1,.17-.74c.32-.3.62-.18.6-.11s-.2.12-.31.34a.37.37,0,0,0,0,.34.39.39,0,0,0,.31.22.42.42,0,0,0,.33-.2.4.4,0,0,0,0-.34C330.49,293.53,330.3,293.46,330.3,293.39Z" style="fill:#263238"></path><path d="M321.62,311.37c0-.06.51-.18,1,.41a1.2,1.2,0,0,1,.18,1.25,1.35,1.35,0,0,1-2.55-.07,1.24,1.24,0,0,1,.26-1.25c.52-.55,1.06-.4,1-.34s-.42.1-.73.57a.87.87,0,0,0-.1.85.9.9,0,0,0,1.67,0,.88.88,0,0,0-.05-.85C322,311.5,321.6,311.45,321.62,311.37Z" style="fill:#263238"></path><path d="M322.3,302.43c0-.07.17-.16.37,0a.46.46,0,0,1,.1.47.53.53,0,0,1-.5.35.52.52,0,0,1-.48-.38.42.42,0,0,1,.12-.46c.21-.17.39-.07.37,0s-.08.14-.08.23.08.07.08.1.09,0,.09-.1S322.3,302.5,322.3,302.43Z" style="fill:#263238"></path><path d="M325.82,280c0-.06.63-.18,1.22.53a1.52,1.52,0,0,1,.21,1.52,1.72,1.72,0,0,1-1.58,1.05,1.69,1.69,0,0,1-1.5-1.14,1.5,1.5,0,0,1,.3-1.51c.63-.68,1.29-.51,1.25-.45s-.54.09-1,.68a1.17,1.17,0,0,0-.15,1.11,1.3,1.3,0,0,0,1.08.79,1.28,1.28,0,0,0,1.12-.72,1.16,1.16,0,0,0-.07-1.12C326.35,280.13,325.8,280.09,325.82,280Z" style="fill:#263238"></path><path d="M224.82,303.38c0-.39.21-4.13,2.53-5.71s9.25-2.11,9.25-2.11l6,5.47s-.05,2.83-4.15,2.88c0,0,8.65,4.11,8.83,6.66a5.45,5.45,0,0,1-1.36,4.08s3.95,1.38,3.25,4.12a3.2,3.2,0,0,1-3.27,2.56s1.31,3.88-3.18,3.82-11.44-1.85-11.44-1.85a2.3,2.3,0,0,0,2.37,2.55,10,10,0,0,1,4.6,1.3s.87,3.15-2.08,3.24-5.59.79-8.51-.53-5.5-1.52-5.44-4.22.4-3.24.4-3.24-2.2-3.17-1-5.18l1.15-2s-2.53-3-1.16-5.31,3.23-4.86,3.23-4.86Z" style="fill:#c78976"></path><path d="M246,314.52a15,15,0,0,1-2.58-.86c-1.57-.57-3.73-1.37-6.15-2.19s-4.61-1.52-6.2-2a13.74,13.74,0,0,1-2.56-.9,13.61,13.61,0,0,1,2.66.55c1.62.41,3.85,1.06,6.27,1.89s4.58,1.67,6.12,2.34A11.93,11.93,0,0,1,246,314.52Z" style="fill:#bf654e"></path><path d="M246.51,321.29a80.94,80.94,0,0,1-9-2.51,84.71,84.71,0,0,1-8.86-3,84.36,84.36,0,0,1,9,2.51A88.68,88.68,0,0,1,246.51,321.29Z" style="fill:#bf654e"></path><path d="M242.58,305.31a23.57,23.57,0,0,1-4.86-1.28,24.38,24.38,0,0,1-4.69-1.77,23.74,23.74,0,0,1,4.85,1.28A25,25,0,0,1,242.58,305.31Z" style="fill:#bf654e"></path></g><g id="freepik--character-1--inject-2"><path d="M157.92,368.12l-44.55,12c-12.13,1.11-42.26,4.05-42.26,4.05l3.8,65.08H112v0h41.29S166.2,415,167,403.52C168.46,381.23,157.92,368.12,157.92,368.12Z" style="fill:#263238"></path><path d="M106.5,391.74a3,3,0,0,1-.52.4l-1.56,1.06c-1.34.93-3.31,2.23-5.58,4.05A30.65,30.65,0,0,0,92,404.68a20.29,20.29,0,0,0-2.4,5.46,36.56,36.56,0,0,0-1,6.36c-.65,8.86-1.23,16.87-1.66,22.75-.24,2.87-.42,5.2-.56,6.9-.08.77-.13,1.39-.18,1.87a3.08,3.08,0,0,1-.1.65,2.78,2.78,0,0,1,0-.66l.08-1.88.39-6.9c.36-5.83.86-13.88,1.51-22.78A36.34,36.34,0,0,1,89.06,410a20.47,20.47,0,0,1,2.48-5.58A30.3,30.3,0,0,1,98.61,397c2.32-1.81,4.33-3.06,5.7-3.94.7-.44,1.24-.76,1.61-1A2.62,2.62,0,0,1,106.5,391.74Z" style="fill:#455a64"></path><path d="M87.18,405.74a7.22,7.22,0,0,1-1.84-.88,44.7,44.7,0,0,1-4.14-2.67,45.67,45.67,0,0,1-3.84-3.07,7.69,7.69,0,0,1-1.43-1.47c.1-.11,2.47,1.9,5.57,4.12S87.26,405.61,87.18,405.74Z" style="fill:#455a64"></path><path d="M144,447.88a5.78,5.78,0,0,1,.32-.7c.25-.49.59-1.13,1-1.94.23-.42.47-.89.74-1.39s.51-1.09.79-1.7c.56-1.23,1.26-2.59,1.86-4.18l1-2.46c.34-.85.63-1.77,1-2.71.7-1.86,1.26-3.92,1.9-6.06a103.23,103.23,0,0,0,2.73-14.28,102.43,102.43,0,0,0,.48-14.53c-.15-2.23-.24-4.36-.51-6.33-.13-1-.2-2-.35-2.86s-.3-1.78-.43-2.62c-.24-1.68-.62-3.16-.89-4.48-.15-.65-.27-1.27-.41-1.83s-.28-1.06-.4-1.52c-.23-.88-.42-1.58-.55-2.11a4.27,4.27,0,0,1-.16-.75,4.29,4.29,0,0,1,.26.71c.16.53.37,1.23.64,2.09.14.46.29,1,.45,1.52s.29,1.17.45,1.83c.3,1.31.71,2.8,1,4.48.15.83.3,1.71.47,2.62s.24,1.88.37,2.87c.29,2,.41,4.12.57,6.36a90.37,90.37,0,0,1-3.23,29c-.65,2.15-1.23,4.21-1.95,6.07-.35.94-.64,1.86-1,2.72l-1,2.46c-.63,1.58-1.35,2.94-1.93,4.15-.31.61-.57,1.18-.84,1.69l-.78,1.38c-.45.79-.81,1.42-1.09,1.89A4.38,4.38,0,0,1,144,447.88Z" style="fill:#455a64"></path><path d="M139.55,329.59,164,258.15l-2.15-24.63a15.73,15.73,0,0,0-5.27-10.43L142,210.32,107.22,214,92.38,240.81,72.1,268.92a22.78,22.78,0,0,0-3.66,15.18c1,8.8,4.27,15.94,4.66,21.56.51,7.43-1.09,44.1-1.09,44.1l-1.82,40.81s93.44-12,89.08-21.78S139.55,329.59,139.55,329.59Z" style="fill:#FF725E"></path><g style="opacity:0.30000000000000004"><path d="M146.14,340.4A2.42,2.42,0,0,0,144.9,339a2.39,2.39,0,0,0-1.48.17C119.9,347,96,355.06,75.81,369.5a17.88,17.88,0,0,0-4.09,3.66,6.35,6.35,0,0,0-1,5.11c7.46,2.9,16.13,2.3,23.84.17s14.92-5.72,22.27-8.87c9.92-4.25,20.55-8,28-15.8a11.08,11.08,0,0,0,3.26-5.57C148.53,345.51,147.32,342.86,146.14,340.4Z"></path></g><path d="M159.84,226.89Z" style="fill:#c78976"></path><path d="M166.78,256.21c-.28-6.75-1.69-21.14-9-29.3-8.8-9.76-19.16-8.79-25.77,2.56-6.75,11.58-3.61,23.6-4.1,29.35-.6,7.09,2.8,32.42,3.37,38.41l1.51,18.84S98,348.38,78.25,353.17l1.81,21.47c20.36,0,69.14-22.05,82.81-50.53C168.61,312.15,167.06,263,166.78,256.21Z" style="fill:#c78976"></path><path d="M109.09,303.38a6.46,6.46,0,0,1-1.34-.06,19,19,0,0,1-3.59-.76,21,21,0,0,1-14.72-17.65,19,19,0,0,1-.1-3.66,5.43,5.43,0,0,1,.18-1.33,38.22,38.22,0,0,0,.28,4.94,21.52,21.52,0,0,0,14.48,17.35A38.08,38.08,0,0,0,109.09,303.38Z" style="fill:#263238"></path><path d="M127.23,279.92l43.35-8.72s-3.56-27.11-8.34-40.28c-3.71-10.24-15.25-14.1-15.25-14.1l-19.06,11.51s-3.26,15.42-3,29.53S127.23,279.92,127.23,279.92Z" style="fill:#FF725E"></path><path d="M151.35,222.81a3.64,3.64,0,0,1-.73.12l-2.12.24a52.64,52.64,0,0,0-7.69,1.39,18.89,18.89,0,0,0-9.7,5.85c-2.8,3.32-4.4,8-4.94,13s0,9.82.13,14.19.39,8.29.55,11.62.25,5.92.33,7.83c0,.89,0,1.6.07,2.13a3.33,3.33,0,0,1,0,.75,7.2,7.2,0,0,1-.09-.74c0-.54-.09-1.24-.16-2.13-.12-1.9-.29-4.56-.49-7.83s-.42-7.26-.67-11.62-.79-9.19-.17-14.26,2.19-9.84,5.1-13.24a17.21,17.21,0,0,1,4.88-3.93,22.47,22.47,0,0,1,5.09-2,45.55,45.55,0,0,1,7.76-1.24c.92-.08,1.64-.12,2.13-.15A4.13,4.13,0,0,1,151.35,222.81Z" style="fill:#263238"></path><g style="opacity:0.30000000000000004"><path d="M72,341.16a7.84,7.84,0,0,0,8.57-.7,15.4,15.4,0,0,0,2.48-2.8l5.55-7.35c1.19-1.57,2.44-3.36,2.23-5.32-.17-1.61-1.3-2.94-2.38-4.15l-6.63-7.48c-1.82-2-4.24-4.28-6.88-3.59-2.4.63-3.52,3.36-4.09,5.79a45,45,0,0,0,1.59,25.56"></path></g><path d="M63.08,314.79c-.1-.37-.62-4.08,1.34-6.09s7.15-4.81,7.15-4.81l8.48,5.05s.52,2.78-3.5,3.65c0,0,9.3,2.3,10,4.76a5.41,5.41,0,0,1-.52,4.27s4.15.56,4,3.39a3.21,3.21,0,0,1-2.7,3.16s2.06,3.54-2.35,4.38-11.57.47-11.57.47a2.3,2.3,0,0,0,2.83,2,9.85,9.85,0,0,1,4.76.35s1.48,2.91-1.39,3.59-5.31,1.9-8.44,1.18-5.7-.39-6.18-3-.25-3.26-.25-3.26S62,331.2,62.68,329l.73-2.2s-3.09-2.45-2.2-5,2.2-5.41,2.2-5.41Z" style="fill:#c78976"></path><path d="M78.35,313a23.5,23.5,0,0,1-4.9-.59,23.74,23.74,0,0,1-4.82-1.09,23.86,23.86,0,0,1,4.9.58A22.59,22.59,0,0,1,78.35,313Z" style="fill:#bf654e"></path><path d="M86,321.49a16.38,16.38,0,0,1-2.69-.33c-1.65-.25-3.94-.59-6.47-.92s-4.82-.57-6.48-.74a16.12,16.12,0,0,1-2.69-.37,13,13,0,0,1,2.72,0c1.67.08,4,.27,6.52.6s4.82.73,6.46,1.07A12.92,12.92,0,0,1,86,321.49Z" style="fill:#bf654e"></path><path d="M87.91,328a81.61,81.61,0,0,1-9.33-.66,82.78,82.78,0,0,1-9.28-1.18,87.34,87.34,0,0,1,9.33.66A85.22,85.22,0,0,1,87.91,328Z" style="fill:#bf654e"></path><path d="M81.32,351.85s-8.92-8.59-12.19-9.7S60,344.07,60,344.07a10.26,10.26,0,0,0-.28,2.79s-5.31,5.34-2.31,10.06c0,0-2.83,2.28-.25,6.84a9.55,9.55,0,0,0,2.63,5.54s-1,4.63,1.93,6.72a10.44,10.44,0,0,0,5.46,2.13s12.47-2.24,17.16-5.57Z" style="fill:#c78976"></path><path d="M65.61,347.57a16.4,16.4,0,0,1-2.87-.24,18,18,0,0,1-2.87-.24,5.54,5.54,0,0,1,2.91-.28A5.6,5.6,0,0,1,65.61,347.57Z" style="fill:#bf654e"></path><g style="opacity:0.30000000000000004"><path d="M90.9,290.22c1.26,5.1,3.47,10.19,7.51,13.53s10.25,4.46,14.61,1.54c0,0-7.19-2.2-11.37-3.93S92,294.62,90.9,290.22"></path></g><path d="M155.39,284.26s.13.42.38,1.15a6.88,6.88,0,0,0,.59,1.26c.25.45.74.89,1.12,1.48a11.88,11.88,0,0,1,2.08,7.5c-.06,1-.25,2-.41,3.09a13.64,13.64,0,0,0-.21,3,7.62,7.62,0,0,0,.69,2.69,12.12,12.12,0,0,0,2.89,3.8,30.7,30.7,0,0,0,2.55,2.05,5.35,5.35,0,0,1,.94.75,5.9,5.9,0,0,1-1.06-.59,21.44,21.44,0,0,1-2.68-1.94,11.89,11.89,0,0,1-3.07-3.86,7.86,7.86,0,0,1-.77-2.86,13.89,13.89,0,0,1,.2-3.14c.17-1.06.35-2.07.42-3.05a11.31,11.31,0,0,0-.14-2.81,12.09,12.09,0,0,0-1.73-4.44c-.35-.59-.8-1-1.08-1.55a6.48,6.48,0,0,1-.52-1.34A3.52,3.52,0,0,1,155.39,284.26Z" style="fill:#263238"></path><path d="M158.75,306.23a17,17,0,0,0-2-2.82,10.55,10.55,0,0,0-3-2.18,10.11,10.11,0,0,0-2.07-.73,7.58,7.58,0,0,0-1.13-.18c-.36,0-.48.11-.49.48a6.69,6.69,0,0,0,5.25,5.59,9.43,9.43,0,0,0,3.44,0,2.15,2.15,0,0,1-.89.33,6.6,6.6,0,0,1-2.62.07,6.71,6.71,0,0,1-3.49-1.71,6.83,6.83,0,0,1-2.21-4.24,1.05,1.05,0,0,1,.27-.76,1,1,0,0,1,.76-.24,7.38,7.38,0,0,1,1.22.21,10.13,10.13,0,0,1,2.17.79,10.37,10.37,0,0,1,3.08,2.36,9,9,0,0,1,1.45,2.17A3,3,0,0,1,158.75,306.23Z" style="fill:#263238"></path><path d="M161.47,303.78a7.32,7.32,0,0,0,2.63-1.71,5.57,5.57,0,0,0,1.59-2.9,5.17,5.17,0,0,0-.89-3.87c-.12-.16-.25-.31-.37-.45h.38a17.71,17.71,0,0,0-2.62,3,6.62,6.62,0,0,0-1.05,3,6.27,6.27,0,0,0,.33,2.91s-.22-.2-.41-.7a5.52,5.52,0,0,1-.28-2.24,7,7,0,0,1,1-3.21,17.75,17.75,0,0,1,2.66-3.14l.19-.2.18.21a5.21,5.21,0,0,1,.41.5,5.59,5.59,0,0,1,.95,4.26,5.84,5.84,0,0,1-1.81,3.07A4.34,4.34,0,0,1,161.47,303.78Z" style="fill:#263238"></path><path d="M157.07,299.06s.14-.35.3-1a5.88,5.88,0,0,0,0-2.76,6.79,6.79,0,0,0-2.08-3.46,9.78,9.78,0,0,0-2-1.39c-.38-.19-.77-.37-1.18-.53l-.62-.23a.94.94,0,0,0-.48-.09c-.06,0-.11.15-.11.35a5.3,5.3,0,0,0,.09.63,10.6,10.6,0,0,0,.27,1.27,21.21,21.21,0,0,0,.8,2.33c.3.73.6,1.42.89,2.07a9.09,9.09,0,0,0,.89,1.71,3.23,3.23,0,0,0,2.27,1.35,1.81,1.81,0,0,0,.95-.26s-.21.42-.95.46a3.28,3.28,0,0,1-2.56-1.33,9.17,9.17,0,0,1-1-1.75c-.31-.64-.63-1.33-.94-2.07a20.69,20.69,0,0,1-.85-2.38,13.18,13.18,0,0,1-.3-1.31c0-.24-.07-.44-.09-.71a.84.84,0,0,1,.42-.83,1.14,1.14,0,0,1,.85.07l.65.23a11.54,11.54,0,0,1,1.23.57,9.66,9.66,0,0,1,2.08,1.49,7,7,0,0,1,2.11,3.73,5.65,5.65,0,0,1-.16,2.89A2.54,2.54,0,0,1,157.07,299.06Z" style="fill:#263238"></path><path d="M161.57,295a3.41,3.41,0,0,0,2-2.78,13.05,13.05,0,0,0,.48-3.86,12.23,12.23,0,0,0-.25-2.28,8.82,8.82,0,0,0-.29-1.18,3.7,3.7,0,0,0-.43-1.09c-.24-.29-.36-.28-.59.06a10.87,10.87,0,0,0-.61,1,12.14,12.14,0,0,0-1.39,6,21.41,21.41,0,0,0,.51,3.59,2.75,2.75,0,0,1-.39-.91,10.73,10.73,0,0,1-.49-2.66,12.23,12.23,0,0,1,.43-4,13.06,13.06,0,0,1,.87-2.22c.19-.37.41-.73.64-1.09a.94.94,0,0,1,.67-.49.87.87,0,0,1,.77.41,12.49,12.49,0,0,1,.43,8.83,4.5,4.5,0,0,1-1.41,2.32A1.36,1.36,0,0,1,161.57,295Z" style="fill:#263238"></path><path d="M158.32,288.74a11.81,11.81,0,0,0,.1-3.78,10.33,10.33,0,0,0-1.4-3.83c-.38-.68-.82-1.36-1.3-2.07l-.37-.53a3,3,0,0,0-.34-.46c-.09-.06-.11-.06-.26.07a4.18,4.18,0,0,0-.38.49,7.67,7.67,0,0,0-1.33,4.68,6.71,6.71,0,0,0,.42,2.11,6.15,6.15,0,0,0,1,1.6,9.4,9.4,0,0,0,2.12,1.76,5.2,5.2,0,0,1,.87.56,3,3,0,0,1-1-.38,8.24,8.24,0,0,1-2.29-1.7c-1.81-1.71-2.38-5.77-.22-8.92a4.55,4.55,0,0,1,.45-.58.9.9,0,0,1,.41-.23.65.65,0,0,1,.52.13,2.62,2.62,0,0,1,.46.58l.36.54c.48.71.92,1.42,1.3,2.12a13.36,13.36,0,0,1,.93,2.07,8.76,8.76,0,0,1,.41,1.94,9.21,9.21,0,0,1-.11,2.85A2.49,2.49,0,0,1,158.32,288.74Z" style="fill:#263238"></path><path d="M163.63,298.93a4.54,4.54,0,0,1-.62,2.61c-.63,1.36-1.5,2.23-1.61,2.14a16.46,16.46,0,0,1,1.14-2.36A16.14,16.14,0,0,1,163.63,298.93Z" style="fill:#263238"></path><path d="M158.87,306.51A4.73,4.73,0,0,1,156,305.4a7.4,7.4,0,0,1-2.26-2.09,11.9,11.9,0,0,1,2.55,1.66C157.64,305.92,158.9,306.38,158.87,306.51Z" style="fill:#263238"></path><path d="M162.31,288.31a7.32,7.32,0,0,1,0,3.33,7.06,7.06,0,0,1-1,3.17,21.4,21.4,0,0,1,.52-3.25A21.14,21.14,0,0,1,162.31,288.31Z" style="fill:#263238"></path><path d="M156.87,299.12a27.81,27.81,0,0,1-1.42-2.86,31.21,31.21,0,0,1-1.55-2.79,8.89,8.89,0,0,1,3,5.65Z" style="fill:#263238"></path><path d="M150.53,285.36c0-.07.29-.17.59.15a.73.73,0,0,1,.12.75.84.84,0,0,1-.78.52.83.83,0,0,1-.74-.57.71.71,0,0,1,.17-.73c.32-.31.62-.19.6-.12s-.2.13-.31.34a.37.37,0,0,0,0,.34.39.39,0,0,0,.31.22.4.4,0,0,0,.32-.2.34.34,0,0,0,0-.34C150.72,285.5,150.52,285.43,150.53,285.36Z" style="fill:#263238"></path><path d="M165.19,291.45c0-.06.29-.17.59.15a.73.73,0,0,1,.12.75.84.84,0,0,1-.78.52.83.83,0,0,1-.74-.57.71.71,0,0,1,.17-.73c.32-.3.62-.18.6-.12s-.2.13-.31.35a.35.35,0,0,0,0,.33.37.37,0,0,0,.31.22.38.38,0,0,0,.32-.2.34.34,0,0,0,0-.34C165.38,291.59,165.18,291.52,165.19,291.45Z" style="fill:#263238"></path><path d="M156.51,309.44c0-.06.51-.18,1,.4a1.24,1.24,0,0,1,.18,1.26,1.43,1.43,0,0,1-1.3.87,1.41,1.41,0,0,1-1.25-1,1.24,1.24,0,0,1,.26-1.25c.52-.55,1.06-.39,1-.34s-.42.1-.73.57a.88.88,0,0,0-.1.85,1,1,0,0,0,.81.6,1,1,0,0,0,.86-.55.88.88,0,0,0,0-.85C156.92,309.56,156.49,309.51,156.51,309.44Z" style="fill:#263238"></path><path d="M157.19,300.49c0-.07.17-.16.37,0a.45.45,0,0,1,.1.47.52.52,0,0,1-1,0,.46.46,0,0,1,.13-.47c.21-.17.39-.07.37,0s-.08.14-.08.23.08.07.08.1.09,0,.09-.1S157.19,300.56,157.19,300.49Z" style="fill:#263238"></path><path d="M160.71,278.07c0-.05.63-.18,1.22.54a1.52,1.52,0,0,1,.21,1.52,1.64,1.64,0,0,1-3.09-.1,1.48,1.48,0,0,1,.31-1.5c.63-.68,1.28-.51,1.24-.46s-.53.09-.95.68a1.17,1.17,0,0,0-.15,1.11,1.18,1.18,0,0,0,2.2.07,1.14,1.14,0,0,0-.08-1.12C161.24,278.2,160.69,278.15,160.71,278.07Z" style="fill:#263238"></path><path d="M117.35,128v-6.59c-8.78-7.76-20.14-4.84-23.86,1.17a115.16,115.16,0,0,1-7.26,11c-2.51,3.12-6.85,4.93-8,8.77s1.32,8-.29,11.49c-1.2,2.64-4.36,4-5.4,6.75-1.88,4.88,4.12,10.46,1.77,15.12-1.28,2.51-4.52,3.51-5.88,6-1.62,2.95.08,6.52,1.1,9.74a23.64,23.64,0,0,1-2.22,19c3.88-.51,12.46-1.9,16.34-2.41,1.2-.15,1.77-7.89,1.77-7.89l2.89,7.89S100,206,104.6,205.44c1.48-.2,3.1-.46,4.08-1.58s1-3,.94-4.53C108.38,174.19,118.58,153.09,117.35,128Z" style="fill:#263238"></path><path d="M137.38,136,116,127.43l-5.58.62c-12.57,0-21.3,13.8-21.43,24-.15,11.31.12,25.12,1.88,33.46,3.53,16.78,16.6,18.28,16.6,18.28s-.15,4.58-.29,10.21c0,0-11.43,30.51-10.42,30.51l45.94-32,.27-70.69A6,6,0,0,0,137.38,136Z" style="fill:#c78976"></path><path d="M92.31,162.25c.27.34,2.13-1,4.66-.87s4.3,1.6,4.59,1.27c.14-.14-.12-.75-.89-1.44A6.1,6.1,0,0,0,97,159.78a5.86,5.86,0,0,0-3.73,1.11C92.47,161.5,92.17,162.09,92.31,162.25Z" style="fill:#263238"></path><path d="M107.74,176.07a15.71,15.71,0,0,0-3.83-.49c-.6,0-1.17-.13-1.29-.53a3.07,3.07,0,0,1,.31-1.78l1.54-4.63c2.12-6.58,3.63-12,3.36-12.07s-2.2,5.19-4.33,11.77q-.75,2.43-1.46,4.65a3.47,3.47,0,0,0-.19,2.36,1.55,1.55,0,0,0,1,.82,4.23,4.23,0,0,0,1,.09A15.18,15.18,0,0,0,107.74,176.07Z" style="fill:#263238"></path><path d="M107.51,203.77a43.08,43.08,0,0,0,22.34-7.18s-5.44,12-22.45,11.29Z" style="fill:#bf654e"></path><path d="M109,183a6.74,6.74,0,0,0,2.67,1.34c1.26.29,3.95-.41,4.6-1.43a2.72,2.72,0,0,0-.36-3.09,4.25,4.25,0,0,0-3-1.43,4.67,4.67,0,0,0-4.11,1.95S107.56,182.13,109,183Z" style="fill:#bf654e"></path><path d="M115,176.63c-.38,0-.26,2.54-2.34,4.44s-4.79,1.77-4.79,2.12c0,.16.63.46,1.77.44a6.3,6.3,0,0,0,4-1.63,5.48,5.48,0,0,0,1.8-3.71C115.48,177.23,115.16,176.61,115,176.63Z" style="fill:#263238"></path><path d="M91.86,150.25c.53.5,2.5-.15,4.9-.29s4.45.13,4.89-.45c.2-.28-.15-.79-1.07-1.25a8.56,8.56,0,0,0-7.89.59C91.87,149.44,91.62,150,91.86,150.25Z" style="fill:#263238"></path><path d="M125.07,161.31c-.24.39-2.28-.84-4.86-.46s-4.26,2.06-4.59,1.76c-.16-.14,0-.8.77-1.58a6.14,6.14,0,0,1,3.61-1.84,6,6,0,0,1,3.94.8C124.83,160.55,125.2,161.13,125.07,161.31Z" style="fill:#263238"></path><path d="M126.87,150.84c-.52.54-2.57,0-5,0s-4.55.41-5-.14c-.21-.26.11-.8,1-1.31a8.43,8.43,0,0,1,4.08-.92,8.31,8.31,0,0,1,4,1C126.81,150,127.1,150.58,126.87,150.84Z" style="fill:#263238"></path><path d="M117.35,126.56c8.44,11.49,17.44,24.49,26.18,35.75,1.52-5.62,2.93-14.11,1.88-19.84a23.92,23.92,0,0,0-8.6-14.76c-4.64-3.52-12.9-4.26-18.3-2.08" style="fill:#263238"></path><path d="M139.63,170.37c-.06-1.26,1.25-4.31,2.49-4.56,3.29-.69,9.29-.72,9.77,7.71.65,11.53-11,9.81-11.09,9.48S139.84,174.71,139.63,170.37Z" style="fill:#c78976"></path><path d="M144.07,178.43c.05,0,.21.13.56.27a2,2,0,0,0,1.5-.06c1.19-.51,2.11-2.51,2.05-4.59a6.63,6.63,0,0,0-.73-2.84,2.31,2.31,0,0,0-1.6-1.45,1,1,0,0,0-1.15.61c-.14.33,0,.56-.11.58s-.26-.18-.19-.66a1.26,1.26,0,0,1,.41-.75,1.51,1.51,0,0,1,1.09-.35,2.81,2.81,0,0,1,2.2,1.67A6.74,6.74,0,0,1,149,174c.06,2.33-1,4.57-2.65,5.14a2.14,2.14,0,0,1-1.85-.2C144.11,178.71,144,178.45,144.07,178.43Z" style="fill:#bf654e"></path><path d="M168,193.25c1.41-4.57,5.27-8.72,4.38-13.42-1-5.28-7.54-8.11-8.54-13.38-.92-4.85,3.27-9.79,1.74-14.48s-8-6.23-10.08-10.75c-1-2.18-.84-4.72-1.58-7-1.29-4-5-6.55-8.67-8.64a129,129,0,0,0-14.86-7.36c-3.09-1.29-6.42-2.49-9.71-1.91s-7.89,4.78-7.39,8.09c-1.35,3.38,3.14,7.94,5.54,10.67s5.58,4.66,8.31,7.07,5.13,5.63,5.11,9.27-2.57,7.38-1.64,11,5.27,5.9,6.16,9.65c1,4.31-2.86,8.17-3.77,12.5-.82,3.91.84,7.85,2.09,11.64s2,8.26-.28,11.53a274.09,274.09,0,0,0,36.36-1.12A13.81,13.81,0,0,1,168,193.25Z" style="fill:#263238"></path><path d="M113.67,123.35c-7.1.56-15.39,2.74-19.81,8.32s-7,12.44-8.45,19.4a154.29,154.29,0,0,0-2.53,20.12,44.71,44.71,0,0,0-.11,9.25,15,15,0,0,0,3.58,8.39c-1.27-2.73,1.44-7.34,1.18-11.49l1.75-6.91c-.29-5.49,1.83-7.66,2-10.27.13-2-.77-3.83-1.43-5.68s-1.1-4-.13-5.72,3.35-2.56,4.64-4.22c1.47-1.89,1.35-4.61,2.59-6.65,1.74-2.86,5.46-3.58,8.4-5.17,3.81-2.05,8.6-4,9.24-8.32Z" style="fill:#263238"></path><path d="M149.75,206.87s.22-.29.49-.9a5.34,5.34,0,0,0,.38-2.88,8.63,8.63,0,0,0-1.8-4.22c-1.07-1.48-2.62-2.89-4.08-4.72a11.82,11.82,0,0,1-1.83-3.19,6.59,6.59,0,0,1-.19-4c.71-2.73,2.95-4.92,3.61-7.84a7.85,7.85,0,0,0-.48-4.46,22.37,22.37,0,0,0-2.32-4.25A29.83,29.83,0,0,1,141,166a10.71,10.71,0,0,1-.81-5.23c.31-3.59,1.73-6.83,2-10.1a8.69,8.69,0,0,0-.68-4.65,8.93,8.93,0,0,0-3-3.38c-2.48-1.73-5.34-2.44-7.88-3.43a29.78,29.78,0,0,1-14.31-11.44,28.38,28.38,0,0,1-1.49-2.59l-.34-.7-.1-.24s.06.07.15.22.22.4.38.67c.33.6.85,1.46,1.57,2.52a31.36,31.36,0,0,0,7.65,7.69,30.47,30.47,0,0,0,6.64,3.47c2.52,1,5.42,1.66,8,3.44a8.5,8.5,0,0,1,3.92,8.47c-.3,3.38-1.72,6.62-2,10.09a10.14,10.14,0,0,0,.77,5,27.94,27.94,0,0,0,2.51,4.35,22.64,22.64,0,0,1,2.35,4.35,8.33,8.33,0,0,1,.49,4.74,14.09,14.09,0,0,1-1.87,4.12,16,16,0,0,0-1.8,3.73,6.21,6.21,0,0,0,.16,3.75,11.77,11.77,0,0,0,1.74,3.09c1.41,1.81,3,3.26,4,4.78a8.75,8.75,0,0,1,1.78,4.37,5.42,5.42,0,0,1-.49,2.94A3.17,3.17,0,0,1,149.75,206.87Z" style="fill:#455a64"></path><path d="M164,204.76s-.07-.07-.18-.23l-.46-.69-1.75-2.71c-.75-1.18-1.69-2.6-2.72-4.3a14.16,14.16,0,0,1-1.38-2.9,7.1,7.1,0,0,1-.26-3.6c.47-2.56,2.26-4.79,3.29-7.49a8.34,8.34,0,0,0,.51-2.11,7.63,7.63,0,0,0-.15-2.23,11.14,11.14,0,0,0-2.08-4.21c-1.91-2.65-4.8-4.7-7-7.66a10.46,10.46,0,0,1-2.11-5.13,15.15,15.15,0,0,1,.73-5.66c.55-1.84,1.21-3.61,1.68-5.38a12.71,12.71,0,0,0,.39-5.32,10.12,10.12,0,0,0-2.27-4.57,17.1,17.1,0,0,0-3.77-3.26,39.72,39.72,0,0,0-8.44-3.93c-2.76-1-5.37-1.81-7.7-2.75a35.72,35.72,0,0,1-6-3,20.94,20.94,0,0,1-3.93-3.26,15.8,15.8,0,0,1-1.94-2.58c-.18-.32-.3-.58-.39-.75a.86.86,0,0,1-.11-.26l.16.24.43.71a17.27,17.27,0,0,0,2,2.5,20.9,20.9,0,0,0,3.94,3.15,35.19,35.19,0,0,0,6,3c2.31.91,4.93,1.71,7.71,2.68a40.18,40.18,0,0,1,8.55,3.94,17.25,17.25,0,0,1,3.89,3.34,10.53,10.53,0,0,1,2.39,4.8,13.17,13.17,0,0,1-.38,5.54c-.48,1.81-1.15,3.58-1.69,5.4a14.48,14.48,0,0,0-.71,5.46,10,10,0,0,0,2,4.88c2.09,2.87,5,4.95,6.94,7.68a11.66,11.66,0,0,1,2.14,4.39,7.91,7.91,0,0,1,.15,2.37,9.7,9.7,0,0,1-.55,2.23c-1.1,2.77-2.88,5-3.34,7.4a6.8,6.8,0,0,0,.21,3.43,14.12,14.12,0,0,0,1.32,2.85c1,1.7,1.92,3.15,2.64,4.35s1.26,2.09,1.67,2.75l.42.72C163.91,204.67,164,204.76,164,204.76Z" style="fill:#fff"></path><path d="M128.29,163.56a29.24,29.24,0,0,0-3.65-.41,28.82,28.82,0,0,0-3.62.58,5.68,5.68,0,0,1,3.61-1.1A5.74,5.74,0,0,1,128.29,163.56Z" style="fill:#bf654e"></path><path d="M118.92,176.74c-.15,0-.42-.79-1.28-1.31s-1.71-.42-1.75-.56.19-.2.58-.24a2.42,2.42,0,0,1,1.44.36,2.44,2.44,0,0,1,1,1.13C119,176.49,119,176.73,118.92,176.74Z" style="fill:#bf654e"></path></g><g id="freepik--Table--inject-2"><path d="M723.67,449.21c0,.15-156.12.26-348.65.26s-348.69-.11-348.69-.26S182.41,449,375,449,723.67,449.07,723.67,449.21Z" style="fill:#263238"></path></g></svg>