<svg xmlns="http://www.w3.org/2000/svg" viewBox="0 0 750 500"><g id="freepik--background-simple--inject-2"><path d="M687,45.76c-12,1.85-26.6,7-33.1,8.26Q602.6,63.85,551.1,71.38c-55.81,8.15-111.88,14.53-167.89,15.81C299.86,89.1,218.08,69.34,135.75,59c-19.58-2.47-78.43-17.47-88.28,15.86C34.7,118.08,35.24,170,33.82,215.22c-1.52,48.22-3,96.37-3.42,144.53-.15,16.49,1.06,33.43,7,47.84,7.41,18.05,21.17,25.81,36.55,28.33,27.81,4.56,56.1,3.13,84.19,2,38-1.54,75.94-5.18,113.86-9.05,65.65-6.7,132.4-18,198.12-15.55,46.13,1.73,91.51,11.14,136.77,20.58,18.33,3.82,36.32,9.73,54.89,11.93,15,1.79,38,3.51,50.4-11.05,10.38-12.24,10.81-40.84,12.13-56.83,2.85-34.44,3.2-69.14,3-103.61-.37-64.6-1.11-131.78-10.51-195.1C713.6,57.76,705.78,42.86,687,45.76Z" style="fill:#FF725E"></path><path d="M687,45.76c-12,1.85-26.6,7-33.1,8.26Q602.6,63.85,551.1,71.38c-55.81,8.15-111.88,14.53-167.89,15.81C299.86,89.1,218.08,69.34,135.75,59c-19.58-2.47-78.43-17.47-88.28,15.86C34.7,118.08,35.24,170,33.82,215.22c-1.52,48.22-3,96.37-3.42,144.53-.15,16.49,1.06,33.43,7,47.84,7.41,18.05,21.17,25.81,36.55,28.33,27.81,4.56,56.1,3.13,84.19,2,38-1.54,75.94-5.18,113.86-9.05,65.65-6.7,132.4-18,198.12-15.55,46.13,1.73,91.51,11.14,136.77,20.58,18.33,3.82,36.32,9.73,54.89,11.93,15,1.79,38,3.51,50.4-11.05,10.38-12.24,10.81-40.84,12.13-56.83,2.85-34.44,3.2-69.14,3-103.61-.37-64.6-1.11-131.78-10.51-195.1C713.6,57.76,705.78,42.86,687,45.76Z" style="fill:#fff;opacity:0.7000000000000001"></path></g><g id="freepik--Floor--inject-2"><path d="M730.77,466.77H27.26a.5.5,0,0,1-.5-.5.51.51,0,0,1,.5-.5H730.77a.51.51,0,0,1,.5.5A.5.5,0,0,1,730.77,466.77Z" style="fill:#263238"></path></g><g id="freepik--Microscope--inject-2"><path d="M660.88,223.45s4.91-4.36,11.8,29.42,3.45,86.18-11,108.93-45.5,39.3-45.5,39.3l-21.38-27.57s42.06-13.79,52.4-54.47,4.14-66.19-3.45-67.57S625,269.3,625,269.3l31.42-60.49Z" style="fill:#263238"></path><path d="M616.15,401.6a.5.5,0,0,1-.4-.19l-21.37-27.58a.52.52,0,0,1-.09-.45.5.5,0,0,1,.33-.33c.41-.14,41.91-14.18,52.07-54.11,8.12-31.95,6-55.51.65-63.89-1.14-1.77-2.42-2.83-3.71-3.07-7.15-1.3-18,17.38-18.16,17.57a.5.5,0,0,1-.87-.48L656,208.57a.52.52,0,0,1,.49-.26.48.48,0,0,1,.43.35l4.27,14.13a1.79,1.79,0,0,1,.89.08c2.44.81,6.34,6.66,11.08,29.9,6.71,32.9,3.81,85.88-11.1,109.3-14.38,22.6-45.38,39.31-45.69,39.47A.46.46,0,0,1,616.15,401.6Zm-20.56-27.84,20.69,26.7c3.55-2,31.56-17.88,45-38.92,14.78-23.23,17.64-75.86,11-108.57-5-24.63-8.91-28.57-10.35-29.13a.67.67,0,0,0-.65,0,.51.51,0,0,1-.79-.25l-4.07-13.46-26.64,51.3c4-5.3,9.57-11.26,14.12-10.43,1.59.29,3.06,1.47,4.37,3.51,5.68,8.84,7.72,32.26-.52,64.67C638.08,356.85,601,371.77,595.59,373.76Z" style="fill:#263238"></path><path d="M668.33,223.45s4.91-4.36,11.8,29.42,3.45,86.18-11,108.93-45.5,39.3-45.5,39.3l-21.38-27.57s42.06-13.79,52.4-54.47,4.14-66.19-3.45-67.57-18.68,17.81-18.68,17.81l31.42-60.49Z" style="fill:#fff"></path><path d="M623.6,401.6a.5.5,0,0,1-.4-.19l-21.37-27.58a.49.49,0,0,1-.08-.45.46.46,0,0,1,.32-.33c.42-.14,41.91-14.18,52.07-54.11,8.12-31.95,6-55.51.65-63.89-1.14-1.77-2.42-2.83-3.71-3.07-7.12-1.3-18.05,17.38-18.16,17.57a.5.5,0,0,1-.87-.48l31.41-60.5a.52.52,0,0,1,.49-.26.51.51,0,0,1,.44.35l4.26,14.13a1.84,1.84,0,0,1,.9.08c2.43.81,6.33,6.66,11.07,29.9,6.71,32.9,3.81,85.88-11.1,109.3-14.38,22.6-45.38,39.31-45.69,39.47A.46.46,0,0,1,623.6,401.6ZM603,373.76l20.69,26.7c3.55-2,31.56-17.88,44.95-38.92,14.78-23.23,17.64-75.86,11-108.57-5.07-24.87-9-28.67-10.41-29.15a.71.71,0,0,0-.57,0,.48.48,0,0,1-.47.11.5.5,0,0,1-.34-.34l-4.07-13.46-26.64,51.29c4-5.29,9.57-11.25,14.12-10.42,1.59.29,3.06,1.47,4.37,3.51,5.68,8.84,7.72,32.26-.52,64.67C645.53,356.85,608.47,371.77,603,373.76Z" style="fill:#263238"></path><path d="M662.21,252.18a6.21,6.21,0,1,1,6.2,6.21A6.2,6.2,0,0,1,662.21,252.18Z" style="fill:#263238"></path><path d="M668.41,258.89a6.71,6.71,0,1,1,6.71-6.71A6.71,6.71,0,0,1,668.41,258.89Zm0-12.41a5.71,5.71,0,1,0,5.71,5.7A5.7,5.7,0,0,0,668.41,246.48Z" style="fill:#263238"></path><path d="M664.51,252.18a3.9,3.9,0,1,1,3.9,3.9A3.9,3.9,0,0,1,664.51,252.18Z" style="fill:#fff"></path><path d="M668.41,256.58a4.4,4.4,0,1,1,4.4-4.4A4.41,4.41,0,0,1,668.41,256.58Zm0-7.79a3.4,3.4,0,1,0,3.4,3.39A3.4,3.4,0,0,0,668.41,248.79Z" style="fill:#263238"></path><polygon points="647.78 171.76 673.91 185.76 671.29 196.94 639.93 180.13 647.78 171.76" style="fill:#fff"></polygon><path d="M671.29,197.44a.5.5,0,0,1-.24-.06L639.7,180.57a.5.5,0,0,1-.26-.36.47.47,0,0,1,.13-.42l7.85-8.38a.52.52,0,0,1,.6-.1l26.13,14a.51.51,0,0,1,.25.56l-2.63,11.17a.48.48,0,0,1-.28.34A.46.46,0,0,1,671.29,197.44ZM640.74,180,671,196.19,673.34,186l-25.45-13.64Z" style="fill:#263238"></path><rect x="666.55" y="97.04" width="29.65" height="86.87" transform="translate(1215.51 586.24) rotate(-151.8)" style="fill:#263238"></rect><path d="M673.91,186.26a.46.46,0,0,1-.23-.06l-26.13-14a.48.48,0,0,1-.24-.3.5.5,0,0,1,0-.38l41-76.56a.5.5,0,0,1,.68-.21l26.13,14a.52.52,0,0,1,.24.3.5.5,0,0,1,0,.38l-41,76.56A.49.49,0,0,1,673.91,186.26Zm-25.45-14.71,25.25,13.54,40.57-75.68L689,95.87Z" style="fill:#263238"></path><rect x="685.78" y="101.87" width="29.65" height="5.47" transform="translate(1268.63 527.85) rotate(-151.8)" style="fill:#fff"></rect><path d="M712.37,114.53a.46.46,0,0,1-.23-.06l-26.13-14a.48.48,0,0,1-.24-.3.47.47,0,0,1,0-.38L688.39,95a.5.5,0,0,1,.68-.21l26.13,14a.52.52,0,0,1,.24.3.5.5,0,0,1,0,.38l-2.59,4.82A.5.5,0,0,1,712.37,114.53ZM686.92,99.81l25.25,13.54,2.11-3.94L689,95.87Z" style="fill:#263238"></path><rect x="614.57" y="182.69" width="35.37" height="99.22" transform="translate(1079.72 735.79) rotate(-151.8)" style="fill:#FF725E"></rect><path d="M624.4,284.89a.46.46,0,0,1-.23-.06L593,268.11a.49.49,0,0,1-.2-.67L639.67,180a.48.48,0,0,1,.3-.24.5.5,0,0,1,.38,0l31.17,16.72a.49.49,0,0,1,.21.67l-46.89,87.45a.46.46,0,0,1-.29.24Zm-30.49-17.42,30.29,16.24,46.41-86.57L640.32,180.9Z" style="fill:#263238"></path><rect x="595.18" y="259.93" width="35.37" height="17.12" transform="translate(1026.13 794.69) rotate(-151.8)" style="fill:#263238"></rect><path d="M624.4,284.89a.46.46,0,0,1-.23-.06L593,268.11a.49.49,0,0,1-.2-.67l8.09-15.09a.49.49,0,0,1,.29-.24.48.48,0,0,1,.39,0l31.17,16.71a.5.5,0,0,1,.2.68l-8.09,15.08a.46.46,0,0,1-.29.24Zm-30.49-17.42,30.29,16.24,7.61-14.21-30.29-16.24Z" style="fill:#263238"></path><rect x="572.43" y="269.34" width="11.03" height="30.34" transform="translate(952.86 808.35) rotate(-151.8)" style="fill:#fff"></rect><path d="M575.64,301a.71.71,0,0,1-.24-.06l-9.72-5.22a.49.49,0,0,1-.2-.67l14.33-26.74a.5.5,0,0,1,.68-.2l9.72,5.21a.49.49,0,0,1,.24.29.48.48,0,0,1,0,.39l-14.33,26.73a.45.45,0,0,1-.3.24A.32.32,0,0,1,575.64,301Zm-9-5.92,8.84,4.74L589.3,274l-8.84-4.74Z" style="fill:#263238"></path><rect x="589.81" y="275.21" width="11.03" height="30.34" transform="translate(1079.11 742.8) rotate(-162.92)" style="fill:#fff"></rect><path d="M596.15,307l-.15,0-10.55-3.24a.51.51,0,0,1-.33-.63l8.91-29a.51.51,0,0,1,.25-.29.46.46,0,0,1,.38,0L605.2,277a.5.5,0,0,1,.33.63l-8.91,29a.48.48,0,0,1-.24.3A.46.46,0,0,1,596.15,307Zm-9.92-4.07,9.58,2.94,8.62-28-9.59-2.95Z" style="fill:#263238"></path><rect x="555.67" y="256.91" width="11.03" height="30.34" transform="translate(299.4 -293.98) rotate(39.32)" style="fill:#fff"></rect><path d="M555.85,287.81a.47.47,0,0,1-.32-.12l-8.53-7a.5.5,0,0,1-.08-.7l19.22-23.47a.51.51,0,0,1,.71-.07l8.53,7a.45.45,0,0,1,.18.34.44.44,0,0,1-.11.36l-19.22,23.47a.48.48,0,0,1-.33.18ZM548,280.25l7.77,6.35,18.58-22.69-7.76-6.36Z" style="fill:#263238"></path><rect x="557.9" y="264.17" width="55.16" height="9.65" transform="translate(974.38 782.71) rotate(-151.8)" style="fill:#fff"></rect><path d="M607.51,286.78a.48.48,0,0,1-.24-.06l-48.61-26.06a.51.51,0,0,1-.24-.3.46.46,0,0,1,0-.38l4.56-8.51a.49.49,0,0,1,.67-.2l48.61,26.06a.5.5,0,0,1,.21.68L608,286.52a.55.55,0,0,1-.3.24ZM559.57,260,607.3,285.6l4.09-7.62-47.73-25.59Z" style="fill:#263238"></path><rect x="526.39" y="329.67" width="87.9" height="6.94" transform="translate(915.58 896.24) rotate(-151.8)" style="fill:#263238"></rect><path d="M607.43,357.47a.46.46,0,0,1-.23-.06l-77.47-41.53a.51.51,0,0,1-.24-.3.46.46,0,0,1,0-.38l3.28-6.12a.5.5,0,0,1,.68-.2L611,350.41a.49.49,0,0,1,.24.29.46.46,0,0,1,0,.38l-3.28,6.12a.51.51,0,0,1-.29.25Zm-76.79-42.24,76.59,41.06,2.81-5.24L533.45,310Z" style="fill:#263238"></path><polygon points="511.42 369.96 567.24 394.19 572.99 379.08 517.17 354.85 511.42 369.96" style="fill:#263238"></polygon><path d="M567.24,394.69a.79.79,0,0,1-.2,0l-55.82-24.23a.51.51,0,0,1-.27-.64l5.75-15.11a.53.53,0,0,1,.27-.28.55.55,0,0,1,.4,0l55.82,24.23a.5.5,0,0,1,.27.63l-5.75,15.11a.55.55,0,0,1-.27.29A.65.65,0,0,1,567.24,394.69Zm-55.18-25L567,393.52l5.39-14.17-54.9-23.83Z" style="fill:#263238"></path><rect x="582.3" y="350.62" width="19.3" height="11.03" transform="translate(945.38 949.71) rotate(-151.8)" style="fill:#fff"></rect><path d="M597.86,366.06a.53.53,0,0,1-.24-.06l-17-9.12a.53.53,0,0,1-.25-.3.55.55,0,0,1,0-.38l5.22-9.72a.48.48,0,0,1,.29-.25.55.55,0,0,1,.38,0l17,9.12a.55.55,0,0,1,.24.3.5.5,0,0,1,0,.38l-5.21,9.72A.51.51,0,0,1,597.86,366.06Zm-16.34-9.83,16.13,8.65,4.74-8.84-16.13-8.65Z" style="fill:#263238"></path><circle cx="658.8" cy="218.34" r="18.62" transform="translate(-32.39 155.48) rotate(-13.14)" style="fill:#263238"></circle><path d="M658.76,237.45A19.11,19.11,0,0,1,642,209.31h0a19.14,19.14,0,0,1,25.88-7.82,19.12,19.12,0,0,1-9.07,36Zm-15.93-27.67h0a18.12,18.12,0,1,0,24.53-7.41A18.13,18.13,0,0,0,642.83,209.78Z" style="fill:#263238"></path><circle cx="658.8" cy="218.34" r="10.82" transform="translate(60.62 570.28) rotate(-48.81)" style="fill:#FF725E"></circle><path d="M658.78,229.65a11.31,11.31,0,0,1-10-16.66h0a11.32,11.32,0,1,1,10,16.66Zm-9.08-16.19a10.32,10.32,0,1,0,14-4.21,10.34,10.34,0,0,0-14,4.21Z" style="fill:#263238"></path><path d="M598.87,362.67l49,72.22H551.33l24.82-28.27,15.09-43A4.31,4.31,0,0,1,598.87,362.67Z" style="fill:#263238"></path><path d="M647.85,435.39H551.33a.51.51,0,0,1-.46-.3.49.49,0,0,1,.08-.53l24.76-28.2,15.06-42.86a4.8,4.8,0,0,1,8.51-1.11h0l49,72.22a.47.47,0,0,1,0,.51A.52.52,0,0,1,647.85,435.39Zm-95.42-1h94.48L598.46,363a3.82,3.82,0,0,0-6.75.88l-15.09,43a.54.54,0,0,1-.1.16Z" style="fill:#263238"></path><path d="M586.13,386.83l-29.89-13a5.5,5.5,0,0,0-7.3,3h0a5.51,5.51,0,0,0,2.61,6.95l31.93,16.26Z" style="fill:#fff"></path><path d="M583.48,400.57a.46.46,0,0,1-.22-.06l-31.93-16.25a6,6,0,0,1,5.11-10.86l29.89,13a.49.49,0,0,1,.29.56L584,400.17a.5.5,0,0,1-.27.35A.54.54,0,0,1,583.48,400.57ZM554.05,373.9a5,5,0,0,0-1.9.38,5,5,0,0,0-.37,9.09l31.34,15.95,2.44-12.19L556,374.32A4.94,4.94,0,0,0,554.05,373.9Z" style="fill:#263238"></path><path d="M597.4,369.39H596a12.89,12.89,0,0,0-11.68,7.45l-10.4,22.41a5.47,5.47,0,0,0,5.53,7.74l3.51-.37Z" style="fill:#fff"></path><path d="M578.82,407.52a6,6,0,0,1-5.39-8.48l10.4-22.41A13.42,13.42,0,0,1,596,368.89h1.44a.49.49,0,0,1,.41.22.5.5,0,0,1,.05.46L583.38,406.8a.49.49,0,0,1-.41.32l-3.51.37C579.25,407.51,579,407.52,578.82,407.52ZM596,369.89a12.42,12.42,0,0,0-11.22,7.16l-10.41,22.41a5,5,0,0,0,5,7l3.2-.34,14.11-36.26Z" style="fill:#263238"></path><path d="M605.64,362.67l49,72.22H558.1l24.82-28.27,15.09-43A4.31,4.31,0,0,1,605.64,362.67Z" style="fill:#FF725E"></path><path d="M654.62,435.39H558.1a.51.51,0,0,1-.46-.3.49.49,0,0,1,.08-.53l24.76-28.2,15.06-42.86a4.81,4.81,0,0,1,8.52-1.11h0l49,72.22a.51.51,0,0,1-.42.78Zm-95.42-1h94.48L605.23,363a3.82,3.82,0,0,0-6.75.88l-15.09,43a.39.39,0,0,1-.1.16Z" style="fill:#263238"></path><path d="M598.09,379a6.21,6.21,0,1,1,6.2,6.21A6.19,6.19,0,0,1,598.09,379Z" style="fill:#263238"></path><path d="M604.29,385.75A6.71,6.71,0,1,1,611,379,6.71,6.71,0,0,1,604.29,385.75Zm0-12.41A5.71,5.71,0,1,0,610,379,5.71,5.71,0,0,0,604.29,373.34Z" style="fill:#263238"></path><path d="M470.28,432.51H668.22a0,0,0,0,1,0,0V462a4.23,4.23,0,0,1-4.23,4.23H474.51a4.23,4.23,0,0,1-4.23-4.23V432.51A0,0,0,0,1,470.28,432.51Z" transform="translate(1138.5 898.78) rotate(180)" style="fill:#FF725E"></path><path d="M668.22,466.77H470.28a.5.5,0,0,1-.5-.5V436.74a4.73,4.73,0,0,1,4.73-4.73H664a4.73,4.73,0,0,1,4.73,4.73v29.53A.5.5,0,0,1,668.22,466.77Zm-197.44-1H667.72v-29A3.73,3.73,0,0,0,664,433H474.51a3.73,3.73,0,0,0-3.73,3.73Z" style="fill:#263238"></path><path d="M474.28,432.51H538.6a7,7,0,0,1,7,7v26.8H470.28V436.52A4,4,0,0,1,474.28,432.51Z" style="fill:#263238"></path><path d="M545.56,466.77H470.28a.5.5,0,0,1-.5-.5V436.52a4.51,4.51,0,0,1,4.5-4.51H538.6a7.47,7.47,0,0,1,7.46,7.46v26.8A.5.5,0,0,1,545.56,466.77Zm-74.78-1h74.28v-26.3A6.47,6.47,0,0,0,538.6,433H474.28a3.51,3.51,0,0,0-3.5,3.51Z" style="fill:#263238"></path></g><g id="freepik--Plant--inject-2"><g style="opacity:0.2"><path d="M251.17,201.61c.18.1,3.08-13,3.17-13.87,1-9.82-2.8-29.41-12.93-33.87-7.29-3.21-15.16,1.24-17.52,8.51-2.41,7.43,1.29,16.31,5.52,22.36C234.37,191.84,251.16,201.61,251.17,201.61Z"></path><path d="M54.73,204.27c8.06,3.19,27.45,2.07,27.46,2.07.2,0-4.62-12.56-5-13.32-4.58-8.75-18.56-23-29.46-21.12-7.86,1.35-12,9.4-9.92,16.77C39.88,196.2,47.87,201.56,54.73,204.27Z"></path><path d="M63.41,260.25c8.28.91,25.42-4.72,26.78-5.18a232.4,232.4,0,0,0,11.53,28.7c2.58,5.43,5.34,10.82,8.18,16.19-1.66-2.26-3.16-4.27-3.4-4.53-6.73-7.24-24-17.27-34-12.59-7.22,3.37-9,12.23-5.14,18.8s13.12,9.77,20.46,10.57,22.15-3.69,26-4.93c1.11,2,2.2,4.1,3.32,6.15,5.36,9.8,10.76,19.57,15.76,29.31,1.77,3.43,3.38,6.88,5,10.32-1.48-2-2.74-3.68-3-3.92-6.73-7.24-24-17.27-34-12.59-7.22,3.37-9,12.23-5.14,18.79,4,6.71,13.12,9.78,20.46,10.58,7.1.78,20.72-3.26,25.33-4.72,1.56,3.58,3.13,7.15,4.47,10.69.87,2.43,1.87,4.71,2.61,7.2s1.54,4.88,2.31,7.29c1.3,4.68,2.67,9.51,3.82,14.11.83,3.19,1.56,6.25,2.3,9.33-1.72-3.44-5.22-10.09-5.57-10.62-5.55-8.17-21.08-20.7-31.7-17.59-7.65,2.24-10.81,10.71-7.93,17.8s11.49,11.64,18.62,13.55c7.85,2.1,25-.68,27.1-1C158.87,417,160,422,161,426.7c3.46,16.28,5.73,30,7.19,39.57l7.5-.26c-.05-.29-.1-.55-.15-.85-1.68-9.69-4.28-23.49-8.14-39.89-1.21-5.18-2.61-10.7-4.09-16.35a140,140,0,0,0,14.86-7.64c5.88,5.93,20.63,12.59,22.54,13.44-1.8,4.92-3.6,9.69-5.37,14.16-6.09,15.5-11.76,28.18-15.84,37l8.23-.29c3.77-8.75,8.61-20.44,13.73-34.36,1.85-5,3.73-10.36,5.61-15.89,2.09.36,19.23,3.21,27.1,1.14,7.13-1.88,15.7-6.25,18.67-13.48,2.91-7.07-.22-15.56-7.86-17.83-10.6-3.15-26.18,9.32-31.76,17.47-.33.48-3.32,6.1-5.15,9.67.76-2.26,1.52-4.45,2.26-6.79,1.52-4.62,2.89-9.27,4.38-14.27q1-3.66,1.93-7.4c.7-2.45,1.13-5.14,1.7-7.73,1.22-6,2.15-12.21,3-18.45,4.05,1.32,18.49,5.77,25.86,5s16.47-3.81,20.49-10.5,2.15-15.41-5.06-18.81c-10-4.73-27.29,5.24-34,12.45-.42.45-4.68,6.17-7,9.36.45-3.76.93-7.51,1.26-11.32,1-11,1.62-22.19,2.31-33.33.21-3.42.46-6.81.7-10.22,1.43.48,18.48,6.15,26.74,5.28,7.33-.77,16.47-3.8,20.49-10.49s2.15-15.42-5.06-18.82c-10-4.72-27.29,5.25-34,12.46-.5.54-6.63,8.78-8.08,10.95.52-7.5,1.12-15,2-22.3A232.26,232.26,0,0,1,233.22,248c.67.23,18.44,6.22,26.89,5.33,7.34-.78,16.47-3.8,20.5-10.5s2.14-15.41-5.06-18.81c-10-4.72-27.29,5.24-34.05,12.46-.44.47-5.11,6.74-7.26,9.77l-.57-.27a168.91,168.91,0,0,1,10.61-28.13c2.34-5,4.86-9.67,7.42-14.14,3.19,1.45,17.86,8,25.56,8,7.38,0,16.79-2,21.53-8.18s3.82-15.09-3-19.26c-9.43-5.79-27.7,2.21-35.21,8.64-.41.35-4.16,4.36-6.85,7.32,1.18-2,2.36-4.09,3.53-6,4.38-7.12,8.83-13.38,12.82-18.89,2.29-3.12,4.42-5.89,6.44-8.46,3.89-.21,19.51-1.23,26.24-4.69,6.56-3.37,14-9.48,15.33-17.18,1.32-7.53-3.56-15.15-11.5-15.72-11-.79-23.57,14.73-27.27,23.89-.32.8-3.89,13.75-3.69,13.74h.23c-2,2.44-4.11,5.07-6.36,8-4.11,5.43-8.71,11.61-13.26,18.67A230,230,0,0,0,242.67,217a170.49,170.49,0,0,0-11.34,28.15c0,.12-.06.24-.09.36-.06-3.24-.52-12.3-.63-13-1.62-9.75-10.47-27.63-21.41-29.26-7.88-1.17-14.3,5.21-14.66,12.84-.36,7.81,5.56,15.39,11.23,20.11,6.4,5.32,23.8,10.08,25.19,10.45a231.83,231.83,0,0,0-6.21,30.3c-.85,5.95-1.52,12-2.11,18-.14-2.8-.29-5.31-.35-5.66-1.61-9.74-10.46-27.62-21.4-29.25-7.89-1.17-14.3,5.2-14.66,12.84-.36,7.8,5.55,15.39,11.23,20.11s20.51,9.14,24.43,10.24c-.2,2.32-.43,4.63-.62,7-.94,11.14-1.82,22.26-3,33.15-.42,3.83-1,7.59-1.52,11.36-.13-2.49-.26-4.58-.31-4.9C214.8,340.1,206,322.21,195,320.59c-7.88-1.17-14.3,5.2-14.65,12.84-.37,7.8,5.55,15.38,11.22,20.1,5.5,4.57,19.08,8.71,23.74,10-.68,3.84-1.34,7.69-2.17,11.38-.62,2.51-1,5-1.8,7.45s-1.4,4.92-2.09,7.35c-1.5,4.62-3,9.4-4.6,13.88-1.07,3.12-2.15,6.07-3.23,9.05.47-3.82,1.22-11.3,1.21-11.93A50.84,50.84,0,0,0,195,376.27a14.64,14.64,0,0,0-.28-2.88c-1.48-7.51-8.77-12.86-16.39-10.54-10.58,3.22-16.7,22.22-16.86,32.09,0,.59.6,6.92,1.05,10.91-.62-2.31-1.2-4.55-1.87-6.92-1.28-4.68-2.71-9.32-4.22-14.32-.81-2.38-1.64-4.79-2.47-7.23s-1.9-4.9-2.84-7.38c-2.32-5.7-4.95-11.37-7.72-17,4.1-1.14,18.61-5.39,24.32-10.1s11.64-12.26,11.31-20.06c-.32-7.64-6.71-14-14.6-12.9-10.95,1.58-19.87,19.43-21.53,29.17-.1.61-.5,7.73-.65,11.64-1.69-3.38-3.36-6.77-5.18-10.13-5.27-9.72-10.89-19.4-16.47-29.08-1.71-3-3.37-5.93-5-8.9,1.46-.39,18.81-5.07,25.21-10.35,5.7-4.69,11.64-12.26,11.31-20.06-.33-7.64-6.72-14-14.6-12.9-10.95,1.59-19.87,19.43-21.53,29.17-.12.74-.68,11-.7,13.6-3.7-6.55-7.32-13.1-10.63-19.7a231.2,231.2,0,0,1-11.78-27.49c.69-.18,18.81-5,25.37-10.39,5.7-4.7,11.64-12.26,11.31-20.06-.33-7.64-6.72-14-14.61-12.9C103.9,213.12,95,231,93.33,240.71c-.11.64-.54,8.45-.66,12.17L92,253a168.51,168.51,0,0,1-6.66-29.33c-.81-5.47-1.28-10.74-1.63-15.89,3.47-.54,19.29-3.22,25.74-7.44,6.17-4,12.91-10.9,13.44-18.7.51-7.63-5.14-14.69-13.1-14.42-11.06.37-21.89,17.13-24.6,26.63-.15.52-1.07,5.93-1.68,9.89-.12-2.32-.28-4.72-.35-7-.28-8.36,0-16,.26-22.82.19-3.87.44-7.36.71-10.62,3.13-2.31,15.59-11.79,19.3-18.38,3.62-6.43,6.43-15.63,3.31-22.79s-11.32-10.67-18.27-6.76c-9.64,5.42-11.53,25.29-9.56,35,.17.83,4.34,13.61,4.5,13.49l.19-.14c-.32,3.14-.63,6.5-.89,10.18-.44,6.8-.86,14.49-.76,22.89a229.56,229.56,0,0,0,1.6,27.09,170.11,170.11,0,0,0,6.08,29.74c0,.11.08.23.12.34-1.84-2.67-7.22-10-7.7-10.48-6.72-7.24-24-17.27-34-12.59C40.88,234.25,39,243.1,43,249.67S56.08,259.44,63.41,260.25Z"></path><path d="M54.73,204.27c8.06,3.19,27.45,2.07,27.46,2.07.2,0-4.62-12.56-5-13.32-4.58-8.75-18.56-23-29.46-21.12-7.86,1.35-12,9.4-9.92,16.77C39.88,196.2,47.87,201.56,54.73,204.27Z" style="opacity:0.30000000000000004"></path><path d="M251.17,201.61c.18.1,3.08-13,3.17-13.87,1-9.82-2.8-29.41-12.93-33.87-7.29-3.21-15.16,1.24-17.52,8.51-2.41,7.43,1.29,16.31,5.52,22.36C234.37,191.84,251.16,201.61,251.17,201.61Z" style="opacity:0.30000000000000004"></path><path d="M63.41,260.25c8.28.91,25.42-4.72,26.78-5.18a232.4,232.4,0,0,0,11.53,28.7c2.58,5.43,5.34,10.82,8.18,16.19-1.66-2.26-3.16-4.27-3.4-4.53-6.73-7.24-24-17.27-34-12.59-7.22,3.37-9,12.23-5.14,18.8s13.12,9.77,20.46,10.57,22.15-3.69,26-4.93c1.11,2,2.2,4.1,3.32,6.15,5.36,9.8,10.76,19.57,15.76,29.31,1.77,3.43,3.38,6.88,5,10.32-1.48-2-2.74-3.68-3-3.92-6.73-7.24-24-17.27-34-12.59-7.22,3.37-9,12.23-5.14,18.79,4,6.71,13.12,9.78,20.46,10.58,7.1.78,20.72-3.26,25.33-4.72,1.56,3.58,3.13,7.15,4.47,10.69.87,2.43,1.87,4.71,2.61,7.2s1.54,4.88,2.31,7.29c1.3,4.68,2.67,9.51,3.82,14.11.83,3.19,1.56,6.25,2.3,9.33-1.72-3.44-5.22-10.09-5.57-10.62-5.55-8.17-21.08-20.7-31.7-17.59-7.65,2.24-10.81,10.71-7.93,17.8s11.49,11.64,18.62,13.55c7.85,2.1,25-.68,27.1-1C158.87,417,160,422,161,426.7c3.46,16.28,5.73,30,7.19,39.57l7.5-.26c-.05-.29-.1-.55-.15-.85-1.68-9.69-4.28-23.49-8.14-39.89-1.21-5.18-2.61-10.7-4.09-16.35a140,140,0,0,0,14.86-7.64c5.88,5.93,20.63,12.59,22.54,13.44-1.8,4.92-3.6,9.69-5.37,14.16-6.09,15.5-11.76,28.18-15.84,37l8.23-.29c3.77-8.75,8.61-20.44,13.73-34.36,1.85-5,3.73-10.36,5.61-15.89,2.09.36,19.23,3.21,27.1,1.14,7.13-1.88,15.7-6.25,18.67-13.48,2.91-7.07-.22-15.56-7.86-17.83-10.6-3.15-26.18,9.32-31.76,17.47-.33.48-3.32,6.1-5.15,9.67.76-2.26,1.52-4.45,2.26-6.79,1.52-4.62,2.89-9.27,4.38-14.27q1-3.66,1.93-7.4c.7-2.45,1.13-5.14,1.7-7.73,1.22-6,2.15-12.21,3-18.45,4.05,1.32,18.49,5.77,25.86,5s16.47-3.81,20.49-10.5,2.15-15.41-5.06-18.81c-10-4.73-27.29,5.24-34,12.45-.42.45-4.68,6.17-7,9.36.45-3.76.93-7.51,1.26-11.32,1-11,1.62-22.19,2.31-33.33.21-3.42.46-6.81.7-10.22,1.43.48,18.48,6.15,26.74,5.28,7.33-.77,16.47-3.8,20.49-10.49s2.15-15.42-5.06-18.82c-10-4.72-27.29,5.25-34,12.46-.5.54-6.63,8.78-8.08,10.95.52-7.5,1.12-15,2-22.3A232.26,232.26,0,0,1,233.22,248c.67.23,18.44,6.22,26.89,5.33,7.34-.78,16.47-3.8,20.5-10.5s2.14-15.41-5.06-18.81c-10-4.72-27.29,5.24-34.05,12.46-.44.47-5.11,6.74-7.26,9.77l-.57-.27a168.91,168.91,0,0,1,10.61-28.13c2.34-5,4.86-9.67,7.42-14.14,3.19,1.45,17.86,8,25.56,8,7.38,0,16.79-2,21.53-8.18s3.82-15.09-3-19.26c-9.43-5.79-27.7,2.21-35.21,8.64-.41.35-4.16,4.36-6.85,7.32,1.18-2,2.36-4.09,3.53-6,4.38-7.12,8.83-13.38,12.82-18.89,2.29-3.12,4.42-5.89,6.44-8.46,3.89-.21,19.51-1.23,26.24-4.69,6.56-3.37,14-9.48,15.33-17.18,1.32-7.53-3.56-15.15-11.5-15.72-11-.79-23.57,14.73-27.27,23.89-.32.8-3.89,13.75-3.69,13.74h.23c-2,2.44-4.11,5.07-6.36,8-4.11,5.43-8.71,11.61-13.26,18.67A230,230,0,0,0,242.67,217a170.49,170.49,0,0,0-11.34,28.15c0,.12-.06.24-.09.36-.06-3.24-.52-12.3-.63-13-1.62-9.75-10.47-27.63-21.41-29.26-7.88-1.17-14.3,5.21-14.66,12.84-.36,7.81,5.56,15.39,11.23,20.11,6.4,5.32,23.8,10.08,25.19,10.45a231.83,231.83,0,0,0-6.21,30.3c-.85,5.95-1.52,12-2.11,18-.14-2.8-.29-5.31-.35-5.66-1.61-9.74-10.46-27.62-21.4-29.25-7.89-1.17-14.3,5.2-14.66,12.84-.36,7.8,5.55,15.39,11.23,20.11s20.51,9.14,24.43,10.24c-.2,2.32-.43,4.63-.62,7-.94,11.14-1.82,22.26-3,33.15-.42,3.83-1,7.59-1.52,11.36-.13-2.49-.26-4.58-.31-4.9C214.8,340.1,206,322.21,195,320.59c-7.88-1.17-14.3,5.2-14.65,12.84-.37,7.8,5.55,15.38,11.22,20.1,5.5,4.57,19.08,8.71,23.74,10-.68,3.84-1.34,7.69-2.17,11.38-.62,2.51-1,5-1.8,7.45s-1.4,4.92-2.09,7.35c-1.5,4.62-3,9.4-4.6,13.88-1.07,3.12-2.15,6.07-3.23,9.05.47-3.82,1.22-11.3,1.21-11.93A50.84,50.84,0,0,0,195,376.27a14.64,14.64,0,0,0-.28-2.88c-1.48-7.51-8.77-12.86-16.39-10.54-10.58,3.22-16.7,22.22-16.86,32.09,0,.59.6,6.92,1.05,10.91-.62-2.31-1.2-4.55-1.87-6.92-1.28-4.68-2.71-9.32-4.22-14.32-.81-2.38-1.64-4.79-2.47-7.23s-1.9-4.9-2.84-7.38c-2.32-5.7-4.95-11.37-7.72-17,4.1-1.14,18.61-5.39,24.32-10.1s11.64-12.26,11.31-20.06c-.32-7.64-6.71-14-14.6-12.9-10.95,1.58-19.87,19.43-21.53,29.17-.1.61-.5,7.73-.65,11.64-1.69-3.38-3.36-6.77-5.18-10.13-5.27-9.72-10.89-19.4-16.47-29.08-1.71-3-3.37-5.93-5-8.9,1.46-.39,18.81-5.07,25.21-10.35,5.7-4.69,11.64-12.26,11.31-20.06-.33-7.64-6.72-14-14.6-12.9-10.95,1.59-19.87,19.43-21.53,29.17-.12.74-.68,11-.7,13.6-3.7-6.55-7.32-13.1-10.63-19.7a231.2,231.2,0,0,1-11.78-27.49c.69-.18,18.81-5,25.37-10.39,5.7-4.7,11.64-12.26,11.31-20.06-.33-7.64-6.72-14-14.61-12.9C103.9,213.12,95,231,93.33,240.71c-.11.64-.54,8.45-.66,12.17L92,253a168.51,168.51,0,0,1-6.66-29.33c-.81-5.47-1.28-10.74-1.63-15.89,3.47-.54,19.29-3.22,25.74-7.44,6.17-4,12.91-10.9,13.44-18.7.51-7.63-5.14-14.69-13.1-14.42-11.06.37-21.89,17.13-24.6,26.63-.15.52-1.07,5.93-1.68,9.89-.12-2.32-.28-4.72-.35-7-.28-8.36,0-16,.26-22.82.19-3.87.44-7.36.71-10.62,3.13-2.31,15.59-11.79,19.3-18.38,3.62-6.43,6.43-15.63,3.31-22.79s-11.32-10.67-18.27-6.76c-9.64,5.42-11.53,25.29-9.56,35,.17.83,4.34,13.61,4.5,13.49l.19-.14c-.32,3.14-.63,6.5-.89,10.18-.44,6.8-.86,14.49-.76,22.89a229.56,229.56,0,0,0,1.6,27.09,170.11,170.11,0,0,0,6.08,29.74c0,.11.08.23.12.34-1.84-2.67-7.22-10-7.7-10.48-6.72-7.24-24-17.27-34-12.59C40.88,234.25,39,243.1,43,249.67S56.08,259.44,63.41,260.25Z" style="opacity:0.30000000000000004"></path></g></g><g id="freepik--Tubes--inject-2"><path d="M289.4,452.64a17,17,0,0,1-17-17V331a.5.5,0,0,1,.5-.5h33.05a.5.5,0,0,1,.5.5V435.62A17,17,0,0,1,289.4,452.64Zm-16-121.18V435.62a16,16,0,0,0,32.05,0V331.46Z" style="fill:#263238"></path><path d="M289.4,448.35h0a13.78,13.78,0,0,1-13.78-13.78V349.44h27.56v85.13A13.78,13.78,0,0,1,289.4,448.35Z" style="fill:#FF725E"></path><rect x="269.81" y="300.43" width="38.95" height="30.51" style="fill:#FF725E"></rect><path d="M308.76,331.44H269.81a.5.5,0,0,1-.5-.5V300.43a.5.5,0,0,1,.5-.5h38.95a.5.5,0,0,1,.5.5v30.51A.5.5,0,0,1,308.76,331.44Zm-38.45-1h37.95V300.93H270.31Z" style="fill:#263238"></path><path d="M274.71,326.69a.51.51,0,0,1-.5-.5V300.48a.51.51,0,0,1,.5-.5.5.5,0,0,1,.5.5v25.71A.5.5,0,0,1,274.71,326.69Z" style="fill:#263238"></path><path d="M279.49,328.52a.5.5,0,0,1-.5-.5V311.13a.5.5,0,0,1,.5-.5.51.51,0,0,1,.5.5V328A.5.5,0,0,1,279.49,328.52Z" style="fill:#263238"></path><path d="M283.89,320.44a.5.5,0,0,1-.5-.5V301.58a.51.51,0,0,1,.5-.5.5.5,0,0,1,.5.5v18.36A.5.5,0,0,1,283.89,320.44Z" style="fill:#263238"></path><rect x="282.79" y="361.81" width="13.22" height="56.92" style="fill:#fff"></rect><path d="M296,419.23H282.79a.51.51,0,0,1-.5-.5V361.81a.5.5,0,0,1,.5-.5H296a.5.5,0,0,1,.5.5v56.92A.5.5,0,0,1,296,419.23Zm-12.72-1h12.22V362.31H283.29Z" style="fill:#263238"></path><path d="M334.19,452.64a17,17,0,0,1-17-17V331a.5.5,0,0,1,.5-.5h33a.5.5,0,0,1,.5.5V435.62A17,17,0,0,1,334.19,452.64Zm-16-121.18V435.62a16,16,0,0,0,32,0V331.46Z" style="fill:#263238"></path><path d="M334.19,448.35h0a13.78,13.78,0,0,1-13.78-13.78V349.44H348v85.13A13.78,13.78,0,0,1,334.19,448.35Z" style="fill:#FF725E"></path><rect x="314.6" y="300.43" width="38.95" height="30.51" style="fill:#FF725E"></rect><path d="M353.55,331.44H314.6a.5.5,0,0,1-.5-.5V300.43a.5.5,0,0,1,.5-.5h38.95a.51.51,0,0,1,.5.5v30.51A.5.5,0,0,1,353.55,331.44Zm-38.45-1h37.95V300.93H315.1Z" style="fill:#263238"></path><path d="M319.5,326.69a.5.5,0,0,1-.5-.5V300.48a.5.5,0,0,1,1,0v25.71A.5.5,0,0,1,319.5,326.69Z" style="fill:#263238"></path><path d="M324.27,328.52a.5.5,0,0,1-.5-.5V311.13a.51.51,0,0,1,.5-.5.5.5,0,0,1,.5.5V328A.5.5,0,0,1,324.27,328.52Z" style="fill:#263238"></path><path d="M328.68,320.44a.5.5,0,0,1-.5-.5V301.58a.5.5,0,0,1,1,0v18.36A.5.5,0,0,1,328.68,320.44Z" style="fill:#263238"></path><rect x="327.58" y="361.81" width="13.22" height="56.92" style="fill:#fff"></rect><path d="M340.8,419.23H327.58a.5.5,0,0,1-.5-.5V361.81a.5.5,0,0,1,.5-.5H340.8a.5.5,0,0,1,.5.5v56.92A.5.5,0,0,1,340.8,419.23Zm-12.72-1H340.3V362.31H328.08Z" style="fill:#263238"></path><path d="M379,452.64a17,17,0,0,1-17-17V331a.5.5,0,0,1,.5-.5H395.5a.5.5,0,0,1,.5.5V435.62A17,17,0,0,1,379,452.64ZM363,331.46V435.62a16,16,0,0,0,32.05,0V331.46Z" style="fill:#263238"></path><path d="M379,448.35h0a13.78,13.78,0,0,1-13.78-13.78V349.44h27.56v85.13A13.78,13.78,0,0,1,379,448.35Z" style="fill:#FF725E"></path><rect x="359.39" y="300.43" width="38.95" height="30.51" style="fill:#FF725E"></rect><path d="M398.33,331.44H359.39a.5.5,0,0,1-.5-.5V300.43a.5.5,0,0,1,.5-.5h38.94a.5.5,0,0,1,.5.5v30.51A.5.5,0,0,1,398.33,331.44Zm-38.44-1h37.94V300.93H359.89Z" style="fill:#263238"></path><path d="M364.29,326.69a.5.5,0,0,1-.5-.5V300.48a.5.5,0,0,1,1,0v25.71A.5.5,0,0,1,364.29,326.69Z" style="fill:#263238"></path><path d="M369.06,328.52a.5.5,0,0,1-.5-.5V311.13a.51.51,0,0,1,.5-.5.5.5,0,0,1,.5.5V328A.5.5,0,0,1,369.06,328.52Z" style="fill:#263238"></path><path d="M373.47,320.44a.5.5,0,0,1-.5-.5V301.58a.5.5,0,1,1,1,0v18.36A.5.5,0,0,1,373.47,320.44Z" style="fill:#263238"></path><rect x="372.37" y="361.81" width="13.22" height="56.92" style="fill:#fff"></rect><path d="M385.59,419.23H372.37a.5.5,0,0,1-.5-.5V361.81a.5.5,0,0,1,.5-.5h13.22a.5.5,0,0,1,.5.5v56.92A.51.51,0,0,1,385.59,419.23Zm-12.72-1h12.22V362.31H372.87Z" style="fill:#263238"></path><rect x="255.75" y="337.49" width="156.65" height="5.57" style="fill:#263238"></rect><path d="M412.4,343.56H255.75a.5.5,0,0,1-.5-.5v-5.57a.5.5,0,0,1,.5-.5H412.4a.5.5,0,0,1,.5.5v5.57A.51.51,0,0,1,412.4,343.56Zm-156.15-1H411.9V338H256.25Z" style="fill:#263238"></path><rect x="255.75" y="460.7" width="156.65" height="5.57" style="fill:#263238"></rect><path d="M412.4,466.77H255.75a.5.5,0,0,1-.5-.5V460.7a.5.5,0,0,1,.5-.5H412.4a.5.5,0,0,1,.5.5v5.57A.5.5,0,0,1,412.4,466.77Zm-156.15-1H411.9V461.2H256.25Z" style="fill:#263238"></path><rect x="253.27" y="320.77" width="5.57" height="145.5" style="fill:#263238"></rect><path d="M258.84,466.77h-5.57a.5.5,0,0,1-.5-.5V320.77a.5.5,0,0,1,.5-.5h5.57a.5.5,0,0,1,.5.5v145.5A.5.5,0,0,1,258.84,466.77Zm-5.07-1h4.57V321.27h-4.57Z" style="fill:#263238"></path><rect x="406.82" y="320.77" width="5.57" height="145.5" style="fill:#263238"></rect><path d="M412.4,466.77h-5.58a.5.5,0,0,1-.5-.5V320.77a.5.5,0,0,1,.5-.5h5.58a.5.5,0,0,1,.5.5v145.5A.5.5,0,0,1,412.4,466.77Zm-5.08-1h4.58V321.27h-4.58Z" style="fill:#263238"></path></g><g id="freepik--female-sexual-organs--inject-2"><path d="M334.55,86.36s-3.4-.68,12-.68,32,5,35.82,5.89,6.58.23,12-3.62,7.7-3.86,12.46-6.8,6.59-9.62,6.59-9.62l2.71,6.67s-3.63,7.48-9.3,10-8.61,3-12.24,6.35-10.88,4.31-12,4.53-5.44,10.89-16.78,18.37-29.47,8.84-41,2-15-14.51-14.06-21.77,3.86-9.06,9.75-10.42S334.55,86.36,334.55,86.36Z" style="fill:#263238"></path><path d="M342.87,124.38a36.55,36.55,0,0,1-18.32-4.49c-10.56-6.21-15.37-13.7-14.3-22.26.93-7.45,4-9.44,10.13-10.85a58.44,58.44,0,0,1,13.48-1c.45-.4,2.5-.65,12.7-.65,13.35,0,27.58,3.73,33.66,5.32l2.28.59c3.84.9,6.44.1,11.61-3.55a39.69,39.69,0,0,1,7.35-4.15,42.36,42.36,0,0,0,5.14-2.67c4.53-2.81,6.35-9.26,6.37-9.32a.5.5,0,0,1,.45-.37.54.54,0,0,1,.5.31l2.7,6.67a.53.53,0,0,1,0,.41c-.15.31-3.78,7.67-9.54,10.21-1.52.67-2.85,1.19-4,1.65-3.3,1.31-5.49,2.17-8.09,4.61-3.37,3.15-9.67,4.22-11.75,4.57l-.5.08a17.79,17.79,0,0,0-1.47,2.13c-2.4,3.75-6.88,10.72-15.13,16.16A43,43,0,0,1,342.87,124.38ZM331.33,86.79a51.86,51.86,0,0,0-10.72,1c-5.78,1.34-8.51,3.1-9.37,10-1,8.12,3.63,15.28,13.81,21.27,11.1,6.53,28.89,5.64,40.51-2,8.07-5.33,12.48-12.19,14.84-15.87,1.2-1.87,1.61-2.46,2.11-2.57l.54-.09c2-.34,8.08-1.36,11.23-4.31,2.74-2.57,5.11-3.51,8.4-4.81,1.17-.46,2.49-1,4-1.63,4.94-2.18,8.34-8.37,8.95-9.54L413.5,73c-.8,2.15-2.76,6.36-6.37,8.6a42.19,42.19,0,0,1-5.26,2.73,38.65,38.65,0,0,0-7.19,4c-5.38,3.82-8.28,4.68-12.41,3.71l-2.3-.59c-6-1.58-20.18-5.29-33.41-5.29-7.76,0-10.54.18-11.53.3a.51.51,0,0,1-.51.38S333.21,86.79,331.33,86.79Z" style="fill:#263238"></path><path d="M630.36,86.36s3.4-.68-12-.68-32,5-35.82,5.89-6.57.23-12-3.62-7.71-3.86-12.47-6.8-6.59-9.62-6.59-9.62l-2.71,6.67s3.63,7.48,9.3,10,8.61,3,12.24,6.35,10.88,4.31,12,4.53,5.44,10.89,16.77,18.37,29.47,8.84,41,2,15-14.51,14.06-21.77-3.86-9.06-9.75-10.42S630.36,86.36,630.36,86.36Z" style="fill:#263238"></path><path d="M622,124.38a42.93,42.93,0,0,1-23.23-6.55c-8.25-5.44-12.73-12.41-15.14-16.16a13.81,13.81,0,0,0-1.52-2.15l-.45-.06c-2.08-.35-8.38-1.42-11.75-4.57-2.6-2.44-4.78-3.3-8.09-4.61-1.17-.46-2.5-1-4-1.65-5.77-2.54-9.39-9.9-9.55-10.21a.53.53,0,0,1,0-.41L551,71.34a.5.5,0,0,1,.94.06c0,.06,1.84,6.51,6.37,9.32a41.68,41.68,0,0,0,5.15,2.67,40.34,40.34,0,0,1,7.35,4.15c5.16,3.65,7.76,4.45,11.61,3.55l2.27-.59c6.08-1.59,20.31-5.32,33.66-5.32,10.2,0,12.25.25,12.7.65a58.44,58.44,0,0,1,13.48,1c6.12,1.41,9.2,3.4,10.13,10.85,1.07,8.56-3.74,16.05-14.29,22.26A36.59,36.59,0,0,1,622,124.38ZM549.3,78.18c.62,1.18,4,7.37,9,9.54,1.49.65,2.81,1.17,4,1.63,3.29,1.3,5.67,2.24,8.4,4.81,3.15,3,9.23,4,11.23,4.31l.54.09c.5.11.91.7,2.11,2.57,2.37,3.68,6.77,10.54,14.85,15.87,11.61,7.67,29.4,8.56,40.5,2,10.18-6,14.83-13.15,13.81-21.27-.86-6.91-3.59-8.67-9.36-10s-13.84-.9-13.92-.89a.5.5,0,0,1-.51-.38c-1-.12-3.77-.3-11.53-.3-13.22,0-27.37,3.71-33.4,5.29l-2.3.59c-4.14,1-7,.11-12.42-3.71a38.65,38.65,0,0,0-7.19-4,42.15,42.15,0,0,1-5.25-2.73c-3.62-2.24-5.58-6.45-6.38-8.6Z" style="fill:#263238"></path><path d="M552.52,67.28c-.3-1.26-5.81-4.15-7-5-1.84-1.38-3.65-2.79-5.45-4.21-4.31-3.4-8.68-6.68-13.31-9.64-9.25-5.92-19.41-10.94-30.26-13-8.46-1.63-13-1.3-13-1.3s-4.56-.33-13,1.3c-10.85,2.09-21,7.11-30.25,13-4.63,3-9,6.24-13.32,9.64-1.8,1.42-3.61,2.83-5.45,4.21-1.17.88-6.69,3.77-7,5l-1,4.25s2.63,2.26,3.28,11.38S430.08,127.2,437.25,137s19.54,23.77,20.51,26.7,1.63,14-.32,19.21a14.47,14.47,0,0,0,.28,10.14l18.6,33.82,7.17,2.61,7.16-2.61L509.26,193a14.53,14.53,0,0,0,.28-10.14c-2-5.21-1.3-16.28-.33-19.21s13.35-16.93,20.52-26.7S549.59,92,550.24,82.91s3.28-11.38,3.28-11.38Z" style="fill:#dedede"></path><path d="M483.49,230a.47.47,0,0,1-.17,0l-7.17-2.61a.51.51,0,0,1-.27-.23l-18.6-33.82a14.82,14.82,0,0,1-.31-10.55c1.95-5.2,1.21-16.19.32-18.88-.54-1.61-5-7.16-9.79-13-3.57-4.4-7.62-9.39-10.66-13.54-7.08-9.66-19.93-44.82-20.61-54.31-.62-8.71-3.08-11-3.11-11a.51.51,0,0,1-.15-.49l1-4.25c.24-1,2.37-2.38,5.36-4.18.8-.49,1.5-.9,1.81-1.14,2-1.5,4-3,5.44-4.21,3.54-2.79,8.26-6.41,13.36-9.67,10.9-7,20.85-11.25,30.43-13.09,8.43-1.62,13-1.33,13.15-1.31s4.65-.31,13.09,1.31C506.18,36.72,516.14,41,527,48c5.08,3.26,9.81,6.88,13.35,9.67,1.49,1.17,3.45,2.71,5.44,4.21.32.24,1,.65,1.82,1.14,3,1.8,5.12,3.15,5.36,4.18l1,4.25a.5.5,0,0,1-.16.49s-2.49,2.33-3.11,11c-.68,9.49-13.52,44.65-20.61,54.31-3,4.15-7.08,9.14-10.65,13.54-4.76,5.88-9.26,11.42-9.79,13-.9,2.69-1.63,13.68.32,18.88a14.84,14.84,0,0,1-.3,10.52l-18.62,33.85a.47.47,0,0,1-.27.23l-7.16,2.61Zm-6.82-3.51,6.82,2.48,6.81-2.48,18.52-33.66a14.18,14.18,0,0,0,.25-9.72c-2.06-5.48-1.29-16.68-.33-19.55.59-1.77,4.72-6.88,10-13.34,3.56-4.39,7.6-9.37,10.62-13.5,7-9.57,19.75-44.39,20.42-53.79.56-7.79,2.56-10.72,3.23-11.5l-.93-4c-.17-.7-3.37-2.63-4.91-3.56-.86-.51-1.54-.92-1.9-1.19-2-1.51-4-3-5.46-4.22-3.52-2.78-8.22-6.38-13.27-9.61-10.79-6.9-20.63-11.14-30.08-13-8.29-1.59-12.85-1.3-12.9-1.29s-4.68-.3-13,1.29c-9.45,1.82-19.29,6.06-30.08,13-5.06,3.23-9.75,6.83-13.28,9.61-1.49,1.17-3.45,2.71-5.46,4.22a22.25,22.25,0,0,1-1.9,1.19c-1.53.93-4.74,2.86-4.9,3.56l-.94,4c.68.78,2.67,3.71,3.23,11.5.67,9.4,13.4,44.22,20.42,53.79,3,4.13,7.06,9.11,10.62,13.5,5.24,6.46,9.37,11.56,10,13.34.95,2.87,1.72,14.06-.34,19.55a14.11,14.11,0,0,0,.27,9.75Z" style="fill:#263238"></path><path d="M654.67,40.42c-12.63-6.71-24.47-4-39.86.79s-67.09,26.05-67.09,26.05a53.85,53.85,0,0,1-15.42,3.07c-8.91.48-23.1,2.4-23.1,2.4H458.68s-14.19-1.92-23.09-2.4a53.87,53.87,0,0,1-15.43-3.07S368.46,46,353.07,41.21s-27.23-7.5-39.86-.79A26.91,26.91,0,0,0,299,67.65c1.19,7.5,7.9,20.92,7.5,26.84a22.18,22.18,0,0,1-2.12,7.74,24.8,24.8,0,0,1-1.82,3.31s.47,1.36,1.91.15l1.45-1.2s1.68,8.42,2.4,6.74a52.54,52.54,0,0,0,1.69-6s1.44,4.57,2.64,1.2,1.69-10.82,1.69-10.82,1.44,10.34,2.88,8.66,1-10.1,1-10.1,6.25,1.44,7,.72-2.4-3.61-2.4-3.61,8.66,0,7.94-1.2,0,.48-.73-1.21,8.42-.48,7-1.44-8.66-6.5-8.66-6.5,3.85-1.2,4.33-2.88-1.68,1.68-6.5.24-14.19-5.54-15.63-15.88,6.49-18.28,17.8-19.25S412,71.05,413.45,71.53s17.8,2.65,26.95,6.5,12,16.12,13.47,26.94,4.09,19.25,10.58,28.39S474.8,148,477,157.18s-7.21,18.52-4.33,26.7,6.74,13.71,7.94,16.12,1.45,7,.48,8.42-5.29,1-13.95-5.3-9.38-10.1-9.38-10.1a30.4,30.4,0,0,0,0,21.41c4.33,11.79,5,34.4,7,51.72s-2.4,15.16,3.85,25,10.59,18.53,12,20.21,4.41.88,5.85-.81,6.43-11,12.69-20.9,2.15-6.19,4.08-23.52,2.64-39.93,7-51.72a30.4,30.4,0,0,0,0-21.41s-.72,3.85-9.38,10.1-13,6.74-13.95,5.3-.72-6,.48-8.42,5.05-7.94,7.94-16.12-6.5-17.56-4.33-26.7,5-14.68,11.53-23.82S511.59,115.8,513,105,518.34,81.88,527.48,78s25.5-6,26.95-6.5,73.85-29.35,85.16-28.39,19.25,8.9,17.8,19.25-10.82,14.43-15.63,15.88-7-1.93-6.5-.24,4.33,2.88,4.33,2.88-7.22,5.54-8.66,6.5,7.7-.24,7,1.44,0,0-.72,1.21,7.93,1.2,7.93,1.2-3.12,2.89-2.4,3.61,7-.72,7-.72-.49,8.42,1,10.1,2.88-8.66,2.88-8.66.49,7.46,1.69,10.82,2.64-1.2,2.64-1.2a52.54,52.54,0,0,0,1.69,6c.72,1.68,2.4-6.74,2.4-6.74l1.45,1.2c1.44,1.21,1.91-.15,1.91-.15a24.8,24.8,0,0,1-1.82-3.31,22.4,22.4,0,0,1-2.12-7.74c-.4-5.92,6.31-19.34,7.5-26.84A26.91,26.91,0,0,0,654.67,40.42Z" style="fill:#FF725E"></path><path d="M482.75,312.81a3.27,3.27,0,0,1-2.56-1.1,62.21,62.21,0,0,1-3.8-6.29c-2.07-3.66-4.9-8.67-8.27-14-3.87-6.1-3.77-7.82-3.53-12a71.45,71.45,0,0,0-.39-13.27c-.52-4.64-.94-9.54-1.38-14.73-1.19-13.91-2.42-28.3-5.57-36.88a30.61,30.61,0,0,1,0-21.78.5.5,0,0,1,.95.11s.86,3.78,9.18,9.79,11.66,6,12.48,5.83a1.16,1.16,0,0,0,.77-.41c.79-1.19.66-5.57-.52-7.92-.28-.58-.73-1.34-1.3-2.31a77.71,77.71,0,0,1-6.66-13.86c-1.52-4.33.18-8.81,2-13.55,1.66-4.35,3.37-8.86,2.34-13.21-2.19-9.22-6.26-15-12.43-23.64-6-8.44-9.09-16.73-10.68-28.61C452,94.68,449.25,82.29,440.2,78.49c-6.88-2.9-18.1-4.88-23.49-5.82-2-.36-3-.54-3.42-.66l-2.86-1.11c-59.63-23.23-77.57-27.65-82.1-27.26-6,.51-11.07,3-14.24,7A15,15,0,0,0,311,62.32c1.38,9.88,10.17,13.93,15.29,15.47a7,7,0,0,0,5.52-.48c.47-.22.85-.4,1.18-.13s.2.74.13,1c-.4,1.4-2.52,2.42-3.78,2.92,1.87,1.42,6.77,5.15,7.91,5.91a.65.65,0,0,1,.35.76c-.17.58-.89.58-3,.6-1.18,0-3.58,0-4.09.37l.2.46a2,2,0,0,1,.46.62.7.7,0,0,1,0,.75c-.5.89-3.94,1.15-7.17,1.2.81.84,1.78,2,1.8,2.81a.86.86,0,0,1-.25.66c-.71.71-4,.19-6.8-.44.09,2.13.22,8.24-1.12,9.79a.85.85,0,0,1-.93.33c-.92-.27-1.66-2.79-2.19-5.42a36.4,36.4,0,0,1-1.36,7.1c-.14.39-.56,1.57-1.46,1.57h0c-.63,0-1.13-.63-1.5-1.31a36.54,36.54,0,0,1-1.36,4.58.7.7,0,0,1-.74.52c-.34,0-1.1-.11-2.45-6.53l-.8.67a1.92,1.92,0,0,1-1.74.56,1.53,1.53,0,0,1-1-.94.49.49,0,0,1,.07-.45,25.49,25.49,0,0,0,1.78-3.23A21.81,21.81,0,0,0,306,94.46c.22-3.24-1.83-9-3.82-14.59-1.55-4.34-3.15-8.83-3.67-12.14A27.42,27.42,0,0,1,313,40c12.86-6.84,24.79-4,40.24.75,15.24,4.69,66.62,25.85,67.13,26.06a53.52,53.52,0,0,0,15.26,3c8.82.48,23,2.39,23.14,2.41H509.2c.08,0,14.25-1.92,23.07-2.4a53.52,53.52,0,0,0,15.26-3c.51-.21,51.89-21.37,67.13-26.06C630.11,36,642,33.14,654.9,40a27.42,27.42,0,0,1,14.47,27.75c-.52,3.31-2.12,7.8-3.67,12.14-2,5.58-4,11.35-3.82,14.59A22.26,22.26,0,0,0,664,102a23.37,23.37,0,0,0,1.79,3.23.52.52,0,0,1,.06.45,1.53,1.53,0,0,1-1,.94,1.92,1.92,0,0,1-1.74-.56l-.8-.67c-1.35,6.42-2.11,6.5-2.45,6.53a.7.7,0,0,1-.74-.52,36.54,36.54,0,0,1-1.36-4.58c-.37.68-.87,1.3-1.5,1.31h0c-.9,0-1.32-1.18-1.46-1.57a36.4,36.4,0,0,1-1.36-7.1c-.53,2.63-1.27,5.15-2.19,5.42a.85.85,0,0,1-.93-.33c-1.33-1.55-1.2-7.66-1.12-9.79-2.84.62-6.09,1.14-6.79.44a.87.87,0,0,1-.26-.66c0-.79,1-2,1.8-2.81-3.22,0-6.67-.31-7.17-1.2a.7.7,0,0,1,0-.75,2.17,2.17,0,0,1,.46-.62l.2-.46c-.51-.34-2.91-.36-4.09-.37-2.14,0-2.86,0-3-.6a.65.65,0,0,1,.35-.76c1.15-.76,6-4.49,7.91-5.91-1.26-.5-3.38-1.52-3.78-2.92-.07-.24-.2-.7.13-1s.71-.1,1.18.13a7,7,0,0,0,5.52.48c5.12-1.54,13.91-5.59,15.29-15.47a15,15,0,0,0-3.11-11.71c-3.17-4-8.23-6.46-14.24-7-4.55-.38-22.47,4-82.09,27.26L554.59,72c-.37.12-1.37.3-3.42.66-5.39.94-16.61,2.92-23.49,5.82-9.29,3.91-12.83,16.59-14.15,26.55-1.59,11.88-4.68,20.17-10.68,28.61-6.72,9.46-9.4,15-11.45,23.64-1,4.35.68,8.86,2.34,13.21,1.8,4.74,3.51,9.22,2,13.55a77.71,77.71,0,0,1-6.66,13.86c-.57,1-1,1.73-1.3,2.31-1.18,2.35-1.31,6.73-.52,7.92a1.16,1.16,0,0,0,.77.41c.83.15,4.17.17,12.48-5.83s9.18-9.76,9.18-9.8a.5.5,0,0,1,.44-.39.49.49,0,0,1,.51.29,30.61,30.61,0,0,1,0,21.78c-3.15,8.58-4.38,23-5.57,36.87-.44,5.19-.86,10.1-1.38,14.74a72.43,72.43,0,0,0-.47,12.64c.18,3.89.23,4.93-3.68,11.09-3.18,5-6,9.83-8.25,13.7a80,80,0,0,1-4.48,7.26A5.56,5.56,0,0,1,482.75,312.81Zm-25-118.41a30.63,30.63,0,0,0,.45,19.86c3.19,8.7,4.43,23.16,5.63,37.13.44,5.19.86,10.09,1.37,14.71a70.48,70.48,0,0,1,.39,13.43c-.23,4-.31,5.55,3.39,11.38,3.37,5.32,6.22,10.35,8.29,14a64.42,64.42,0,0,0,3.69,6.14,2.32,2.32,0,0,0,1.8.75,4.61,4.61,0,0,0,3.29-1.56c.68-.79,2.31-3.58,4.38-7.12,2.26-3.87,5.08-8.7,8.27-13.73,3.73-5.89,3.69-6.78,3.52-10.5a73.57,73.57,0,0,1,.48-12.8c.51-4.63.93-9.53,1.38-14.72,1.19-14,2.43-28.42,5.62-37.12a30.63,30.63,0,0,0,.45-19.86c-.86,1.66-3.15,4.86-9.07,9.13s-10.69,6.46-13.24,6a2,2,0,0,1-1.42-.84c-1.07-1.6-.83-6.35.45-8.92.31-.6.76-1.38,1.33-2.36a76.86,76.86,0,0,0,6.59-13.7c1.4-4-.24-8.29-2-12.85s-3.48-9.15-2.38-13.8c2.08-8.8,4.8-14.4,11.61-24,6-8.41,8.91-16.3,10.5-28.17,1.36-10.21,5-23.24,14.75-27.33,7-2.95,18.28-4.93,23.71-5.89,1.65-.29,3-.52,3.27-.62L557.09,70C604.42,51.53,633,42.08,639.63,42.65c6.29.53,11.6,3.14,15,7.33a16,16,0,0,1,3.31,12.48c-1.46,10.43-10.64,14.68-16,16.29a7.94,7.94,0,0,1-5.87-.36,9.38,9.38,0,0,0,3.71,2,.47.47,0,0,1,.34.39.49.49,0,0,1-.18.48c-.27.2-5.72,4.38-8,6l1.42,0c2.76,0,4.47.1,5,.86a.89.89,0,0,1,.06.84c-.31.71-.43,1-.6,1.09.92.38,4.37.62,7.35.62a.5.5,0,0,1,.34.87,9.29,9.29,0,0,0-2.35,2.89c.68.22,3.82-.25,6.47-.86a.49.49,0,0,1,.61.51c-.17,3.14-.11,8.49.81,9.71.63-.69,1.55-4.76,2-8.36a.48.48,0,0,1,.51-.43.49.49,0,0,1,.48.47c0,.07.49,7.42,1.66,10.69.29.82.52.9.52.9.24,0,.82-1,1.18-2.09a.51.51,0,0,1,.5-.35.5.5,0,0,1,.46.39s.81,3.63,1.48,5.47a40.77,40.77,0,0,0,1.63-6.18.51.51,0,0,1,.33-.37.49.49,0,0,1,.49.09l1.44,1.2c.34.28.65.42.83.37a.44.44,0,0,0,.18-.12,26.34,26.34,0,0,1-1.7-3.12,23.17,23.17,0,0,1-2.16-7.92c-.23-3.44,1.86-9.31,3.88-15,1.53-4.29,3.11-8.74,3.62-12a26.39,26.39,0,0,0-14-26.71c-12.52-6.65-24.26-3.85-39.47.83s-66.54,25.82-67.05,26a54.9,54.9,0,0,1-15.59,3.11c-8.78.47-22.91,2.38-23.05,2.4H458.68c-.21,0-14.34-1.93-23.12-2.4A54.77,54.77,0,0,1,420,67.72c-.52-.21-51.86-21.36-67.05-26s-27-7.48-39.48-.83A26.4,26.4,0,0,0,299.5,67.57c.51,3.22,2.09,7.67,3.62,12,2,5.68,4.11,11.55,3.88,15a23.17,23.17,0,0,1-2.16,7.92,26.34,26.34,0,0,1-1.7,3.12.44.44,0,0,0,.18.12c.19,0,.49-.09.83-.37l1.45-1.2a.47.47,0,0,1,.48-.09.51.51,0,0,1,.33.37,39.92,39.92,0,0,0,1.63,6.18c.68-1.88,1.47-5.43,1.48-5.47a.5.5,0,0,1,.46-.39.53.53,0,0,1,.5.35c.36,1.13.94,2.07,1.18,2.09,0,0,.23-.08.52-.9,1.17-3.27,1.65-10.62,1.66-10.69a.49.49,0,0,1,.48-.47.48.48,0,0,1,.51.43c.5,3.59,1.42,7.65,2.05,8.35.92-1.31,1-6.59.81-9.7a.49.49,0,0,1,.61-.51c2.65.61,5.79,1.08,6.47.86a9.53,9.53,0,0,0-2.35-2.89.51.51,0,0,1-.13-.55.5.5,0,0,1,.47-.32c3,0,6.43-.24,7.35-.62-.17-.09-.29-.38-.6-1.09a.89.89,0,0,1,.06-.84c.5-.76,2.21-.83,5-.86l1.42,0c-2.29-1.66-7.71-5.82-8-6a.5.5,0,0,1-.19-.48.47.47,0,0,1,.34-.39,9.38,9.38,0,0,0,3.72-2.06,7.92,7.92,0,0,1-5.88.37c-5.35-1.61-14.53-5.86-16-16.29A16,16,0,0,1,313.31,50c3.35-4.19,8.65-6.8,14.94-7.33,6.68-.57,35.21,8.88,82.54,27.32l2.82,1.09c.31.1,1.62.33,3.27.62,5.43,1,16.72,2.94,23.71,5.89,9.51,4,12.36,16.71,13.78,27.33,1.58,11.87,4.52,19.76,10.49,28.17,6.24,8.78,10.36,14.58,12.59,24,1.1,4.65-.67,9.3-2.38,13.8s-3.37,8.87-2,12.85a77,77,0,0,0,6.58,13.7c.57,1,1,1.76,1.33,2.36,1.28,2.57,1.52,7.32.45,8.92a2,2,0,0,1-1.42.84c-2.56.47-7.25-1.67-13.24-6S458.61,196.06,457.74,194.4Z" style="fill:#263238"></path><path d="M657.1,53.61c-.54-6.37-7.7-10.08-13.53-11.94s-14.85.8-14.85.8-74.53,27.32-79.57,28.64-22,4-22,4a54.07,54.07,0,0,1,7.69-2.39,158.78,158.78,0,0,0,19.89-6.63C559.5,64,618.37,41.41,631.1,39.55a60.39,60.39,0,0,1,22.59.87c-12.63-6.71-24.47-4-39.86.79s-67.09,26.05-67.09,26.05a53.87,53.87,0,0,1-15.43,3.07c-8.9.48-23.09,2.4-23.09,2.4H458.68s-14.19-1.92-23.09-2.4a53.87,53.87,0,0,1-15.43-3.07S368.46,46,353.07,41.21s-27.23-7.5-39.86-.79a60.39,60.39,0,0,1,22.59-.87c12.73,1.86,71.6,24.4,76.38,26.52a158.78,158.78,0,0,0,19.89,6.63,54.07,54.07,0,0,1,7.69,2.39s-17-2.65-22-4-79.57-28.64-79.57-28.64-9-2.65-14.85-.8-13,5.57-13.53,11.94.69,8.78.69,8.78C309,52,317,44.11,328.29,43.14S412,71.05,413.45,71.53s17.8,2.65,26.95,6.5,12,16.12,13.47,26.94,4.09,19.25,10.58,28.39S474.8,148,477,157.18s-7.21,18.52-4.33,26.7,6.74,13.71,7.94,16.12,1.45,7,.48,8.42-5.29,1-13.95-5.3-9.38-10.1-9.38-10.1a30.4,30.4,0,0,0,0,21.41c4.33,11.79,5,34.4,7,51.72s-2.4,15.16,3.85,25,10.59,18.53,12,20.21c1,1.17,4.12,1.18,5.12,0,1.45-1.69,6.41-10.36,12.67-20.23s2.93-8.55,4.86-25.87,2.61-39.08,6.94-50.87-.28-20.87-.28-20.87-2.57,4.42-11.23,10.67-10.86,5.63-11.82,4.19-.7-6.62.5-9,5-7.34,7.92-15.52-6.52-18.15-4.36-27.29,5.06-14.09,11.56-23.23S511.59,115.8,513,105,517.36,81.88,526.5,78s25.5-6,27-6.5,73.85-29.35,85.16-28.39,19.25,8.9,17.8,19.25C656.41,62.39,657.63,60,657.1,53.61Z" style="fill:#263238"></path><path d="M483.15,312.76h0a3.93,3.93,0,0,1-3-1.05,61,61,0,0,1-3.8-6.29c-2.07-3.66-4.9-8.67-8.27-14-3.87-6.1-3.77-7.82-3.53-12a71.45,71.45,0,0,0-.39-13.27c-.52-4.64-.94-9.54-1.38-14.73-1.19-13.91-2.42-28.3-5.57-36.88a30.61,30.61,0,0,1,0-21.78.5.5,0,0,1,.95.11s.86,3.78,9.18,9.79,11.66,6,12.48,5.83a1.16,1.16,0,0,0,.77-.41c.79-1.19.66-5.57-.52-7.92-.28-.58-.73-1.34-1.3-2.31a77.71,77.71,0,0,1-6.66-13.86c-1.52-4.33.18-8.81,2-13.55,1.66-4.35,3.37-8.86,2.34-13.21-2.19-9.22-6.26-15-12.43-23.64-6-8.44-9.09-16.73-10.68-28.61C452,94.68,449.25,82.29,440.2,78.49c-6.88-2.9-18.1-4.87-23.49-5.82-2-.36-3-.54-3.42-.66l-2.86-1.11c-59.63-23.23-77.57-27.65-82.1-27.26-6,.51-11.07,3-14.24,7A15,15,0,0,0,311,62.32a.5.5,0,0,1-.34.55.51.51,0,0,1-.6-.26c-.05-.1-1.27-2.61-.73-9,.59-7.12,8.94-10.81,13.87-12.37,5.91-1.89,14.77.68,15.14.79.78.28,74.6,27.33,79.55,28.64,3,.78,10.21,2,15.57,2.93L432,73.19a162,162,0,0,1-20-6.66C406.63,64.16,348.41,41.9,335.72,40a60.82,60.82,0,0,0-22.37.86.5.5,0,0,1-.6-.29A.49.49,0,0,1,313,40c12.86-6.84,24.79-4,40.24.75,15.24,4.69,66.62,25.85,67.13,26.06a53.52,53.52,0,0,0,15.26,3c8.82.48,23,2.39,23.14,2.41h49.47c.07,0,14.25-1.92,23.07-2.4a53.52,53.52,0,0,0,15.26-3c.51-.21,51.89-21.37,67.13-26.06,15.45-4.75,27.37-7.59,40.24-.75a.49.49,0,0,1,.23.63.5.5,0,0,1-.6.29A60.82,60.82,0,0,0,631.18,40c-12.69,1.86-70.91,24.12-76.26,26.49a161.77,161.77,0,0,1-20,6.66c-.52.12-1,.24-1.48.37,5.35-.89,12.59-2.15,15.56-2.93,5-1.31,78.77-28.36,79.51-28.63.41-.12,9.27-2.69,15.18-.8,4.93,1.56,13.28,5.25,13.87,12.37h0c.54,6.43-.68,8.94-.73,9a.51.51,0,0,1-.6.26.5.5,0,0,1-.34-.55,15,15,0,0,0-3.11-11.71c-3.17-4-8.23-6.46-14.24-7-4.56-.38-22.47,4-82.1,27.26L553.61,72c-.37.12-1.37.3-3.42.66-5.39,1-16.61,2.92-23.49,5.82-9.05,3.8-11.79,16.19-13.17,26.55-1.59,11.88-4.68,20.17-10.68,28.61-6.65,9.36-9.39,14.26-11.47,23-1,4.35.69,9,2.35,13.5,1.81,4.89,3.52,9.52,2,13.85a64.48,64.48,0,0,1-6.52,13.15c-.62,1-1.11,1.8-1.42,2.42-1.17,2.35-1.34,7.31-.54,8.52a1.47,1.47,0,0,0,1,.7c1.68.3,5.07-1.38,10.09-5,8.45-6.1,11.06-10.48,11.09-10.53a.53.53,0,0,1,.45-.24.5.5,0,0,1,.43.27c.19.38,4.66,9.42.3,21.27-3.16,8.61-4.38,22.72-5.56,36.35-.41,4.83-.85,9.82-1.36,14.41A112,112,0,0,0,503,277.9c-.05,5.24-.06,7-4.21,13.54-2.71,4.27-5.21,8.38-7.22,11.67-2.7,4.43-4.64,7.63-5.49,8.61A3.88,3.88,0,0,1,483.15,312.76ZM457.74,194.4a30.63,30.63,0,0,0,.45,19.86c3.19,8.7,4.43,23.16,5.63,37.13.44,5.19.86,10.09,1.37,14.71a70.48,70.48,0,0,1,.39,13.43c-.22,4-.31,5.55,3.39,11.38,3.37,5.32,6.22,10.35,8.29,14a64.42,64.42,0,0,0,3.69,6.14,3.06,3.06,0,0,0,2.2.7h0a3,3,0,0,0,2.16-.69c.79-.92,2.83-4.26,5.4-8.48,2-3.3,4.51-7.41,7.22-11.68,4-6.3,4-7.86,4.06-13a112.06,112.06,0,0,1,.73-12.64c.51-4.58.94-9.56,1.36-14.38,1.18-13.71,2.4-27.87,5.61-36.61a28.13,28.13,0,0,0,.1-19.67c-1.13,1.55-4.21,5.26-10.84,10-5.4,3.9-8.85,5.55-10.85,5.19a2.48,2.48,0,0,1-1.69-1.14c-1.07-1.61-.81-6.95.48-9.52.33-.65.83-1.47,1.46-2.5a64.17,64.17,0,0,0,6.43-13c1.4-4-.25-8.44-2-13.17s-3.48-9.42-2.38-14.07c2.12-9,4.89-13.92,11.63-23.4,6-8.41,8.91-16.3,10.5-28.17,1.41-10.62,4.26-23.33,13.77-27.33,7-2.95,18.28-4.93,23.71-5.89,1.65-.29,3-.52,3.27-.62L556.11,70q17.94-7,32.23-12.24C569.94,64.4,551.72,71,549.28,71.59c-5,1.32-21.37,3.89-22.06,4a.5.5,0,0,1-.27-1,53.36,53.36,0,0,1,7.77-2.41,159.09,159.09,0,0,0,19.8-6.61c5.35-2.37,63.75-24.69,76.51-26.55a64.22,64.22,0,0,1,18.63.06c-11.15-4.32-22-1.64-35.69,2.57-15.19,4.67-66.53,25.82-67,26a55,55,0,0,1-15.59,3.11c-8.78.47-22.91,2.38-23.05,2.4H458.68c-.21,0-14.34-1.93-23.12-2.4A54.77,54.77,0,0,1,420,67.72c-.52-.21-51.86-21.36-67.05-26-13.68-4.21-24.54-6.9-35.69-2.57a64.22,64.22,0,0,1,18.63-.06c12.76,1.86,71.16,24.18,76.51,26.55a158.54,158.54,0,0,0,19.8,6.61A53.36,53.36,0,0,1,440,74.63a.5.5,0,0,1-.27,1c-.69-.1-17.05-2.67-22.06-4C415.18,71,397,64.41,378.57,57.73Q392.84,63,410.79,70l2.82,1.09c.31.1,1.62.33,3.27.62,5.43,1,16.72,2.94,23.71,5.89,9.51,4,12.36,16.71,13.78,27.33,1.58,11.87,4.52,19.76,10.49,28.17,6.24,8.78,10.36,14.58,12.59,24,1.1,4.65-.67,9.3-2.38,13.8s-3.37,8.87-2,12.85a77,77,0,0,0,6.58,13.7c.57,1,1,1.76,1.33,2.36,1.28,2.57,1.52,7.32.45,8.92a2,2,0,0,1-1.42.84c-2.56.46-7.25-1.67-13.24-6S458.61,196.06,457.74,194.4ZM638,42.62a5.85,5.85,0,0,1,.62,0c6.29.53,11.59,3.14,14.94,7.33a15.67,15.67,0,0,1,3.14,6.58c0-.86,0-1.83-.13-2.91h0c-.55-6.53-8.49-10-13.18-11.5-5.62-1.79-14.47.77-14.56.8-1.34.49-16.15,5.92-32.67,11.93C618.69,46.8,632.92,42.62,638,42.62Zm-309.75-1.1a16.2,16.2,0,0,0-4.8.63c-4.69,1.49-12.63,5-13.18,11.5-.09,1.08-.13,2.05-.13,2.9A15.69,15.69,0,0,1,313.31,50c3.35-4.19,8.65-6.8,14.94-7.33,4.5-.39,19,3.79,42.44,12.22-16.51-6-31.33-11.44-32.68-11.93A40.32,40.32,0,0,0,328.28,41.52Z" style="fill:#263238"></path><path d="M439.76,75.09a54.37,54.37,0,0,0,8,1.39c3.93.5,9.57,1,17.49,1.52,19.93,1.17,51.59-1.41,51.59-1.41l10.34-1.5S515.4,78.7,513.05,86.67s-3.94,24.15-7.27,35.42-15,19.7-17.82,27.2-1.18,18.3.7,23.69,4,5.63.94,13.37-5.16,9.15-5.16,13.84-.71,9.61,2.11,9.85,11.49-1.65,14.54-5.4,5.39-8.91,6.33-1.17S507,215,507,215A164.21,164.21,0,0,0,502,246.62c-.71,16.19-3.29,37.29-3.52,39.17s-8.79,15.89-10.66,19.41-2.34,4.52-2.34,4.52h-3.67s-1.62-1-4.44-7.28S468,285.79,468,280.86s-5.16-55.58-6.33-62.85-2.35-18.29-2.35-18.29,4.93,5.86,8.21,7.5,13.6,4.46,15,3.75,1.41-8.2-1.87-14.54-7-12-5.63-19.93,6.09-12,3.75-20.64-12-24.16-14.78-30.72-3.75-21.35-7.5-32.37S439.76,75.09,439.76,75.09Z" style="fill:#FF725E"></path><path d="M485.51,310.22h-3.67a.45.45,0,0,1-.25-.07c-.18-.1-1.85-1.21-4.64-7.51-.86-1.93-2.07-4.23-3.35-6.67-3-5.69-6.08-11.57-6.08-15.11,0-4.62-5.08-55.07-6.32-62.77-1.17-7.2-2.34-18.21-2.35-18.32a.48.48,0,0,1,.3-.51.5.5,0,0,1,.58.14s4.89,5.8,8,7.37c3.5,1.76,13.43,4.31,14.56,3.76a1.12,1.12,0,0,0,.32-.58c.7-2.17.25-8.14-2.42-13.29l-1.15-2.18c-3-5.58-5.8-10.85-4.53-18.07a37.59,37.59,0,0,1,2.3-7.43c1.58-4,2.94-7.54,1.47-13s-6.08-14-9.76-20.88c-2.14-4-4-7.41-5-9.78-1.4-3.27-2.31-8.36-3.36-14.26S458,98.52,456.06,92.93c-3.65-10.7-16.4-17.33-16.53-17.4a.49.49,0,0,1-.23-.63.51.51,0,0,1,.61-.29A54.51,54.51,0,0,0,447.78,76c4.76.61,10.63,1.12,17.46,1.52,19.67,1.15,51.21-1.38,51.52-1.41l10.31-1.5a.5.5,0,0,1,.22,1c-.12,0-11.52,3.62-13.76,11.24-1.06,3.61-2,9-3,14.7a191.85,191.85,0,0,1-4.31,20.72c-1.93,6.52-6.61,12.11-10.74,17-3,3.63-5.92,7-7.1,10.2-2.8,7.47-1.05,18.28.71,23.35.43,1.23.87,2.19,1.26,3,1.35,2.92,2.09,4.53-.33,10.67a71.82,71.82,0,0,1-3,6.57c-1.34,2.66-2.14,4.27-2.14,7.09,0,.8,0,1.61,0,2.4-.11,4.23,0,6.8,1.69,6.95,2.66.22,11.19-1.62,14.11-5.21.54-.66,1.05-1.37,1.54-2,1.48-2,2.65-3.61,3.84-3.3.94.24,1.49,1.57,1.84,4.42.94,7.77-.44,11.57-.5,11.73a165.15,165.15,0,0,0-4.89,31.5c-.73,16.72-3.41,38.3-3.52,39.21-.17,1.29-3.36,6.85-7.51,14-1.42,2.43-2.64,4.52-3.21,5.6-1.84,3.45-2.32,4.49-2.33,4.5A.49.49,0,0,1,485.51,310.22Zm-3.5-1h3.18c.25-.5.87-1.73,2.21-4.26.59-1.09,1.81-3.2,3.23-5.63,2.88-4.94,7.23-12.41,7.38-13.6.12-.91,2.79-22.46,3.52-39.13a166.68,166.68,0,0,1,4.94-31.77c0-.08,1.36-3.8.46-11.3-.4-3.23-1-3.55-1.1-3.57-.55-.16-1.83,1.63-2.78,2.92-.5.69-1,1.4-1.57,2.08-3.18,3.91-12.07,5.82-15,5.57-1.74-.14-2.37-1.64-2.57-3.71a10.59,10.59,0,0,1-.33,3.44,1.87,1.87,0,0,1-.82,1.16c-1.73.86-12.39-2.21-15.46-3.75-2.44-1.22-5.67-4.6-7.32-6.43.37,3.32,1.28,11.14,2.17,16.69,1.25,7.71,6.34,58.29,6.34,62.93,0,3.29,3.17,9.32,6,14.65,1.29,2.45,2.51,4.76,3.38,6.73C480.15,307.39,481.63,308.9,482,309.22Zm-39.31-233c4.07,2.61,11.55,8.31,14.3,16.38,1.93,5.66,3.13,12.37,4.19,18.29,1,5.59,1.95,10.88,3.3,14,1,2.33,2.84,5.74,5,9.69,3.71,6.89,8.32,15.47,9.84,21.1s.07,9.58-1.5,13.61a36.81,36.81,0,0,0-2.24,7.25c-1.21,6.87,1.52,12,4.42,17.42.39.72.78,1.45,1.16,2.19a26.44,26.44,0,0,1,2.75,9.49c0-1,0-2,0-3.13,0-.78,0-1.58,0-2.37,0-3.06.84-4.75,2.25-7.54.81-1.61,1.81-3.61,2.94-6.48,2.26-5.75,1.63-7.13.35-9.9a30.82,30.82,0,0,1-1.29-3.13c-1.88-5.39-3.62-16.25-.7-24,1.24-3.31,4.16-6.8,7.26-10.49,4.07-4.86,8.68-10.36,10.55-16.68a191.21,191.21,0,0,0,4.29-20.61c1-5.73,1.91-11.15,3-14.81,1.53-5.2,6.8-8.56,10.53-10.35l-6.23.9c-.34,0-32,2.58-51.69,1.42-6.85-.41-12.75-.92-17.52-1.53C445.54,76.7,443.91,76.45,442.7,76.23Z" style="fill:#263238"></path></g><g id="freepik--Zoom--inject-2"><circle cx="279.45" cy="153.27" r="126.89" style="fill:#263238"></circle><path d="M279.45,280.66A127.39,127.39,0,1,1,406.84,153.27,127.54,127.54,0,0,1,279.45,280.66Zm0-253.78A126.39,126.39,0,1,0,405.84,153.27,126.53,126.53,0,0,0,279.45,26.88Z" style="fill:#263238"></path><circle cx="277.29" cy="150.25" r="126.89" style="fill:#fff"></circle><path d="M277.29,277.65a127.4,127.4,0,1,1,127.4-127.4A127.54,127.54,0,0,1,277.29,277.65Zm0-253.79a126.4,126.4,0,1,0,126.4,126.39A126.54,126.54,0,0,0,277.29,23.86Z" style="fill:#263238"></path><circle cx="277.29" cy="150.25" r="120.85" style="fill:#fff"></circle><path d="M277.29,271.6A121.35,121.35,0,1,1,398.64,150.25,121.48,121.48,0,0,1,277.29,271.6Zm0-241.69A120.35,120.35,0,1,0,397.64,150.25,120.47,120.47,0,0,0,277.29,29.91Z" style="fill:#263238"></path><path d="M162.06,154.93A120.86,120.86,0,0,1,357.31,59.7,120.84,120.84,0,1,0,202.89,245.48,120.57,120.57,0,0,1,162.06,154.93Z" style="fill:#263238"></path><path d="M202.89,246a.49.49,0,0,1-.3-.1,121.34,121.34,0,1,1,155-186.55.5.5,0,0,1,.05.69.49.49,0,0,1-.69.07,119.18,119.18,0,0,0-74.09-25.5,120.33,120.33,0,0,0-79.68,210.52.5.5,0,0,1-.34.87Zm74.4-216.07a120.36,120.36,0,0,0-86.18,204.36,121.33,121.33,0,0,1,91.8-200.68,120.12,120.12,0,0,1,60.57,16.15A120.19,120.19,0,0,0,277.29,29.91Z" style="fill:#263238"></path><path d="M273.23,234.72c-16.64,0-29.08-7-39.46-12.79l-2.27-1.27c-14.07-7.82-29.9-35.16-36.17-51.18-5.66-14.45-.82-27.54,2.38-36.2.66-1.79,1.28-3.48,1.73-4.94.66-2.18,1.31-5,2.07-8.16,2.15-9.09,5.09-21.53,10.73-29.43,7.74-10.84,27.64-22,38.44-25.64s38-7.67,51.63-2.62C315.46,67.38,335,83.81,342.58,93c11.32,13.59,18.1,30.21,20.71,50.81,3.23,25.52-4.07,34.89-4.93,35.89A85.94,85.94,0,0,1,335,212c-17.33,15.06-24.73,16.55-49.28,21.46A64.16,64.16,0,0,1,273.23,234.72Zm12-173.55c-12.81,0-27.33,2.58-34.26,4.89-10.67,3.55-30.32,14.6-37.95,25.27-5.52,7.74-8.44,20.07-10.57,29.08-.76,3.23-1.42,6-2.09,8.22-.45,1.49-1.08,3.19-1.74,5-3.34,9-7.91,21.4-2.39,35.5,6.22,15.88,21.87,43,35.72,50.67l2.28,1.27c12.69,7.11,28.49,16,51.3,11.4,24.35-4.87,31.7-6.33,48.82-21.23a84.52,84.52,0,0,0,23.07-32,.54.54,0,0,1,.11-.18c.08-.09,8-9.19,4.74-35.17-2.59-20.4-9.29-36.85-20.49-50.29C334.25,84.53,315,68.26,302,63.43,297.58,61.8,291.63,61.17,285.26,61.17Z" style="fill:#263238"></path><path d="M346.37,171.21c3.79-7.19,4.15-16.05,3.53-24-1.49-19.22-6.19-40.91-21.78-53.7-20.25-16.62-50.9-22.85-78.17-5.45s-35.58,41.29-36.88,54.54,12.47,25.45,21.82,33.24,15.06,9.35,22.59,16.88,18.95,21.55,37.12,20c12.67-1.08,24.69-9.23,33.78-17.61a74.35,74.35,0,0,0,13.46-16.18C343.31,176.48,345,173.9,346.37,171.21Z" style="fill:#FF725E"></path><path d="M291.87,213.33c-15.09,0-25.43-10.67-32.4-17.87-.82-.85-1.6-1.65-2.34-2.39a63.35,63.35,0,0,0-11.67-9,102.39,102.39,0,0,1-10.9-7.84c-7.59-6.32-23.38-19.48-22-33.67.77-7.82,5.71-34.88,37.11-54.91,29.92-19.1,61.13-9,78.76,5.48,12.77,10.49,20,28.16,22,54.05.79,10.26-.38,18.2-3.59,24.28-1.11,2.1-2.34,4.12-3.53,6.07l-1,1.67a74.75,74.75,0,0,1-13.55,16.29c-8.09,7.46-20.58,16.59-34.08,17.74C293.7,213.29,292.77,213.33,291.87,213.33ZM284.6,78.14a63.14,63.14,0,0,0-34.38,10.33c-31,19.79-35.9,46.46-36.65,54.17-1.34,13.66,14.18,26.59,21.64,32.81A101.53,101.53,0,0,0,246,183.21a65.37,65.37,0,0,1,11.83,9.15c.75.74,1.53,1.55,2.36,2.4,7.26,7.5,18.23,18.83,34.37,17.45,13.22-1.12,25.5-10.12,33.48-17.48a73.75,73.75,0,0,0,13.37-16.06c.33-.56.67-1.11,1-1.68,1.18-1.94,2.4-4,3.49-6l.45.24-.45-.24c3.12-5.9,4.26-13.67,3.48-23.73-2-25.6-9-43.05-21.59-53.35C317.25,85.23,301.75,78.14,284.6,78.14Z" style="fill:#263238"></path><path d="M291.54,208.33c-6.47,0-12.6-2.08-18.67-6.33a.5.5,0,0,1-.12-.7.49.49,0,0,1,.69-.12c6.68,4.68,13.44,6.66,20.64,6a33.75,33.75,0,0,0,5.81-1,.5.5,0,0,1,.26,1,35.93,35.93,0,0,1-6,1.05C293.29,208.29,292.41,208.33,291.54,208.33Z" style="fill:#263238"></path><path d="M266.46,196.53a.49.49,0,0,1-.34-.14c-1.71-1.61-3.29-3.25-4.69-4.69-.76-.79-1.49-1.54-2.18-2.23a58.74,58.74,0,0,0-10.84-8.37,96.82,96.82,0,0,1-10.14-7.3c-7.06-5.88-21.76-18.13-20.47-31.35.62-6.31,4.47-28.33,27.92-46.45a.5.5,0,0,1,.61.79c-23.14,17.88-26.92,39.55-27.53,45.76C217.55,155.24,232,167.26,238.91,173a96.59,96.59,0,0,0,10,7.22,60.44,60.44,0,0,1,11,8.51c.69.69,1.42,1.44,2.19,2.23,1.39,1.44,3,3.06,4.65,4.67a.49.49,0,0,1,0,.7A.48.48,0,0,1,266.46,196.53Z" style="fill:#263238"></path><path d="M264.2,86.43a.5.5,0,0,1-.17-1,58.86,58.86,0,0,1,11.23-3,.48.48,0,0,1,.57.41.49.49,0,0,1-.41.57,58.79,58.79,0,0,0-11,3A.57.57,0,0,1,264.2,86.43Z" style="fill:#263238"></path><path d="M345.35,144.85a.5.5,0,0,1-.49-.46c-2.08-22.46-8.58-37.89-19.87-47.15a62.74,62.74,0,0,0-42.47-14.58.5.5,0,0,1,0-1,63.81,63.81,0,0,1,43.14,14.8c11.51,9.45,18.13,25.1,20.23,47.84a.5.5,0,0,1-.45.55Z" style="fill:#263238"></path><ellipse cx="315.97" cy="180.11" rx="21.87" ry="15.65" transform="translate(-34.81 276.17) rotate(-45)" style="fill:#fff;opacity:0.33"></ellipse><path d="M305.63,192.28c-2-2-1.37-6,1.46-8.8s6.78-3.49,8.81-1.46,1.37,6-1.46,8.8S307.66,194.31,305.63,192.28Z" style="fill:#fff;opacity:0.33"></path><path d="M231.74,220.22c13.48,7.49,29.58,17.6,53.92,12.73s31.83-6.36,49-21.34,23.22-32.2,23.22-32.2,8.23-9,4.86-35.57A109.81,109.81,0,0,0,355.36,115a105.35,105.35,0,0,1,6.18,26.25c2.9,25.64-5.17,34.43-5.17,34.43s-6,16.72-22.86,31.42-24.1,16.25-47.68,21.28-39-4.53-51.92-11.58-27.76-32.17-34-48.72,1.87-31.13,4.52-39.48,5.43-26.12,12.8-36.35,26.34-21.34,37.24-25.11,37-7.74,49.59-3.21c.86.3,1.74.66,2.64,1.07a46.55,46.55,0,0,0-4.53-2c-13.1-4.87-40.06-1.12-51.29,2.62s-30.71,15-38.2,25.46-10.11,28.84-12.73,37.45-10.85,23.59-4.11,40.81S218.26,212.74,231.74,220.22Z" style="opacity:0.15"></path><path d="M273.23,234.72c-16.64,0-29.08-7-39.46-12.79l-2.27-1.27c-14.07-7.82-29.9-35.16-36.17-51.18-5.66-14.45-.82-27.54,2.38-36.2.66-1.79,1.28-3.48,1.73-4.94.66-2.18,1.31-5,2.07-8.16,2.15-9.09,5.09-21.53,10.73-29.43,7.74-10.84,27.64-22,38.44-25.64s38-7.67,51.63-2.62C315.46,67.38,335,83.81,342.58,93c11.32,13.59,18.1,30.21,20.71,50.81,3.23,25.52-4.07,34.89-4.93,35.89A85.94,85.94,0,0,1,335,212c-17.33,15.06-24.73,16.55-49.28,21.46A64.16,64.16,0,0,1,273.23,234.72Zm12-173.55c-12.81,0-27.33,2.58-34.26,4.89-10.67,3.55-30.32,14.6-37.95,25.27-5.52,7.74-8.44,20.07-10.57,29.08-.76,3.23-1.42,6-2.09,8.22-.45,1.49-1.08,3.19-1.74,5-3.34,9-7.91,21.4-2.39,35.5,6.22,15.88,21.87,43,35.72,50.67l2.28,1.27c12.69,7.11,28.49,16,51.3,11.4,24.35-4.87,31.7-6.33,48.82-21.23a84.52,84.52,0,0,0,23.07-32,.54.54,0,0,1,.11-.18c.08-.09,8-9.19,4.74-35.17-2.59-20.4-9.29-36.85-20.49-50.29C334.25,84.53,315,68.26,302,63.43,297.58,61.8,291.63,61.17,285.26,61.17Z" style="fill:#263238"></path><path d="M354.73,221.86a10,10,0,0,1-7.08-2.93h0a10,10,0,0,1,0-14.18,10,10,0,1,1,7.08,17.11Zm0-19a9,9,0,0,0-6.38,15.4h0a9,9,0,1,0,6.38-15.4Z" style="fill:#263238"></path><path d="M317.08,239.16a7.43,7.43,0,1,1,5.25-2.17A7.38,7.38,0,0,1,317.08,239.16Zm0-13.85a6.43,6.43,0,0,0-4.54,11h0a6.43,6.43,0,0,0,11-4.54,6.42,6.42,0,0,0-6.43-6.43Z" style="fill:#263238"></path><path d="M183.09,124.08h0a10.24,10.24,0,1,1,7.24-3A10.17,10.17,0,0,1,183.09,124.08Zm0-19.48a9.24,9.24,0,1,0,6.53,2.7A9.22,9.22,0,0,0,183.09,104.6Z" style="fill:#263238"></path><path d="M180.26,169.53a4.82,4.82,0,0,1-3.42-1.41h0a4.84,4.84,0,1,1,3.42,1.41Zm-2.71-2.12a3.83,3.83,0,0,0,5.41,0,3.84,3.84,0,0,0,0-5.42,3.83,3.83,0,0,0-5.41,5.42Z" style="fill:#263238"></path><path d="M252.19,58.56a7.4,7.4,0,0,1-5.25-2.17h0a7.44,7.44,0,1,1,5.25,2.17Zm-4.54-2.88a6.42,6.42,0,1,0,0-9.09,6.42,6.42,0,0,0,0,9.09Z" style="fill:#263238"></path><path d="M281,56.43a2.22,2.22,0,0,1-1.57-.65,2.22,2.22,0,0,1,0-3.16A2.23,2.23,0,1,1,281,56.43ZM281,53a1.23,1.23,0,1,0,.87.36A1.22,1.22,0,0,0,281,53Z" style="fill:#263238"></path><path d="M379.22,141.67a10,10,0,0,1-7.09-2.94h0a10,10,0,0,1,7.09-17.11,10,10,0,0,1,0,20Zm0-19a9,9,0,0,0-6.38,15.4h0a9,9,0,1,0,6.38-15.4Z" style="fill:#263238"></path><path d="M369.73,160.67a3.32,3.32,0,0,1-2.34-1h0a3.32,3.32,0,0,1,0-4.69,3.4,3.4,0,0,1,4.69,0,3.32,3.32,0,0,1-2.35,5.66Zm0-5.63a2.26,2.26,0,0,0-1.63.68,2.31,2.31,0,0,0,0,3.27h0a2.36,2.36,0,0,0,3.27,0,2.32,2.32,0,0,0-1.64-4Z" style="fill:#263238"></path><path d="M257.21,250.82a3.35,3.35,0,0,1-2.35-1h0a3.32,3.32,0,1,1,4.69,0A3.39,3.39,0,0,1,257.21,250.82Zm0-5.63a2.3,2.3,0,0,0-1.63.68,2.28,2.28,0,0,0-.68,1.63,2.3,2.3,0,0,0,.68,1.64h0a2.32,2.32,0,0,0,3.95-1.64,2.28,2.28,0,0,0-.68-1.63A2.31,2.31,0,0,0,257.2,245.19Z" style="fill:#263238"></path><path d="M354.14,81.63a4.4,4.4,0,1,1,3.1-1.29A4.36,4.36,0,0,1,354.14,81.63Zm0-7.79a3.4,3.4,0,1,0,2.4,1A3.38,3.38,0,0,0,354.14,73.84Z" style="fill:#263238"></path><path d="M290.55,133.3a15.87,15.87,0,0,0-.92,1.39q-.39.7-.72,1.47c-.45,1-.86,2.11-1.46,3.2a13.74,13.74,0,0,1-2.24,3,17.1,17.1,0,0,1-2.8,2.27c-1,.65-1.92,1.25-2.89,1.78-.48.27-1,.52-1.42.8a3.35,3.35,0,0,0-1.17,1.11,10.8,10.8,0,0,0-1.27,3.06,10,10,0,0,1-.46,1.58,5.08,5.08,0,0,1-1,1.45,4.71,4.71,0,0,0,1-1.46,9.93,9.93,0,0,0,.39-1.54,10.63,10.63,0,0,1,1.18-3.19,3.88,3.88,0,0,1,.59-.76,4.39,4.39,0,0,1,.73-.59c.49-.32,1-.59,1.44-.87,1-.58,1.88-1.2,2.79-1.87a17.06,17.06,0,0,0,2.56-2.23,11.81,11.81,0,0,0,1.89-2.75c.5-1,.85-2,1.27-3.08.21-.54.46-1.09.74-1.66a17.25,17.25,0,0,1,1-1.61Z" style="fill:#fff"></path><path d="M274.16,154.94a.51.51,0,0,1-.36-.85,4.25,4.25,0,0,0,.87-1.29,7,7,0,0,0,.29-1.14l.07-.33a11.21,11.21,0,0,1,1.24-3.33,4.72,4.72,0,0,1,.67-.86,4.55,4.55,0,0,1,.8-.65c.34-.23.68-.42,1-.62l.45-.27c.92-.56,1.85-1.18,2.76-1.85a15.87,15.87,0,0,0,2.48-2.16,11,11,0,0,0,1.81-2.63c.36-.71.64-1.45.94-2.22.1-.27.21-.55.32-.82a16.27,16.27,0,0,1,.76-1.7,15.49,15.49,0,0,1,1-1.67.5.5,0,0,1,.66-.16l.85.48a.51.51,0,0,1,.16.73,15.86,15.86,0,0,0-.88,1.34,15.61,15.61,0,0,0-.7,1.42c-.11.27-.23.53-.34.8a26.34,26.34,0,0,1-1.14,2.44,14.1,14.1,0,0,1-2.32,3.15,19.12,19.12,0,0,1-2.88,2.33c-1,.66-1.95,1.27-2.92,1.8l-.48.26-.94.52a2.88,2.88,0,0,0-1,1,10.19,10.19,0,0,0-1.2,2.91l-.08.33a9.44,9.44,0,0,1-.41,1.32,5.16,5.16,0,0,1-1.15,1.61A.47.47,0,0,1,274.16,154.94Z" style="fill:#263238"></path><path d="M290.73,130.41A35.9,35.9,0,0,1,294,127a1,1,0,0,1,1.34,1.46,32.26,32.26,0,0,0-4.37,5.07,1,1,0,0,1-1.68-1.07A21,21,0,0,1,290.73,130.41Z" style="fill:#fff"></path><path d="M290.07,134.46a1.44,1.44,0,0,1-.8-.24,1.5,1.5,0,0,1-.45-2.06,23,23,0,0,1,1.52-2.07h0a37.1,37.1,0,0,1,3.27-3.49,1.49,1.49,0,0,1,2.11.09,1.51,1.51,0,0,1-.08,2.11,30,30,0,0,0-4.3,5,1.5,1.5,0,0,1-.94.65A1.24,1.24,0,0,1,290.07,134.46Zm1-3.74h0a24.49,24.49,0,0,0-1.45,2,.48.48,0,0,0-.06.37.45.45,0,0,0,.21.31.55.55,0,0,0,.38.07.46.46,0,0,0,.3-.22,32,32,0,0,1,4.46-5.16.5.5,0,0,0,0-.71.49.49,0,0,0-.7,0A37.21,37.21,0,0,0,291.11,130.72Z" style="fill:#263238"></path><path d="M294.62,127.7c-1.15-.94-1.06-3,.21-4.51s4.53-3.64,5.68-2.7-.24,4.55-1.51,6.1S295.77,128.64,294.62,127.7Z" style="fill:#fff"></path><path d="M296,128.68a2.68,2.68,0,0,1-1.72-.59h0c-1.36-1.12-1.3-3.46.15-5.22a10.78,10.78,0,0,1,3-2.41c1.5-.8,2.66-.93,3.35-.36s.8,1.72.31,3.35a10.82,10.82,0,0,1-1.75,3.46,4.8,4.8,0,0,1-2.5,1.65A3.37,3.37,0,0,1,296,128.68Zm3.73-7.93a4.32,4.32,0,0,0-1.8.59,9.92,9.92,0,0,0-2.73,2.16c-1.09,1.34-1.22,3-.28,3.81h0a1.86,1.86,0,0,0,1.7.29,3.83,3.83,0,0,0,2-1.33,9.93,9.93,0,0,0,1.58-3.1c.33-1.13.33-2,0-2.3A.7.7,0,0,0,299.75,120.75Z" style="fill:#263238"></path></g></svg>
