<svg class="animated" id="freepik_stories-relaxation" xmlns="http://www.w3.org/2000/svg" viewBox="0 0 500 500" version="1.1" xmlns:xlink="http://www.w3.org/1999/xlink" xmlns:svgjs="http://svgjs.com/svgjs"><style>svg#freepik_stories-relaxation:not(.animated) .animable {opacity: 0;}svg#freepik_stories-relaxation.animated #freepik--Floor--inject-21 {animation: 1.5s Infinite  linear wind;animation-delay: 0s;}svg#freepik_stories-relaxation.animated #freepik--Plants--inject-21 {animation: 1.5s Infinite  linear wind;animation-delay: 0s;}svg#freepik_stories-relaxation.animated #freepik--Character--inject-21 {animation: 1.5s Infinite  linear floating;animation-delay: 0s;}            @keyframes wind {                0% {                    transform: rotate( 0deg );                }                25% {                    transform: rotate( 1deg );                }                75% {                    transform: rotate( -1deg );                }            }                    @keyframes floating {                0% {                    opacity: 1;                    transform: translateY(0px);                }                50% {                    transform: translateY(-10px);                }                100% {                    opacity: 1;                    transform: translateY(0px);                }            }        </style><g id="freepik--Floor--inject-21" class="animable" style="transform-origin: 250px 356.934px;"><path d="M105.77,425.31c79.66,37.77,208.8,37.77,288.46,0s79.65-99,0-136.76-208.8-37.76-288.46,0S26.12,387.55,105.77,425.31Z" style="fill: rgb(250, 250, 250); transform-origin: 250px 356.934px;" id="elhpwmdgntpme" class="animable"></path></g><g id="freepik--Plants--inject-21" class="animable" style="transform-origin: 262.71px 298.013px;"><g id="freepik--Plant--inject-21" class="animable" style="transform-origin: 97.5377px 315.074px;"><path d="M119.67,356.22s2.27-22.14-4.06-44.56-20.31-39.87-32.5-37.52C66.7,277.3,78.54,293.82,89.47,308c12.43,16.13,21.08,39.43,20.78,44.29Z" style="fill: rgb(255, 193, 0); transform-origin: 97.5377px 315.074px;" id="el0yo3wnzx7e0g" class="animable"></path><g id="elm6wdr3ypz4e"><path d="M119.67,356.22s2.27-22.14-4.06-44.56-20.31-39.87-32.5-37.52C66.7,277.3,78.54,293.82,89.47,308c12.43,16.13,21.08,39.43,20.78,44.29Z" style="opacity: 0.1; transform-origin: 97.5377px 315.074px;" class="animable"></path></g><path d="M116.13,351.94a.5.5,0,0,1-.5-.5c-.39-29.55-17.88-59.61-29.58-70.63a.5.5,0,0,1,0-.71.49.49,0,0,1,.7,0c11.83,11.14,29.51,41.51,29.9,71.35a.51.51,0,0,1-.5.51Z" style="fill: rgb(255, 255, 255); transform-origin: 101.276px 315.956px;" id="elql0qxmrekwo" class="animable"></path><path d="M117.85,356s-1.07-23.41-13.65-36-21-13.23-23.88-9.1c-3.83,5.4-1,11.43,7.22,18.24s22.19,17.32,22.18,24.45Z" style="fill: rgb(255, 193, 0); transform-origin: 98.2433px 332.312px;" id="elaiye7nrzpmi" class="animable"></path><path d="M114.94,355.29a.51.51,0,0,1-.5-.43c-3.6-25.46-22.91-38.27-30-41.05a.5.5,0,1,1,.36-.93c7.29,2.84,27,15.9,30.68,41.84a.5.5,0,0,1-.42.57Z" style="fill: rgb(255, 255, 255); transform-origin: 99.7856px 334.061px;" id="el07mmxz0w7oxp" class="animable"></path></g><g id="freepik--Pot--inject-21" class="animable" style="transform-origin: 393.61px 294.758px;"><g id="freepik--pot--inject-21" class="animable" style="transform-origin: 395.06px 314.782px;"><path d="M426.06,310h-62l6.41,26.71h0c.49,3.22,2.86,6.36,7.13,8.83,9.64,5.56,25.28,5.56,34.92,0,4.59-2.66,7-6.1,7.19-9.57Z" style="fill: rgb(55, 71, 79); transform-origin: 395.06px 329.855px;" id="el85kwmhtg5ax" class="animable"></path><path d="M419.43,316.42c-13.46,7.77-35.29,7.77-48.75,0a24.71,24.71,0,0,1-6.45-5.17L367.17,323a14.55,14.55,0,0,0,4.66,3.77c12.83,7.4,33.62,7.4,46.45,0a24.07,24.07,0,0,0,6-4.8l1.57-10.73A25,25,0,0,1,419.43,316.42Z" style="fill: rgb(38, 50, 56); transform-origin: 395.04px 321.78px;" id="elrwh4gvz0ycs" class="animable"></path><path d="M370.46,336.71h0c.49,3.22,2.86,6.36,7.13,8.83,6.89,4,16.83,5.1,25.47,3.39-15.5,1.18-26.13-5.59-27.72-11.83s-3.63-19.5-3.63-19.5l1.72-6.93L373,310h-8.9Z" style="fill: rgb(38, 50, 56); transform-origin: 383.58px 329.854px;" id="el67otje2qn9x" class="animable"></path><path d="M429.28,302.1a13,13,0,0,1-2.07,4.82,22.9,22.9,0,0,1-7.78,6.91c-13.46,7.77-35.29,7.77-48.75,0a22.9,22.9,0,0,1-7.78-6.91,13.15,13.15,0,0,1-2.06-4.82h0c-1.2-5.84,2.09-11.93,9.85-16.41,13.46-7.78,35.29-7.78,48.75,0C427.19,290.17,430.48,296.26,429.28,302.1Z" style="fill: rgb(69, 90, 100); transform-origin: 395.06px 299.756px;" id="elvgi39468ecb" class="animable"></path><path d="M427.21,306.92a22.9,22.9,0,0,1-7.78,6.91c-13.46,7.77-35.29,7.77-48.75,0a22.9,22.9,0,0,1-7.78-6.91,13.15,13.15,0,0,1-2.06-4.82h0l1.53,10.51c.7,4.23,3.85,8.35,9.47,11.59,12.83,7.4,33.62,7.4,46.45,0,5.54-3.2,8.69-7.27,9.44-11.44l.08-.54,1.48-10.12A13,13,0,0,1,427.21,306.92Z" style="fill: rgb(55, 71, 79); transform-origin: 395.065px 315.925px;" id="elgfkitjaw3r8" class="animable"></path><path d="M415.37,288c-11.22-6.48-29.41-6.48-40.62,0-6.35,3.67-9.1,8.62-8.27,13.4.64,3.67,3.4,7.24,8.27,10.05,11.21,6.48,29.4,6.48,40.62,0,4.86-2.81,7.62-6.38,8.26-10C424.47,296.65,421.72,291.7,415.37,288Z" style="fill: rgb(55, 71, 79); transform-origin: 395.057px 299.725px;" id="eldipiztysnnn" class="animable"></path><path d="M368.38,305.87a19.23,19.23,0,0,0,6.37,5.61c11.21,6.48,29.4,6.48,40.62,0a19.23,19.23,0,0,0,6.37-5.61c-.08-3.88-2.68-7.74-7.81-10.71-10.42-6-27.32-6-37.74,0C371.06,298.13,368.46,302,368.38,305.87Z" style="fill: rgb(224, 224, 224); transform-origin: 395.06px 303.5px;" id="elhccfpl3cnm" class="animable"></path></g><path d="M423.12,285.06a25.91,25.91,0,0,1-7.44,8.92,21.39,21.39,0,0,1-6.58,3.29c-2.55.75-4.87.56-7.46.69a22.54,22.54,0,0,1-10.51-1.82c-1.49-.68-2.51-1.81-3.9-2.63a24.33,24.33,0,0,1-4.41-3.2c-3-2.87-4.74-7.06-5.83-11s-1.21-8.34.61-12.12a3.57,3.57,0,0,1,2.09-2.11,3.81,3.81,0,0,1,1.83.14,34.85,34.85,0,0,1,8.67,3.49,16.59,16.59,0,0,0-10.84-7.51,19.89,19.89,0,0,1,5.56-8.33,3.47,3.47,0,0,1,1.5-.9,3.41,3.41,0,0,1,1.58.15,22.78,22.78,0,0,1,9.71,6.21c-1.6-3.83-4.85-7-8.2-9.47A59.69,59.69,0,0,1,408,240a1.79,1.79,0,0,1,2.22.49c5.58,5.4,10.33,9.08,13.6,16.13a22.22,22.22,0,0,0-8.54,2.77c2.67.25,5.46.07,8.16.18a2,2,0,0,1,1,.2,2,2,0,0,1,.62.75c2,3.5,2.38,7.67,2.17,11.67a22.81,22.81,0,0,0-13.08,2.19,38.15,38.15,0,0,1,11.49,1.43,11.49,11.49,0,0,1-.9,5.74A30.44,30.44,0,0,1,423.12,285.06Z" style="fill: rgb(255, 193, 0); transform-origin: 401.739px 268.908px;" id="eldetf78i0dos" class="animable"></path><g id="el3rf0zq9mbzd"><path d="M409.43,239.88A2.37,2.37,0,0,0,408,240a59.69,59.69,0,0,0-18.49,8.87c3.35,2.45,6.6,5.64,8.2,9.47a22.78,22.78,0,0,0-9.71-6.21,3.41,3.41,0,0,0-1.58-.15,3.47,3.47,0,0,0-1.5.9,19.89,19.89,0,0,0-5.56,8.33,16.59,16.59,0,0,1,10.84,7.51,34.85,34.85,0,0,0-8.67-3.49,3.81,3.81,0,0,0-1.83-.14,3.57,3.57,0,0,0-2.09,2.11c-1.82,3.78-1.7,8.15-.61,12.12s2.8,8.16,5.83,11a24.33,24.33,0,0,0,4.41,3.2c1.39.82,2.41,1.95,3.9,2.63a19.69,19.69,0,0,0,3.75,1.26C407.19,280,409.79,245.47,409.43,239.88Z" style="opacity: 0.1; transform-origin: 392.834px 268.615px;" class="animable"></path></g><path d="M394.88,297.9a.51.51,0,0,1-.43-.77C403,283.64,407.4,268.48,408.6,248a.49.49,0,0,1,.53-.47.5.5,0,0,1,.47.53c-1.22,20.68-5.63,36-14.3,49.63A.51.51,0,0,1,394.88,297.9Z" style="fill: rgb(255, 255, 255); transform-origin: 401.99px 272.714px;" id="elg09r6xek9s4" class="animable"></path><path d="M380.69,312.9a21.39,21.39,0,0,1-4.84,1.37,15.43,15.43,0,0,1-4,.22c-.33,0-3-.7-3-.65a38.71,38.71,0,0,0,5.67-11.66,37.18,37.18,0,0,1-9.46,8.75,7.11,7.11,0,0,1-1.89.94,6.51,6.51,0,0,1-2.37.1,19.62,19.62,0,0,1-10-4.08,50.12,50.12,0,0,0,10.55-11.44A41,41,0,0,1,348,302.7a1.66,1.66,0,0,1-1,.05,1.7,1.7,0,0,1-.68-.65,30.17,30.17,0,0,1-4.13-8.43,51.51,51.51,0,0,0-5.38-12.24c4.84-3.38,10.27-7.89,15.92-9.61a11.64,11.64,0,0,1,3.13-.82c.73,0,1.51,1,2.58,2.27a32.78,32.78,0,0,1,3.77,6.05,28,28,0,0,0-2.14-9.4,30,30,0,0,1,14.29-1.39,28.59,28.59,0,0,1,4.28,11.6c1.7-3.37,1.58-7.34,1.41-11.11a14.66,14.66,0,0,1,9.91,5.57,33.47,33.47,0,0,1,5.39,10.3,28,28,0,0,1,1.19,5.84,17.24,17.24,0,0,1-3.19,11.71,33.38,33.38,0,0,1-9.76,9A24.05,24.05,0,0,1,380.69,312.9Z" style="fill: rgb(255, 193, 0); transform-origin: 366.713px 291.375px;" id="el0yuntusy1w8q" class="animable"></path><g id="elcg3880l588a"><path d="M346.39,302.1a1.7,1.7,0,0,0,.68.65,1.66,1.66,0,0,0,1-.05,41,41,0,0,0,13.26-6.25,50.12,50.12,0,0,1-10.55,11.44,19.62,19.62,0,0,0,10,4.08,6.51,6.51,0,0,0,2.37-.1,7.11,7.11,0,0,0,1.89-.94,37.18,37.18,0,0,0,9.46-8.75,38.71,38.71,0,0,1-5.67,11.66s2.7.62,3,.65a15.43,15.43,0,0,0,4-.22,21.39,21.39,0,0,0,4.84-1.37,24.05,24.05,0,0,0,3-1.46,33.38,33.38,0,0,0,9.76-9,16.75,16.75,0,0,0,2.51-5.1c-15.25-13.54-46.16-16.69-59.05-15.91a51.51,51.51,0,0,1,5.38,12.24A30.17,30.17,0,0,0,346.39,302.1Z" style="opacity: 0.1; transform-origin: 366.415px 297.927px;" class="animable"></path></g><path d="M395.93,297.84a.54.54,0,0,1-.32-.11c-17.86-14.81-48.91-15.77-50.22-15.8a.52.52,0,0,1-.49-.51.5.5,0,0,1,.52-.49c1.32,0,32.71,1,50.83,16a.5.5,0,0,1-.32.88Z" style="fill: rgb(255, 255, 255); transform-origin: 370.663px 289.385px;" id="elif4e9yq3dri" class="animable"></path><path d="M447.94,324.24a67.43,67.43,0,0,0-.4-7.64,11.91,11.91,0,0,0-3.22-6.78,15,15,0,0,0-1.68-1.29c2.23-.85,6.12,1.4,7.77,2.74a26.51,26.51,0,0,0-7.08-13.18,11.77,11.77,0,0,0-2.34-1.82,6.58,6.58,0,0,0-2.59-.55c-3,0-5.47.86-8.38,1.51a14.84,14.84,0,0,1,4.7-2.49c.81-.25,5.37-1.75,6-1.09-3.09-3.34-6.7-6.57-11.16-7.47a22.59,22.59,0,0,0-4.11-.35c-10.65-.24-20.53,1.64-27.71,10.08a25.65,25.65,0,0,0-2.65,3.49c-3.34,5.61-2.26,12.93,1.29,18.17a16.26,16.26,0,0,0,12.95,7,36.74,36.74,0,0,1-1.77-12.15c1,2.17,1.46,5.82,2.61,8.51a9,9,0,0,0,5.85,5.46,10.84,10.84,0,0,0,9-1A15.65,15.65,0,0,1,421.12,314a17.8,17.8,0,0,0,6.44,7C433.64,324.37,441.48,321.72,447.94,324.24Z" style="fill: rgb(255, 193, 0); transform-origin: 421.743px 306.376px;" id="el7e2ybqy5qdq" class="animable"></path><g id="elvcvllebixpm"><path d="M450.41,311.27a26.51,26.51,0,0,0-7.08-13.18,11.37,11.37,0,0,0-2.34-1.82,6.37,6.37,0,0,0-2.59-.55c-3,0-5.47.86-8.38,1.51a14.84,14.84,0,0,1,4.7-2.49c.81-.25,5.37-1.75,6-1.09-3.09-3.34-6.7-6.57-11.16-7.47a22.59,22.59,0,0,0-4.11-.35c-10.65-.24-20.53,1.64-27.71,10.08,3.31-1.84,15.9-4.69,32.9,8.37,10.33,7.94,15.16,15.15,17.36,19.59,0-1.43-.33-6.65-.45-7.27a11.91,11.91,0,0,0-3.22-6.78,15,15,0,0,0-1.68-1.29C444.87,307.68,448.76,309.93,450.41,311.27Z" style="opacity: 0.1; transform-origin: 424.075px 304.84px;" class="animable"></path></g><path d="M443.88,317.85a.54.54,0,0,1-.46-.27c-5.73-9.92-25-26.31-45.56-21.15a.54.54,0,1,1-.26-1c21.14-5.3,40.87,11.49,46.74,21.66a.52.52,0,0,1-.19.72A.56.56,0,0,1,443.88,317.85Z" style="fill: rgb(255, 255, 255); transform-origin: 420.726px 306.136px;" id="ela1kw9mwe05v" class="animable"></path></g></g><g id="freepik--Character--inject-21" class="animable" style="transform-origin: 209.782px 283.418px;"><g id="freepik--character--inject-21" class="animable" style="transform-origin: 209.782px 283.418px;"><path d="M287.15,364.64l-9.59-5.53a5.73,5.73,0,0,1-1.95-2.11L175.35,146.3a1.66,1.66,0,0,1,.66-2.11l1.46-.84a2.84,2.84,0,0,1,2.6,0l9.59,5.53A5.78,5.78,0,0,1,191.6,151l100.26,210.7a1.65,1.65,0,0,1-.65,2.11l-1.47.84A2.82,2.82,0,0,1,287.15,364.64Z" style="fill: rgb(38, 50, 56); transform-origin: 233.607px 253.997px;" id="eluewp3yhbr4" class="animable"></path><path d="M189.79,150.29l-1.46.85a1.63,1.63,0,0,0-.65,2.1L287.94,364a1.35,1.35,0,0,0,1.94.6l1.47-.84a1.66,1.66,0,0,0,.65-2.11L191.74,150.9A1.37,1.37,0,0,0,189.79,150.29Z" style="fill: rgb(55, 71, 79); transform-origin: 239.838px 257.448px;" id="elss2pixifipm" class="animable"></path><path d="M191.5,150.81a1.37,1.37,0,0,0-1.84-.43l-1.47.85a1.62,1.62,0,0,0-.76,1.05l-12.19-7a1.64,1.64,0,0,1,.77-1.05l1.46-.84a2.84,2.84,0,0,1,2.6,0l9.59,5.53A5.87,5.87,0,0,1,191.5,150.81Z" style="fill: rgb(69, 90, 100); transform-origin: 183.37px 147.678px;" id="elsb6vjxkf7wn" class="animable"></path><path d="M290.05,278.62v.07a.17.17,0,0,0,0-.07Z" style="fill: rgb(38, 50, 56); transform-origin: 290.052px 278.655px;" id="ell478bm721vh" class="animable"></path><path d="M290.05,278.71v4.67a2.75,2.75,0,0,1-1.6,2.26,9.32,9.32,0,0,1-8.4-.16l-46.74-27a1.2,1.2,0,0,1-.72-1v-4.68h0a1.21,1.21,0,0,0,.71,1l46.74,27a9.32,9.32,0,0,0,8.4.16A2.75,2.75,0,0,0,290.05,278.71Z" style="fill: rgb(38, 50, 56); transform-origin: 261.32px 269.681px;" id="elwrnla0lajs" class="animable"></path><path d="M288.45,281a9.32,9.32,0,0,1-8.4-.16l-46.74-27a1.05,1.05,0,0,1,0-2l4.66-2.69a3.83,3.83,0,0,1,3.46,0l46.75,27a3.15,3.15,0,0,1,1.87,2.59A2.75,2.75,0,0,1,288.45,281Z" style="fill: rgb(55, 71, 79); transform-origin: 261.315px 265.329px;" id="el4zwvuuof4mh" class="animable"></path><path d="M205.45,311.77l2.33-1.34a2.69,2.69,0,0,0,1.1-1.47l17.29-69.84a2.92,2.92,0,0,0-.26-1.84l-3.06-5.3a1,1,0,0,0-1.37-.37L219.15,233a2.75,2.75,0,0,0-1.11,1.48l-18.3,73.95a1.42,1.42,0,0,0,.63,1.47l3.34,1.92A1.91,1.91,0,0,0,205.45,311.77Z" style="fill: rgb(38, 50, 56); transform-origin: 212.966px 271.74px;" id="elxfy7vnq4h9" class="animable"></path><path d="M226.19,238.18l-4.06,2.36a2.55,2.55,0,0,0-.28-.92l-3.06-5.3c-.24-.41-.52-.43-.68-.1a2.78,2.78,0,0,1,1-1.27l2.33-1.34a1,1,0,0,1,1.37.36l3.06,5.31A2.44,2.44,0,0,1,226.19,238.18Z" style="fill: rgb(69, 90, 100); transform-origin: 222.15px 236.006px;" id="elvjb4y75sj5p" class="animable"></path><path d="M218.78,234.32l3.07,5.3a2.85,2.85,0,0,1,.25,1.84L204.82,311.3a.71.71,0,0,1-1.11.47l-3.34-1.92a1.42,1.42,0,0,1-.63-1.47L218,234.43C218.18,233.89,218.51,233.84,218.78,234.32Z" style="fill: rgb(55, 71, 79); transform-origin: 210.934px 272.945px;" id="elsd05l197n9" class="animable"></path><path d="M299.69,301.8c-12.17.25-94.51,2-106.67,2.28a6.87,6.87,0,0,0-2.8.78l-1.47.84c-.72.42-.72,1.09,0,1.5l20.9,12.07a6.36,6.36,0,0,0,2.8.72l83.18-1.78a7,7,0,0,0,2.8-.78l1.46-.85a2.86,2.86,0,0,0,1.3-2.25V303.26A1.46,1.46,0,0,0,299.69,301.8Z" style="fill: rgb(69, 90, 100); transform-origin: 244.7px 310.895px;" id="elgeunjce2ywc" class="animable"></path><path d="M297.13,316.68V305.61a1.46,1.46,0,0,0-1.5-1.47L189,306.42c-.83,0-.92.37-.2.78l20.9,12.07a6.36,6.36,0,0,0,2.8.72l83.18-1.78A1.54,1.54,0,0,0,297.13,316.68Z" style="fill: rgb(38, 50, 56); transform-origin: 242.722px 312.065px;" id="elmex2bm1mqu" class="animable"></path><path d="M301.19,303.26v11.07a2.86,2.86,0,0,1-1.3,2.25l-1.46.85a7,7,0,0,1-2.8.78,1.54,1.54,0,0,0,1.5-1.53V305.61a1.46,1.46,0,0,0-.58-1.17l4.06-2.34A1.44,1.44,0,0,1,301.19,303.26Z" style="fill: rgb(38, 50, 56); transform-origin: 298.41px 310.155px;" id="elj3tiw29q2uj" class="animable"></path><path d="M289.12,315.1h0Z" style="fill: rgb(250, 250, 250); transform-origin: 289.12px 315.1px;" id="elqfm84t9t8u" class="animable"></path><path d="M292.36,313.21h0l-3.24,1.87a1.44,1.44,0,0,0,.59-1.32,4.59,4.59,0,0,0-2-3.52,1.52,1.52,0,0,0-1.29-.22l3.1-1.79a1.42,1.42,0,0,1,1.44.13,4.51,4.51,0,0,1,2,3.52A1.4,1.4,0,0,1,292.36,313.21Z" style="fill: rgb(69, 90, 100); transform-origin: 289.695px 311.586px;" id="el8q0esu715e" class="animable"></path><path d="M289.72,313.77a4.59,4.59,0,0,0-2-3.52,1.52,1.52,0,0,0-1.29-.22l-.27.15h0l-73.79,42.6,2.86,5,73.93-42.67A1.45,1.45,0,0,0,289.72,313.77Z" style="fill: rgb(255, 193, 0); transform-origin: 251.051px 333.876px;" id="elex94i7uzh2k" class="animable"></path><g id="ellq35czh92x"><path d="M289.72,313.77a4.59,4.59,0,0,0-2-3.52,1.52,1.52,0,0,0-1.29-.22l-.27.15h0l-73.79,42.6,2.86,5,73.93-42.67A1.45,1.45,0,0,0,289.72,313.77Z" style="opacity: 0.1; transform-origin: 251.051px 333.876px;" class="animable"></path></g><path d="M213.76,352.94a4.47,4.47,0,0,1,2,3.51c0,1.3-.91,1.82-2,1.18a4.51,4.51,0,0,1-2-3.52C211.73,352.81,212.64,352.29,213.76,352.94Z" style="fill: rgb(224, 224, 224); transform-origin: 213.76px 355.282px;" id="el40uhiffbany" class="animable"></path><path d="M180.67,155a1.52,1.52,0,0,0-1.29-.22l-.27.15h0l-73.79,42.6,2.86,5,73.93-42.68a1.43,1.43,0,0,0,.6-1.32A4.59,4.59,0,0,0,180.67,155Z" style="fill: rgb(255, 193, 0); transform-origin: 144.019px 178.626px;" id="el64vbdxr2uih" class="animable"></path><g id="elfq42kmp2k1"><path d="M180.67,155a1.52,1.52,0,0,0-1.29-.22l-.27.15h0l-73.79,42.6,2.86,5,73.93-42.68a1.43,1.43,0,0,0,.6-1.32A4.59,4.59,0,0,0,180.67,155Z" style="opacity: 0.1; transform-origin: 144.019px 178.626px;" class="animable"></path></g><path d="M185.34,158h0l-3.24,1.86a1.42,1.42,0,0,0,.59-1.31,4.59,4.59,0,0,0-2-3.52,1.52,1.52,0,0,0-1.29-.22l3.1-1.79a1.42,1.42,0,0,1,1.44.13,4.51,4.51,0,0,1,2,3.52A1.4,1.4,0,0,1,185.34,158Z" style="fill: rgb(69, 90, 100); transform-origin: 182.675px 156.371px;" id="el1192wl1jlw" class="animable"></path><path d="M215.26,351.14h0a121.66,121.66,0,0,1-104-112.25l-2.49-36.71,73.36-42.35,7.52,33.11c17.37,65.39,43.69,100.3,96.58,117.2h0Z" style="fill: rgb(255, 193, 0); transform-origin: 197.5px 255.485px;" id="el62k4xdqhpap" class="animable"></path><path d="M289.69,248.58a20.78,20.78,0,0,0-13.62,0c-1.87.77-2.79,1.78-2.78,2.8h0l1.46,22.7h0c.09.83.86,1.65,2.34,2.28a17.12,17.12,0,0,0,11.56,0c1.52-.63,2.32-1.45,2.41-2.28h0l1.47-22.72C292.57,250.35,291.61,249.35,289.69,248.58Z" style="fill: rgb(255, 193, 0); transform-origin: 282.911px 262.399px;" id="elj0km6yc002" class="animable"></path><g id="elqksyeg1acf"><g style="opacity: 0.1; transform-origin: 282.929px 251.355px;" class="animable"><path d="M289.69,248.58a20.78,20.78,0,0,0-13.62,0c-3.7,1.53-3.7,4,0,5.55a20.78,20.78,0,0,0,13.62,0C293.52,252.6,293.52,250.11,289.69,248.58Z" id="el88h3ytqdru3" class="animable" style="transform-origin: 282.929px 251.355px;"></path></g></g><path d="M280.85,255.19c-.46,0-.9-.09-1.33-.16l-1.75-7-1.61-6.49a1.76,1.76,0,0,0-1.32-1.28l-4.92-1a.62.62,0,0,1-.49-.73.63.63,0,0,1,.74-.48l4.92,1a3,3,0,0,1,2.28,2.2l1.63,6.52Z" style="fill: rgb(230, 230, 230); transform-origin: 275.134px 246.614px;" id="elvbpgo5poel" class="animable"></path><path d="M292.65,232.07l-3.55,16.29-1.38,6.38q-.66.15-1.35.27l1.53-7,3.53-16.2Z" style="fill: rgb(230, 230, 230); transform-origin: 289.51px 243.41px;" id="el09uirvemkyj3" class="animable"></path><path d="M300.64,239s-2,4.43-10.6,2.38-8.62-6.59-8.62-6.59c.54-2.48,8.34-7.62,11.62-6.83S301.18,236.53,300.64,239Z" style="fill: rgb(255, 193, 0); transform-origin: 291.051px 234.9px;" id="el8l3rlqhl38r" class="animable"></path><g id="elicnj1m8gaer"><path d="M293,241.86a10.61,10.61,0,0,0,4.86-.55c-.33-2.88-1.46-9.75-4.77-13.35A51,51,0,0,1,293,241.86Z" style="opacity: 0.1; transform-origin: 295.43px 234.948px;" class="animable"></path></g><g id="elrcjxuj3uzab"><path d="M282.36,237.13a10,10,0,0,0,4.33,3.16A28.91,28.91,0,0,1,293,228C288.88,229.24,284,235.16,282.36,237.13Z" style="opacity: 0.1; transform-origin: 287.68px 234.145px;" class="animable"></path></g><path d="M187.23,215.21c7.8-2.26,13.35-2,20.84,10.7,5.85,9.92,20.4,29.94,20.4,29.94S258.93,260,263.66,259c4.07-.8,7.29-3.35,11.47-2.54,5.05,1,7.68,1.56,10.29,1.86.79.09.69,3.15-4.3,3.45a60.1,60.1,0,0,1-7,0l.59,11.2c-4-.61-8.41-2.49-12.47-2.45s-32.88.31-42.81-.41c-5.78-5.38-21-30.77-21-30.77Z" style="fill: rgb(255, 168, 167); transform-origin: 236.508px 243.546px;" id="elh5mt9aehjuv" class="animable"></path><path d="M249.25,361.54c-.88,1.09-1.88,2.35-1.65,3.6a12.9,12.9,0,0,0,4,6.91c2.9,2.65,5.1,8,5.91,11.67s1.94,13.15,7,16.48,16.64,4.25,16.06-2.68-16.5-32.39-16.5-32.39Z" style="fill: rgb(38, 50, 56); transform-origin: 264.079px 382.138px;" id="elch0ewpea756" class="animable"></path><path d="M256,365.46a102.89,102.89,0,0,1,5.87,14.48c1.64,5.46,3.61,9.23,6.57,10.49s7.17.63,5.26-3-9.58-22.29-9.58-22.29Z" style="fill: rgb(242, 143, 143); transform-origin: 265.09px 378.082px;" id="elpltau4ogr6" class="animable"></path><path d="M216.34,273.88s18.44,8.49,29.88,13.44,22.33,9.83,24.9,14.39c2.73,4.81,3.14,16.78,2.91,28.35s-1,32.4-1,32.4l-36.11-45.34-34-18.56Z" style="fill: rgb(69, 90, 100); transform-origin: 238.502px 318.17px;" id="elj1frsl6fn0k" class="animable"></path><path d="M212.23,296l.81-2.48s19.51,9.18,26.31,12.64,14.11,7.77,17.9,14.85,16.06,35.4,16.06,35.4l-26-38.57Z" style="fill: rgb(55, 71, 79); transform-origin: 242.77px 324.965px;" id="elbz989ahk7h4" class="animable"></path><path d="M278.8,398.2c-.87.69-.56,3-.32,4.64s-.8,4,1.86,6.36,6.79,2.28,10.42,5.53,9.28,9.36,18.48,9.06S324.37,419,325.36,416s-1.08-5.1-7.45-6.92c-6.77-1.92-8.7-2.5-8.7-2.5Z" style="fill: rgb(38, 50, 56); transform-origin: 301.909px 411px;" id="el9wssnrr9de" class="animable"></path><path d="M283.77,377.92s7.1,10.63,11,15.36,9.19,8.8,14.85,12.43c1.24.79,3.91,2.14,4.92,2.78a1.73,1.73,0,0,1,.58,2.61c-1.34,2.35-9.17,5.13-14.62,3.11s-11.71-7.08-15.16-9c-1.73-1-3.36-1.87-4.56-2.54a3.74,3.74,0,0,1-1.91-3.17q0-.56-.06-1.32c-.15-2.75-6.67-12.29-6.67-12.29Z" style="fill: rgb(255, 168, 167); transform-origin: 293.814px 396.414px;" id="el1oyzcjs9qln" class="animable"></path><path d="M162.66,290.87c.86,9.15,1.75,14.22,7.25,22.16s17.66,12.24,31.87,15.72c11.76,2.88,29.05,6.94,32.44,7.38s4.24,2.17,5.51,8,6,14.61,15.84,24.45C266,379,272.13,385.91,272.13,385.91a13.83,13.83,0,0,0,12.45-7.24S257,325.26,252.26,318.54s-40-22.57-40-22.57,4.44-12.81,4.11-22.09Z" style="fill: rgb(69, 90, 100); transform-origin: 223.62px 329.897px;" id="elmg2uk4x84to" class="animable"></path><path d="M215.11,285.3A110.08,110.08,0,0,1,212.23,296l2.16,1A55.82,55.82,0,0,0,215.11,285.3Z" style="fill: rgb(55, 71, 79); transform-origin: 213.697px 291.15px;" id="elk0jf98916n8" class="animable"></path><path d="M162.53,220.9l-8.4,2.46s6.59,6.8,6.22,20.74c-.26,9.88-2.38,10.89-7.11,14.08,0,12.45,9.83,36.56,9.83,36.56S175.27,300,196,292.2c18.22-6.87,21.09-18,21.09-18l-12-5.87-3.29-9.86s8.13-8.16,4.43-19.23-19-24.06-19-24.06l-7.34.9Z" style="fill: rgb(250, 250, 250); transform-origin: 185.165px 255.827px;" id="elauiupmyq5d6" class="animable"></path><path d="M209.27,284.73c-9.18,4.35-23.67,4.43-29.8.83s-12-14.53-11.66-21.94-2.6-19.78-6.1-27l-1.93-.36a38.27,38.27,0,0,1,.57,7.81c-.26,9.88-2.38,10.89-7.11,14.08,0,12.45,9.83,36.56,9.83,36.56S175.27,300,196,292.2a45.7,45.7,0,0,0,13.27-7.47Z" style="fill: rgb(240, 240, 240); transform-origin: 181.255px 266.361px;" id="elp816duq3lrc" class="animable"></path><path d="M187.39,247.43s8.44-13.43,2.36-25.1A132.9,132.9,0,0,0,181.29,208" style="fill: none; stroke: rgb(224, 224, 224); stroke-miterlimit: 10; transform-origin: 186.621px 227.715px;" id="elvrzw1cj388o" class="animable"></path><path d="M177,206.76l-9.29,1A23.58,23.58,0,0,1,141.67,187h0a28.25,28.25,0,0,1,24.94-31.22h0a28.25,28.25,0,0,1,31.22,24.94h0A23.58,23.58,0,0,1,177,206.76Z" style="fill: rgb(38, 50, 56); transform-origin: 169.734px 181.755px;" id="el4arthtvnjtx" class="animable"></path><path d="M158.62,150c4.65,5.47.83,10-4.65,14.61s-10.53,7.69-15.17,2.21-3.15-12.3,2.32-17S154,144.47,158.62,150Z" style="fill: rgb(38, 50, 56); transform-origin: 148.371px 157.908px;" id="elhy3iipwlx8i" class="animable"></path><path d="M146.13,169.77l-5.47,5a3.61,3.61,0,0,1,.08-5.23A3.91,3.91,0,0,1,146.13,169.77Z" style="fill: rgb(38, 50, 56); transform-origin: 142.854px 171.671px;" id="elpoxcykbiw8" class="animable"></path><path d="M185.32,166.41c3.16,1.42,7.66,8.47,9.05,24.15,1.18,13.29-2.75,17-4.81,18.23s-6.27,1.07-10.39.85l.72,6.47s7.8,6.41,7.85,10.1-8.88,6.35-14.51,3.38-10.7-8.69-10.7-8.69l-2.06-19.05s-2.12,2.58-6.56-.5c-3.65-2.54-5.33-7.32-3-10.25a5.84,5.84,0,0,1,9.44.81s6.48-.49,14.54-6.17A24.27,24.27,0,0,0,185.32,166.41Z" style="fill: rgb(255, 168, 167); transform-origin: 172.212px 198.639px;" id="elmmc5f8a8yvb" class="animable"></path><path d="M179.2,188.89a1.68,1.68,0,1,1-1.94-1.46A1.7,1.7,0,0,1,179.2,188.89Z" style="fill: rgb(38, 50, 56); transform-origin: 177.532px 189.089px;" id="elejxmc5ad5" class="animable"></path><path d="M180.9,200.07l4,.8a2,2,0,0,1-2.36,1.67A2.14,2.14,0,0,1,180.9,200.07Z" style="fill: rgb(242, 143, 143); transform-origin: 182.883px 201.323px;" id="elitfmvkgndyg" class="animable"></path><path d="M192.29,182.24l-3.63-2a2,2,0,0,1,2.74-.89A2.17,2.17,0,0,1,192.29,182.24Z" style="fill: rgb(38, 50, 56); transform-origin: 190.594px 180.677px;" id="eleptqyx7si5e" class="animable"></path><path d="M192,186.24a1.69,1.69,0,0,1-1.37,2,1.74,1.74,0,1,1,1.37-2Z" style="fill: rgb(38, 50, 56); transform-origin: 190.289px 186.535px;" id="el97dsbqwb8wl" class="animable"></path><polygon points="184.26 185.29 185.37 196.17 190.47 193.94 184.26 185.29" style="fill: rgb(242, 143, 143); transform-origin: 187.365px 190.73px;" id="elfh1zip9pj2r" class="animable"></polygon><path d="M179.17,209.64c-4.33-.08-13.38-1.62-15.13-4.93a9,9,0,0,0,3.57,4.08c2.87,2,11.86,3.51,11.86,3.51Z" style="fill: rgb(242, 143, 143); transform-origin: 171.755px 208.505px;" id="elpe2eu814e3" class="animable"></path><path d="M186.77,186.73a2.21,2.21,0,0,0-1.86-.57c-1.07.23-2.6,2.08-2.6,2.08L181.2,187a6.88,6.88,0,0,1,3.39-2.45,3.7,3.7,0,0,1,2.72.41Z" style="fill: rgb(38, 50, 56); transform-origin: 184.255px 186.346px;" id="elvxiuc3gft6h" class="animable"></path><path d="M182.29,183.91c-1.85-2.4-3.92-2.91-8.79-2.42s-7.38,2-8.29,5.17,1.31,10,8.15,10.31c6.69.27,9.11-4.34,9.59-7.07C183.35,187.62,183.27,185.18,182.29,183.91Z" style="fill: rgb(255, 193, 0); transform-origin: 174.096px 189.151px;" id="elbmfxuqia5rj" class="animable"></path><path d="M173.93,195.48h-.51a6.76,6.76,0,0,1-5.41-2.82,7.32,7.32,0,0,1-1.36-5.58c.59-2.09,2-3.58,7-4.08a24.93,24.93,0,0,1,2.73-.17c2.69,0,3.7.68,4.72,2,.5.64.8,2.37.37,4.81-.17,1-1.33,5.84-7.54,5.84Z" style="fill: rgb(38, 50, 56); transform-origin: 174.114px 189.155px;" id="elatnbk20u2y7" class="animable"></path><path d="M186.3,184.07c-.05-2.42,2.23-5.37,6.34-6.3,3.29-.73,6.59,1,7,4,.48,3.71-.13,8.17-4.88,9.5C190.55,192.44,186.2,190,186.3,184.07Z" style="fill: rgb(255, 193, 0); transform-origin: 193.037px 184.579px;" id="el958p4wnt73" class="animable"></path><path d="M192.72,190.05a4.67,4.67,0,0,1-3.39-1.36,6.26,6.26,0,0,1-1.53-4.6c0-1.83,1.89-4.12,5.17-4.85a5.55,5.55,0,0,1,1.21-.14c1.72,0,3.7.9,3.95,2.86.56,4.36-.71,7-3.8,7.86A6,6,0,0,1,192.72,190.05Z" style="fill: rgb(38, 50, 56); transform-origin: 193.02px 184.575px;" id="elslhe6h8ajw" class="animable"></path><path d="M157.32,200.83S158.45,213,160.26,220c3.78,14.63,14.1,21.41,27.13,27.44,0,0,5,17.09,4.82,23.21S178,295.1,178.78,300.31" style="fill: none; stroke: rgb(224, 224, 224); stroke-miterlimit: 10; transform-origin: 174.767px 250.57px;" id="elg43cqdykhe" class="animable"></path><path d="M158,196.76h0a2.43,2.43,0,1,0-2.43,2.48,2.31,2.31,0,0,0,.64-.1l.52,4.35a.74.74,0,0,0,.8.65.74.74,0,0,0,.66-.76Z" style="fill: rgb(250, 250, 250); transform-origin: 155.665px 199.261px;" id="elqugk3vemmvk" class="animable"></path><polygon points="121.91 363.05 125.97 360.7 146.28 278.62 142.22 271.58 138.16 273.93 117.85 356.01 121.91 363.05" style="fill: rgb(38, 50, 56); transform-origin: 132.065px 317.315px;" id="el5eojr6crk8p" class="animable"></polygon><polygon points="138.16 273.93 142.22 280.96 121.91 363.05 117.85 356.01 138.16 273.93" style="fill: rgb(55, 71, 79); transform-origin: 130.035px 318.49px;" id="el8443beh8akv" class="animable"></polygon><path d="M217.9,349l-106.67,2.28a7,7,0,0,0-2.8.78l-1.47.85a.78.78,0,0,0,0,1.49l20.9,12.07a6.23,6.23,0,0,0,2.8.72l83.18-1.78a6.71,6.71,0,0,0,2.8-.78l1.46-.84a2.87,2.87,0,0,0,1.3-2.25V350.48A1.47,1.47,0,0,0,217.9,349Z" style="fill: rgb(69, 90, 100); transform-origin: 162.906px 358.095px;" id="elkp4jokbsr9d" class="animable"></path><path d="M215.34,363.89V352.82a1.46,1.46,0,0,0-1.5-1.47l-106.68,2.28c-.83,0-.92.37-.2.78l20.9,12.07a6.23,6.23,0,0,0,2.8.72l83.18-1.78A1.53,1.53,0,0,0,215.34,363.89Z" style="fill: rgb(38, 50, 56); transform-origin: 160.907px 359.275px;" id="elv83blwvo5j" class="animable"></path><path d="M219.4,350.47v11.07a2.86,2.86,0,0,1-1.3,2.25l-1.46.85a7,7,0,0,1-2.8.78,1.54,1.54,0,0,0,1.5-1.53V352.82a1.46,1.46,0,0,0-.58-1.17l4.06-2.34A1.44,1.44,0,0,1,219.4,350.47Z" style="fill: rgb(38, 50, 56); transform-origin: 216.62px 357.365px;" id="el98axqx17849" class="animable"></path><path d="M205.91,411.55,196.33,406a5.7,5.7,0,0,1-2-2.1L94.12,193.2a1.66,1.66,0,0,1,.65-2.11l1.47-.84a2.9,2.9,0,0,1,2.6,0l9.58,5.54a5.62,5.62,0,0,1,2,2.1L210.63,408.6a1.65,1.65,0,0,1-.65,2.1l-1.47.85A2.9,2.9,0,0,1,205.91,411.55Z" style="fill: rgb(38, 50, 56); transform-origin: 152.375px 300.9px;" id="elbmaolgz2y0w" class="animable"></path><path d="M108.42,197.29l-1.46.84a1.64,1.64,0,0,0-.65,2.1L206.57,410.94a1.36,1.36,0,0,0,1.94.61l1.47-.85a1.65,1.65,0,0,0,.65-2.1L110.37,197.89A1.36,1.36,0,0,0,108.42,197.29Z" style="fill: rgb(55, 71, 79); transform-origin: 158.469px 304.417px;" id="el49etuumj07x" class="animable"></path><path d="M110.27,197.71a1.37,1.37,0,0,0-1.84-.43l-1.47.85a1.62,1.62,0,0,0-.76,1.05l-12.18-7a1.64,1.64,0,0,1,.76-1.06l1.46-.84a2.84,2.84,0,0,1,2.6,0l9.59,5.53A5.87,5.87,0,0,1,110.27,197.71Z" style="fill: rgb(69, 90, 100); transform-origin: 102.145px 194.573px;" id="elchhruq31iqh" class="animable"></path><path d="M208.82,325.52v.07a.17.17,0,0,0,0-.07Z" style="fill: rgb(38, 50, 56); transform-origin: 208.822px 325.555px;" id="elj4g12k7owrq" class="animable"></path><path d="M208.82,325.61v4.67a2.75,2.75,0,0,1-1.6,2.26,9.32,9.32,0,0,1-8.4-.16l-46.74-27a1.2,1.2,0,0,1-.72-1v-4.68h0a1.21,1.21,0,0,0,.71,1l46.74,27a9.32,9.32,0,0,0,8.4.16A2.75,2.75,0,0,0,208.82,325.61Z" style="fill: rgb(38, 50, 56); transform-origin: 180.09px 316.581px;" id="eltstrzpl8qym" class="animable"></path><path d="M207.22,327.87a9.32,9.32,0,0,1-8.4-.16l-46.74-27a1.05,1.05,0,0,1,0-2l4.66-2.69a3.83,3.83,0,0,1,3.46,0L207,323a3.15,3.15,0,0,1,1.87,2.59A2.75,2.75,0,0,1,207.22,327.87Z" style="fill: rgb(55, 71, 79); transform-origin: 180.11px 312.199px;" id="elmfkceeafp" class="animable"></path><g id="freepik--Arm--inject-21" class="animable" style="transform-origin: 187.558px 277.38px;"><path d="M233.15,320.35l-.11-.07-27.66-16a1.5,1.5,0,0,0-1.37,0l-13.69,7.9-.1.07a1.53,1.53,0,0,0-.58,1.12v.65a1.52,1.52,0,0,0,.68,1.19l27.66,16a1.47,1.47,0,0,0,1.37,0L233,323.31a1.53,1.53,0,0,0,.69-1.19v-.65A1.57,1.57,0,0,0,233.15,320.35Z" style="fill: rgb(255, 193, 0); transform-origin: 211.665px 317.747px;" id="elokqam1zxko7" class="animable"></path><g id="elfjq31g20uvl"><path d="M233,321.07,219.35,329a1.5,1.5,0,0,1-1.37,0l-27.66-16a.42.42,0,0,1,0-.79l13.69-7.9a1.5,1.5,0,0,1,1.37,0l27.66,16A.42.42,0,0,1,233,321.07Z" style="fill: rgb(255, 255, 255); opacity: 0.4; transform-origin: 211.653px 316.655px;" class="animable"></path></g><path d="M200.64,309.51a2.14,2.14,0,0,1-1.91,0,.59.59,0,0,1,0-1.11,2.14,2.14,0,0,1,1.91,0A.59.59,0,0,1,200.64,309.51Z" style="fill: rgb(255, 193, 0); transform-origin: 199.685px 308.955px;" id="ely39nz0bcazq" class="animable"></path><g id="el3hxpzl30mr8"><g style="opacity: 0.1; transform-origin: 204.155px 321.84px;" class="animable"><path d="M190.32,315.24a1.53,1.53,0,0,1-.69-1.19v-.65a1.54,1.54,0,0,1,.59-1.12c-.27.22-.24.53.1.72L218,329a1.39,1.39,0,0,0,.68.16v2.24a1.4,1.4,0,0,1-.68-.17Z" id="elllsi0d66dp8" class="animable" style="transform-origin: 204.155px 321.84px;"></path></g></g><path d="M216.63,326.83l12.7-7.33c.23-.13.23-.35-.05-.51l-21.75-12.56a.91.91,0,0,0-.77,0l-12.7,7.33a.26.26,0,0,0,0,.48l21.75,12.56A.91.91,0,0,0,216.63,326.83Z" style="fill: rgb(255, 255, 255); transform-origin: 211.698px 316.629px;" id="el0d3516pju75q" class="animable"></path><path d="M225.33,324.84a.51.51,0,0,1-.48,0c-.14-.07-.14-.2,0-.28a.57.57,0,0,1,.48,0C225.46,324.64,225.46,324.77,225.33,324.84Z" style="fill: rgb(255, 193, 0); transform-origin: 225.086px 324.704px;" id="el0bz787oikls" class="animable"></path><path d="M222.13,325.6a1,1,0,0,1-1,0c-.27-.15-.27-.4,0-.56a1.08,1.08,0,0,1,1,0C222.4,325.2,222.4,325.45,222.13,325.6Z" style="fill: rgb(255, 193, 0); transform-origin: 221.63px 325.326px;" id="elkklcuzelrfs" class="animable"></path><path d="M222.82,324.63c-.18-.1-.17-.28,0-.39l3.18-1.83a.75.75,0,0,1,.67,0c.18.11.17.28,0,.39l-3.19,1.84A.73.73,0,0,1,222.82,324.63Z" style="fill: rgb(255, 193, 0); transform-origin: 224.745px 323.522px;" id="elgdjk4pal1fv" class="animable"></path><path d="M221.66,317.21l-9,5.17a.85.85,0,0,1-.82,0L202,316.66c-.23-.13-.23-.34,0-.47l9-5.17a.85.85,0,0,1,.82,0l9.91,5.72C221.89,316.87,221.89,317.08,221.66,317.21Z" style="fill: rgb(224, 224, 224); transform-origin: 211.835px 316.7px;" id="elonj9lc6952" class="animable"></path><path d="M207.21,316.62l3.93,2.28a.69.69,0,0,0,.89-.2l2.79-3.9c.2-.28.09-.44-.24-.36l-7.31,1.73C206.94,316.25,206.91,316.45,207.21,316.62Z" style="fill: rgb(255, 255, 255); transform-origin: 210.961px 316.702px;" id="eladcd1hdf71l" class="animable"></path><path d="M154.13,223.36c-10.16,2.46-14.66,8.35-11.91,23.25,1.83,9.93,8.8,47.61,11.61,51.24,2.11,2.71,23.5,11.47,34.49,17.79,2.9,1.67,4.35,3.45,6.27,5.58,3.74,4.17,8.38,5.8,11.8,7.22a11.59,11.59,0,0,0,7.15.2l-4.73-2.73a10.67,10.67,0,0,1-4.05-4.19c-1.2-2.22-2.52-5.11-1.84-6,1.15-1.52,7.59,1.72,10.37.42s2.49-2.41-2.38-4-9.1-5-13.75-6.28c-9.61-2.73-30-18.71-30-18.71l-6.51-35.94s3-9.15.73-15.65C158.48,227.18,154.13,223.36,154.13,223.36Z" style="fill: rgb(255, 168, 167); transform-origin: 178.242px 276.235px;" id="elj6ng8bj3ty8" class="animable"></path></g></g></g><g id="freepik--Clouds--inject-21" class="animable animator-active" style="transform-origin: 337.15px 114.492px;"><g id="freepik--clouds--inject-21" class="animable" style="transform-origin: 337.15px 114.492px;"><path d="M315.55,102.74l3.84,1.47V95.76c0-6.69,5.34-8.3,11.14-5h0C336.33,94.16,341,102.3,341,109v1.23a5.58,5.58,0,0,1,4.87.75h0a16.69,16.69,0,0,1,7.56,13.08v.56l5.35,3.09a11,11,0,0,1,5,8.62c0,3.17-2.23,4.46-5,2.87l-43.26-25a11,11,0,0,1-5-8.62C310.58,102.44,312.8,101.15,315.55,102.74Z" style="fill: rgb(235, 235, 235); transform-origin: 337.15px 114.492px;" id="elfgdh03avze" class="animable"></path></g></g><defs>     <filter id="active" height="200%">         <feMorphology in="SourceAlpha" result="DILATED" operator="dilate" radius="2"></feMorphology>                <feFlood flood-color="#32DFEC" flood-opacity="1" result="PINK"></feFlood>        <feComposite in="PINK" in2="DILATED" operator="in" result="OUTLINE"></feComposite>        <feMerge>            <feMergeNode in="OUTLINE"></feMergeNode>            <feMergeNode in="SourceGraphic"></feMergeNode>        </feMerge>    </filter>    <filter id="hover" height="200%">        <feMorphology in="SourceAlpha" result="DILATED" operator="dilate" radius="2"></feMorphology>                <feFlood flood-color="#ff0000" flood-opacity="0.5" result="PINK"></feFlood>        <feComposite in="PINK" in2="DILATED" operator="in" result="OUTLINE"></feComposite>        <feMerge>            <feMergeNode in="OUTLINE"></feMergeNode>            <feMergeNode in="SourceGraphic"></feMergeNode>        </feMerge>            <feColorMatrix type="matrix" values="0   0   0   0   0                0   1   0   0   0                0   0   0   0   0                0   0   0   1   0 "></feColorMatrix>    </filter></defs></svg>