<svg xmlns="http://www.w3.org/2000/svg" width="500" height="500" viewBox="0 0 500 500" version="1.1"><path d="M 359 34.821 C 359 35.321, 362.490 37.758, 366.756 40.237 C 541.733 141.905, 488.040 412.053, 286 446.552 C 276.591 448.159, 234 449.876, 234 448.649 C 234 448.312, 250.349 415.065, 270.332 374.768 C 314.190 286.324, 308.284 294.248, 340.500 280.614 C 368.043 268.958, 379.732 247.691, 418.890 138 C 425.736 118.823, 423.009 111, 409.478 111 C 408.865 111, 402.805 123.487, 396.012 138.750 C 353.388 234.509, 340.118 254.397, 314.653 260.682 C 287.863 267.294, 286.545 269.248, 225.040 393.500 C 183.212 478, 178.490 487.824, 179.311 488.644 C 179.662 488.995, 184.552 490.319, 190.177 491.587 C 427.826 545.143, 596.867 257.435, 429.568 84.143 C 410.908 64.815, 359 28.535, 359 34.821 M 337.290 77.250 C 336.765 77.938, 335.399 80.525, 334.254 83 C 333.109 85.475, 319.481 113.150, 303.968 144.500 C 271.408 210.303, 271.315 210.596, 280.581 217.885 C 291.267 226.291, 296.400 222.172, 310.634 193.770 C 365.199 84.893, 364.041 88.045, 351.767 81.818 C 339.583 75.638, 338.728 75.368, 337.290 77.250 M 340.785 155.750 C 303.814 230.237, 303.638 230.877, 318.513 236.558 C 329.646 240.810, 331.176 238.989, 351.848 196.878 C 360.589 179.070, 374.345 151.058, 382.416 134.628 C 390.487 118.199, 396.957 104.638, 396.795 104.493 C 395.791 103.594, 373.839 93, 372.981 93 C 372.403 93, 357.914 121.237, 340.785 155.750" stroke="none" fill="#f38739" fill-rule="evenodd"/><path d="M 203.500 3.543 C 65.482 22.499, -23.581 123.006, 12.576 219 C 17.396 231.796, 17.470 231.725, 33.894 198.500 C 57.596 150.551, 87.926 113.095, 126 84.752 C 137.534 76.165, 163.433 62, 167.598 62 C 167.877 62, 161.852 66.670, 154.209 72.379 C 15.576 175.920, -25.219 368.630, 77.344 435.484 C 122.496 464.915, 165.195 465.117, 186.444 436 C 196.835 421.761, 260.266 293.146, 267.446 271.755 C 271.642 259.256, 270.534 247.881, 263.842 234.743 C 253.791 215.014, 264.261 183.943, 307.729 104.500 C 321.893 78.612, 326.368 70.019, 325.889 69.621 C 311.305 57.511, 311.478 57.364, 278.486 110 C 230.714 186.216, 225.679 200.053, 233.939 232.408 C 241.258 261.080, 242.607 256.597, 204.123 331.517 C 165.869 405.990, 162.868 409.762, 139.114 413.225 C 87.790 420.705, 39.424 352.947, 48.937 286.892 C 53.059 258.271, 52.525 258.747, 92 248.483 C 160.043 230.789, 175.147 216.645, 217.999 130.500 C 250.062 66.044, 265.117 44.125, 291.922 22.875 C 306.423 11.380, 244.698 -2.115, 203.500 3.543" stroke="none" fill="#6cb453" fill-rule="evenodd"/></svg>